G04 #@! TF.GenerationSoftware,KiCad,Pcbnew,5.1.5*
G04 #@! TF.CreationDate,2020-04-05T15:42:04+02:00*
G04 #@! TF.ProjectId,HB-LC-DimPWM-PCB,48422d4c-432d-4446-996d-50574d2d5043,rev?*
G04 #@! TF.SameCoordinates,Original*
G04 #@! TF.FileFunction,Legend,Bot*
G04 #@! TF.FilePolarity,Positive*
%FSLAX46Y46*%
G04 Gerber Fmt 4.6, Leading zero omitted, Abs format (unit mm)*
G04 Created by KiCad (PCBNEW 5.1.5) date 2020-04-05 15:42:04*
%MOMM*%
%LPD*%
G04 APERTURE LIST*
%ADD10C,0.200000*%
G04 APERTURE END LIST*
D10*
X92058571Y-102103571D02*
X92058571Y-100603571D01*
X91487142Y-100603571D01*
X91344285Y-100675000D01*
X91272857Y-100746428D01*
X91201428Y-100889285D01*
X91201428Y-101103571D01*
X91272857Y-101246428D01*
X91344285Y-101317857D01*
X91487142Y-101389285D01*
X92058571Y-101389285D01*
X90701428Y-100603571D02*
X90344285Y-102103571D01*
X90058571Y-101032142D01*
X89772857Y-102103571D01*
X89415714Y-100603571D01*
X88844285Y-102103571D02*
X88844285Y-100603571D01*
X88344285Y-101675000D01*
X87844285Y-100603571D01*
X87844285Y-102103571D01*
X86344285Y-102103571D02*
X87201428Y-102103571D01*
X86772857Y-102103571D02*
X86772857Y-100603571D01*
X86915714Y-100817857D01*
X87058571Y-100960714D01*
X87201428Y-101032142D01*
X85844285Y-100603571D02*
X84915714Y-100603571D01*
X85415714Y-101175000D01*
X85201428Y-101175000D01*
X85058571Y-101246428D01*
X84987142Y-101317857D01*
X84915714Y-101460714D01*
X84915714Y-101817857D01*
X84987142Y-101960714D01*
X85058571Y-102032142D01*
X85201428Y-102103571D01*
X85630000Y-102103571D01*
X85772857Y-102032142D01*
X85844285Y-101960714D01*
X92058571Y-105503571D02*
X92058571Y-104003571D01*
X91487142Y-104003571D01*
X91344285Y-104075000D01*
X91272857Y-104146428D01*
X91201428Y-104289285D01*
X91201428Y-104503571D01*
X91272857Y-104646428D01*
X91344285Y-104717857D01*
X91487142Y-104789285D01*
X92058571Y-104789285D01*
X90701428Y-104003571D02*
X90344285Y-105503571D01*
X90058571Y-104432142D01*
X89772857Y-105503571D01*
X89415714Y-104003571D01*
X88844285Y-105503571D02*
X88844285Y-104003571D01*
X88344285Y-105075000D01*
X87844285Y-104003571D01*
X87844285Y-105503571D01*
X86344285Y-105503571D02*
X87201428Y-105503571D01*
X86772857Y-105503571D02*
X86772857Y-104003571D01*
X86915714Y-104217857D01*
X87058571Y-104360714D01*
X87201428Y-104432142D01*
X85058571Y-104503571D02*
X85058571Y-105503571D01*
X85415714Y-103932142D02*
X85772857Y-105003571D01*
X84844285Y-105003571D01*
X92058571Y-112503571D02*
X92058571Y-111003571D01*
X91487142Y-111003571D01*
X91344285Y-111075000D01*
X91272857Y-111146428D01*
X91201428Y-111289285D01*
X91201428Y-111503571D01*
X91272857Y-111646428D01*
X91344285Y-111717857D01*
X91487142Y-111789285D01*
X92058571Y-111789285D01*
X90701428Y-111003571D02*
X90344285Y-112503571D01*
X90058571Y-111432142D01*
X89772857Y-112503571D01*
X89415714Y-111003571D01*
X88844285Y-112503571D02*
X88844285Y-111003571D01*
X88344285Y-112075000D01*
X87844285Y-111003571D01*
X87844285Y-112503571D01*
X86344285Y-112503571D02*
X87201428Y-112503571D01*
X86772857Y-112503571D02*
X86772857Y-111003571D01*
X86915714Y-111217857D01*
X87058571Y-111360714D01*
X87201428Y-111432142D01*
X85058571Y-111003571D02*
X85344285Y-111003571D01*
X85487142Y-111075000D01*
X85558571Y-111146428D01*
X85701428Y-111360714D01*
X85772857Y-111646428D01*
X85772857Y-112217857D01*
X85701428Y-112360714D01*
X85630000Y-112432142D01*
X85487142Y-112503571D01*
X85201428Y-112503571D01*
X85058571Y-112432142D01*
X84987142Y-112360714D01*
X84915714Y-112217857D01*
X84915714Y-111860714D01*
X84987142Y-111717857D01*
X85058571Y-111646428D01*
X85201428Y-111575000D01*
X85487142Y-111575000D01*
X85630000Y-111646428D01*
X85701428Y-111717857D01*
X85772857Y-111860714D01*
X92058571Y-109003571D02*
X92058571Y-107503571D01*
X91487142Y-107503571D01*
X91344285Y-107575000D01*
X91272857Y-107646428D01*
X91201428Y-107789285D01*
X91201428Y-108003571D01*
X91272857Y-108146428D01*
X91344285Y-108217857D01*
X91487142Y-108289285D01*
X92058571Y-108289285D01*
X90701428Y-107503571D02*
X90344285Y-109003571D01*
X90058571Y-107932142D01*
X89772857Y-109003571D01*
X89415714Y-107503571D01*
X88844285Y-109003571D02*
X88844285Y-107503571D01*
X88344285Y-108575000D01*
X87844285Y-107503571D01*
X87844285Y-109003571D01*
X86344285Y-109003571D02*
X87201428Y-109003571D01*
X86772857Y-109003571D02*
X86772857Y-107503571D01*
X86915714Y-107717857D01*
X87058571Y-107860714D01*
X87201428Y-107932142D01*
X84987142Y-107503571D02*
X85701428Y-107503571D01*
X85772857Y-108217857D01*
X85701428Y-108146428D01*
X85558571Y-108075000D01*
X85201428Y-108075000D01*
X85058571Y-108146428D01*
X84987142Y-108217857D01*
X84915714Y-108360714D01*
X84915714Y-108717857D01*
X84987142Y-108860714D01*
X85058571Y-108932142D01*
X85201428Y-109003571D01*
X85558571Y-109003571D01*
X85701428Y-108932142D01*
X85772857Y-108860714D01*
X88058571Y-97075000D02*
X88201428Y-97003571D01*
X88415714Y-97003571D01*
X88630000Y-97075000D01*
X88772857Y-97217857D01*
X88844285Y-97360714D01*
X88915714Y-97646428D01*
X88915714Y-97860714D01*
X88844285Y-98146428D01*
X88772857Y-98289285D01*
X88630000Y-98432142D01*
X88415714Y-98503571D01*
X88272857Y-98503571D01*
X88058571Y-98432142D01*
X87987142Y-98360714D01*
X87987142Y-97860714D01*
X88272857Y-97860714D01*
X87344285Y-98503571D02*
X87344285Y-97003571D01*
X86487142Y-98503571D01*
X86487142Y-97003571D01*
X85772857Y-98503571D02*
X85772857Y-97003571D01*
X85415714Y-97003571D01*
X85201428Y-97075000D01*
X85058571Y-97217857D01*
X84987142Y-97360714D01*
X84915714Y-97646428D01*
X84915714Y-97860714D01*
X84987142Y-98146428D01*
X85058571Y-98289285D01*
X85201428Y-98432142D01*
X85415714Y-98503571D01*
X85772857Y-98503571D01*
X92058571Y-84378571D02*
X92058571Y-82878571D01*
X91487142Y-82878571D01*
X91344285Y-82950000D01*
X91272857Y-83021428D01*
X91201428Y-83164285D01*
X91201428Y-83378571D01*
X91272857Y-83521428D01*
X91344285Y-83592857D01*
X91487142Y-83664285D01*
X92058571Y-83664285D01*
X90701428Y-82878571D02*
X90344285Y-84378571D01*
X90058571Y-83307142D01*
X89772857Y-84378571D01*
X89415714Y-82878571D01*
X88844285Y-84378571D02*
X88844285Y-82878571D01*
X88344285Y-83950000D01*
X87844285Y-82878571D01*
X87844285Y-84378571D01*
X86344285Y-84378571D02*
X87201428Y-84378571D01*
X86772857Y-84378571D02*
X86772857Y-82878571D01*
X86915714Y-83092857D01*
X87058571Y-83235714D01*
X87201428Y-83307142D01*
X85772857Y-83021428D02*
X85701428Y-82950000D01*
X85558571Y-82878571D01*
X85201428Y-82878571D01*
X85058571Y-82950000D01*
X84987142Y-83021428D01*
X84915714Y-83164285D01*
X84915714Y-83307142D01*
X84987142Y-83521428D01*
X85844285Y-84378571D01*
X84915714Y-84378571D01*
X92058571Y-80878571D02*
X92058571Y-79378571D01*
X91487142Y-79378571D01*
X91344285Y-79450000D01*
X91272857Y-79521428D01*
X91201428Y-79664285D01*
X91201428Y-79878571D01*
X91272857Y-80021428D01*
X91344285Y-80092857D01*
X91487142Y-80164285D01*
X92058571Y-80164285D01*
X90701428Y-79378571D02*
X90344285Y-80878571D01*
X90058571Y-79807142D01*
X89772857Y-80878571D01*
X89415714Y-79378571D01*
X88844285Y-80878571D02*
X88844285Y-79378571D01*
X88344285Y-80450000D01*
X87844285Y-79378571D01*
X87844285Y-80878571D01*
X86344285Y-80878571D02*
X87201428Y-80878571D01*
X86772857Y-80878571D02*
X86772857Y-79378571D01*
X86915714Y-79592857D01*
X87058571Y-79735714D01*
X87201428Y-79807142D01*
X84915714Y-80878571D02*
X85772857Y-80878571D01*
X85344285Y-80878571D02*
X85344285Y-79378571D01*
X85487142Y-79592857D01*
X85630000Y-79735714D01*
X85772857Y-79807142D01*
X92058571Y-77378571D02*
X92058571Y-75878571D01*
X91487142Y-75878571D01*
X91344285Y-75950000D01*
X91272857Y-76021428D01*
X91201428Y-76164285D01*
X91201428Y-76378571D01*
X91272857Y-76521428D01*
X91344285Y-76592857D01*
X91487142Y-76664285D01*
X92058571Y-76664285D01*
X90701428Y-75878571D02*
X90344285Y-77378571D01*
X90058571Y-76307142D01*
X89772857Y-77378571D01*
X89415714Y-75878571D01*
X88844285Y-77378571D02*
X88844285Y-75878571D01*
X88344285Y-76950000D01*
X87844285Y-75878571D01*
X87844285Y-77378571D01*
X86344285Y-77378571D02*
X87201428Y-77378571D01*
X86772857Y-77378571D02*
X86772857Y-75878571D01*
X86915714Y-76092857D01*
X87058571Y-76235714D01*
X87201428Y-76307142D01*
X85415714Y-75878571D02*
X85272857Y-75878571D01*
X85130000Y-75950000D01*
X85058571Y-76021428D01*
X84987142Y-76164285D01*
X84915714Y-76450000D01*
X84915714Y-76807142D01*
X84987142Y-77092857D01*
X85058571Y-77235714D01*
X85130000Y-77307142D01*
X85272857Y-77378571D01*
X85415714Y-77378571D01*
X85558571Y-77307142D01*
X85630000Y-77235714D01*
X85701428Y-77092857D01*
X85772857Y-76807142D01*
X85772857Y-76450000D01*
X85701428Y-76164285D01*
X85630000Y-76021428D01*
X85558571Y-75950000D01*
X85415714Y-75878571D01*
X92058571Y-73978571D02*
X92058571Y-72478571D01*
X91487142Y-72478571D01*
X91344285Y-72550000D01*
X91272857Y-72621428D01*
X91201428Y-72764285D01*
X91201428Y-72978571D01*
X91272857Y-73121428D01*
X91344285Y-73192857D01*
X91487142Y-73264285D01*
X92058571Y-73264285D01*
X90701428Y-72478571D02*
X90344285Y-73978571D01*
X90058571Y-72907142D01*
X89772857Y-73978571D01*
X89415714Y-72478571D01*
X88844285Y-73978571D02*
X88844285Y-72478571D01*
X88344285Y-73550000D01*
X87844285Y-72478571D01*
X87844285Y-73978571D01*
X86844285Y-72478571D02*
X86701428Y-72478571D01*
X86558571Y-72550000D01*
X86487142Y-72621428D01*
X86415714Y-72764285D01*
X86344285Y-73050000D01*
X86344285Y-73407142D01*
X86415714Y-73692857D01*
X86487142Y-73835714D01*
X86558571Y-73907142D01*
X86701428Y-73978571D01*
X86844285Y-73978571D01*
X86987142Y-73907142D01*
X87058571Y-73835714D01*
X87130000Y-73692857D01*
X87201428Y-73407142D01*
X87201428Y-73050000D01*
X87130000Y-72764285D01*
X87058571Y-72621428D01*
X86987142Y-72550000D01*
X86844285Y-72478571D01*
X85630000Y-73978571D02*
X85344285Y-73978571D01*
X85201428Y-73907142D01*
X85130000Y-73835714D01*
X84987142Y-73621428D01*
X84915714Y-73335714D01*
X84915714Y-72764285D01*
X84987142Y-72621428D01*
X85058571Y-72550000D01*
X85201428Y-72478571D01*
X85487142Y-72478571D01*
X85630000Y-72550000D01*
X85701428Y-72621428D01*
X85772857Y-72764285D01*
X85772857Y-73121428D01*
X85701428Y-73264285D01*
X85630000Y-73335714D01*
X85487142Y-73407142D01*
X85201428Y-73407142D01*
X85058571Y-73335714D01*
X84987142Y-73264285D01*
X84915714Y-73121428D01*
X88058571Y-68950000D02*
X88201428Y-68878571D01*
X88415714Y-68878571D01*
X88630000Y-68950000D01*
X88772857Y-69092857D01*
X88844285Y-69235714D01*
X88915714Y-69521428D01*
X88915714Y-69735714D01*
X88844285Y-70021428D01*
X88772857Y-70164285D01*
X88630000Y-70307142D01*
X88415714Y-70378571D01*
X88272857Y-70378571D01*
X88058571Y-70307142D01*
X87987142Y-70235714D01*
X87987142Y-69735714D01*
X88272857Y-69735714D01*
X87344285Y-70378571D02*
X87344285Y-68878571D01*
X86487142Y-70378571D01*
X86487142Y-68878571D01*
X85772857Y-70378571D02*
X85772857Y-68878571D01*
X85415714Y-68878571D01*
X85201428Y-68950000D01*
X85058571Y-69092857D01*
X84987142Y-69235714D01*
X84915714Y-69521428D01*
X84915714Y-69735714D01*
X84987142Y-70021428D01*
X85058571Y-70164285D01*
X85201428Y-70307142D01*
X85415714Y-70378571D01*
X85772857Y-70378571D01*
X260952857Y-105838571D02*
X260952857Y-104338571D01*
X260381428Y-104338571D01*
X260238571Y-104410000D01*
X260167142Y-104481428D01*
X260095714Y-104624285D01*
X260095714Y-104838571D01*
X260167142Y-104981428D01*
X260238571Y-105052857D01*
X260381428Y-105124285D01*
X260952857Y-105124285D01*
X259595714Y-104338571D02*
X259238571Y-105838571D01*
X258952857Y-104767142D01*
X258667142Y-105838571D01*
X258310000Y-104338571D01*
X257738571Y-105838571D02*
X257738571Y-104338571D01*
X257238571Y-105410000D01*
X256738571Y-104338571D01*
X256738571Y-105838571D01*
X255738571Y-104338571D02*
X255595714Y-104338571D01*
X255452857Y-104410000D01*
X255381428Y-104481428D01*
X255310000Y-104624285D01*
X255238571Y-104910000D01*
X255238571Y-105267142D01*
X255310000Y-105552857D01*
X255381428Y-105695714D01*
X255452857Y-105767142D01*
X255595714Y-105838571D01*
X255738571Y-105838571D01*
X255881428Y-105767142D01*
X255952857Y-105695714D01*
X256024285Y-105552857D01*
X256095714Y-105267142D01*
X256095714Y-104910000D01*
X256024285Y-104624285D01*
X255952857Y-104481428D01*
X255881428Y-104410000D01*
X255738571Y-104338571D01*
X253952857Y-104338571D02*
X254238571Y-104338571D01*
X254381428Y-104410000D01*
X254452857Y-104481428D01*
X254595714Y-104695714D01*
X254667142Y-104981428D01*
X254667142Y-105552857D01*
X254595714Y-105695714D01*
X254524285Y-105767142D01*
X254381428Y-105838571D01*
X254095714Y-105838571D01*
X253952857Y-105767142D01*
X253881428Y-105695714D01*
X253810000Y-105552857D01*
X253810000Y-105195714D01*
X253881428Y-105052857D01*
X253952857Y-104981428D01*
X254095714Y-104910000D01*
X254381428Y-104910000D01*
X254524285Y-104981428D01*
X254595714Y-105052857D01*
X254667142Y-105195714D01*
X260952857Y-109338571D02*
X260952857Y-107838571D01*
X260381428Y-107838571D01*
X260238571Y-107910000D01*
X260167142Y-107981428D01*
X260095714Y-108124285D01*
X260095714Y-108338571D01*
X260167142Y-108481428D01*
X260238571Y-108552857D01*
X260381428Y-108624285D01*
X260952857Y-108624285D01*
X259595714Y-107838571D02*
X259238571Y-109338571D01*
X258952857Y-108267142D01*
X258667142Y-109338571D01*
X258310000Y-107838571D01*
X257738571Y-109338571D02*
X257738571Y-107838571D01*
X257238571Y-108910000D01*
X256738571Y-107838571D01*
X256738571Y-109338571D01*
X255738571Y-107838571D02*
X255595714Y-107838571D01*
X255452857Y-107910000D01*
X255381428Y-107981428D01*
X255310000Y-108124285D01*
X255238571Y-108410000D01*
X255238571Y-108767142D01*
X255310000Y-109052857D01*
X255381428Y-109195714D01*
X255452857Y-109267142D01*
X255595714Y-109338571D01*
X255738571Y-109338571D01*
X255881428Y-109267142D01*
X255952857Y-109195714D01*
X256024285Y-109052857D01*
X256095714Y-108767142D01*
X256095714Y-108410000D01*
X256024285Y-108124285D01*
X255952857Y-107981428D01*
X255881428Y-107910000D01*
X255738571Y-107838571D01*
X253881428Y-107838571D02*
X254595714Y-107838571D01*
X254667142Y-108552857D01*
X254595714Y-108481428D01*
X254452857Y-108410000D01*
X254095714Y-108410000D01*
X253952857Y-108481428D01*
X253881428Y-108552857D01*
X253810000Y-108695714D01*
X253810000Y-109052857D01*
X253881428Y-109195714D01*
X253952857Y-109267142D01*
X254095714Y-109338571D01*
X254452857Y-109338571D01*
X254595714Y-109267142D01*
X254667142Y-109195714D01*
X260067142Y-111510000D02*
X260210000Y-111438571D01*
X260424285Y-111438571D01*
X260638571Y-111510000D01*
X260781428Y-111652857D01*
X260852857Y-111795714D01*
X260924285Y-112081428D01*
X260924285Y-112295714D01*
X260852857Y-112581428D01*
X260781428Y-112724285D01*
X260638571Y-112867142D01*
X260424285Y-112938571D01*
X260281428Y-112938571D01*
X260067142Y-112867142D01*
X259995714Y-112795714D01*
X259995714Y-112295714D01*
X260281428Y-112295714D01*
X259352857Y-112938571D02*
X259352857Y-111438571D01*
X258495714Y-112938571D01*
X258495714Y-111438571D01*
X257781428Y-112938571D02*
X257781428Y-111438571D01*
X257424285Y-111438571D01*
X257210000Y-111510000D01*
X257067142Y-111652857D01*
X256995714Y-111795714D01*
X256924285Y-112081428D01*
X256924285Y-112295714D01*
X256995714Y-112581428D01*
X257067142Y-112724285D01*
X257210000Y-112867142D01*
X257424285Y-112938571D01*
X257781428Y-112938571D01*
X260952857Y-98838571D02*
X260952857Y-97338571D01*
X260381428Y-97338571D01*
X260238571Y-97410000D01*
X260167142Y-97481428D01*
X260095714Y-97624285D01*
X260095714Y-97838571D01*
X260167142Y-97981428D01*
X260238571Y-98052857D01*
X260381428Y-98124285D01*
X260952857Y-98124285D01*
X259595714Y-97338571D02*
X259238571Y-98838571D01*
X258952857Y-97767142D01*
X258667142Y-98838571D01*
X258310000Y-97338571D01*
X257738571Y-98838571D02*
X257738571Y-97338571D01*
X257238571Y-98410000D01*
X256738571Y-97338571D01*
X256738571Y-98838571D01*
X255738571Y-97338571D02*
X255595714Y-97338571D01*
X255452857Y-97410000D01*
X255381428Y-97481428D01*
X255310000Y-97624285D01*
X255238571Y-97910000D01*
X255238571Y-98267142D01*
X255310000Y-98552857D01*
X255381428Y-98695714D01*
X255452857Y-98767142D01*
X255595714Y-98838571D01*
X255738571Y-98838571D01*
X255881428Y-98767142D01*
X255952857Y-98695714D01*
X256024285Y-98552857D01*
X256095714Y-98267142D01*
X256095714Y-97910000D01*
X256024285Y-97624285D01*
X255952857Y-97481428D01*
X255881428Y-97410000D01*
X255738571Y-97338571D01*
X254381428Y-97981428D02*
X254524285Y-97910000D01*
X254595714Y-97838571D01*
X254667142Y-97695714D01*
X254667142Y-97624285D01*
X254595714Y-97481428D01*
X254524285Y-97410000D01*
X254381428Y-97338571D01*
X254095714Y-97338571D01*
X253952857Y-97410000D01*
X253881428Y-97481428D01*
X253810000Y-97624285D01*
X253810000Y-97695714D01*
X253881428Y-97838571D01*
X253952857Y-97910000D01*
X254095714Y-97981428D01*
X254381428Y-97981428D01*
X254524285Y-98052857D01*
X254595714Y-98124285D01*
X254667142Y-98267142D01*
X254667142Y-98552857D01*
X254595714Y-98695714D01*
X254524285Y-98767142D01*
X254381428Y-98838571D01*
X254095714Y-98838571D01*
X253952857Y-98767142D01*
X253881428Y-98695714D01*
X253810000Y-98552857D01*
X253810000Y-98267142D01*
X253881428Y-98124285D01*
X253952857Y-98052857D01*
X254095714Y-97981428D01*
X260952857Y-102338571D02*
X260952857Y-100838571D01*
X260381428Y-100838571D01*
X260238571Y-100910000D01*
X260167142Y-100981428D01*
X260095714Y-101124285D01*
X260095714Y-101338571D01*
X260167142Y-101481428D01*
X260238571Y-101552857D01*
X260381428Y-101624285D01*
X260952857Y-101624285D01*
X259595714Y-100838571D02*
X259238571Y-102338571D01*
X258952857Y-101267142D01*
X258667142Y-102338571D01*
X258310000Y-100838571D01*
X257738571Y-102338571D02*
X257738571Y-100838571D01*
X257238571Y-101910000D01*
X256738571Y-100838571D01*
X256738571Y-102338571D01*
X255738571Y-100838571D02*
X255595714Y-100838571D01*
X255452857Y-100910000D01*
X255381428Y-100981428D01*
X255310000Y-101124285D01*
X255238571Y-101410000D01*
X255238571Y-101767142D01*
X255310000Y-102052857D01*
X255381428Y-102195714D01*
X255452857Y-102267142D01*
X255595714Y-102338571D01*
X255738571Y-102338571D01*
X255881428Y-102267142D01*
X255952857Y-102195714D01*
X256024285Y-102052857D01*
X256095714Y-101767142D01*
X256095714Y-101410000D01*
X256024285Y-101124285D01*
X255952857Y-100981428D01*
X255881428Y-100910000D01*
X255738571Y-100838571D01*
X254738571Y-100838571D02*
X253738571Y-100838571D01*
X254381428Y-102338571D01*
X260912857Y-70678571D02*
X260912857Y-69178571D01*
X260341428Y-69178571D01*
X260198571Y-69250000D01*
X260127142Y-69321428D01*
X260055714Y-69464285D01*
X260055714Y-69678571D01*
X260127142Y-69821428D01*
X260198571Y-69892857D01*
X260341428Y-69964285D01*
X260912857Y-69964285D01*
X259555714Y-69178571D02*
X259198571Y-70678571D01*
X258912857Y-69607142D01*
X258627142Y-70678571D01*
X258270000Y-69178571D01*
X257698571Y-70678571D02*
X257698571Y-69178571D01*
X257198571Y-70250000D01*
X256698571Y-69178571D01*
X256698571Y-70678571D01*
X255698571Y-69178571D02*
X255555714Y-69178571D01*
X255412857Y-69250000D01*
X255341428Y-69321428D01*
X255270000Y-69464285D01*
X255198571Y-69750000D01*
X255198571Y-70107142D01*
X255270000Y-70392857D01*
X255341428Y-70535714D01*
X255412857Y-70607142D01*
X255555714Y-70678571D01*
X255698571Y-70678571D01*
X255841428Y-70607142D01*
X255912857Y-70535714D01*
X255984285Y-70392857D01*
X256055714Y-70107142D01*
X256055714Y-69750000D01*
X255984285Y-69464285D01*
X255912857Y-69321428D01*
X255841428Y-69250000D01*
X255698571Y-69178571D01*
X253912857Y-69678571D02*
X253912857Y-70678571D01*
X254270000Y-69107142D02*
X254627142Y-70178571D01*
X253698571Y-70178571D01*
X260912857Y-74178571D02*
X260912857Y-72678571D01*
X260341428Y-72678571D01*
X260198571Y-72750000D01*
X260127142Y-72821428D01*
X260055714Y-72964285D01*
X260055714Y-73178571D01*
X260127142Y-73321428D01*
X260198571Y-73392857D01*
X260341428Y-73464285D01*
X260912857Y-73464285D01*
X259555714Y-72678571D02*
X259198571Y-74178571D01*
X258912857Y-73107142D01*
X258627142Y-74178571D01*
X258270000Y-72678571D01*
X257698571Y-74178571D02*
X257698571Y-72678571D01*
X257198571Y-73750000D01*
X256698571Y-72678571D01*
X256698571Y-74178571D01*
X255698571Y-72678571D02*
X255555714Y-72678571D01*
X255412857Y-72750000D01*
X255341428Y-72821428D01*
X255270000Y-72964285D01*
X255198571Y-73250000D01*
X255198571Y-73607142D01*
X255270000Y-73892857D01*
X255341428Y-74035714D01*
X255412857Y-74107142D01*
X255555714Y-74178571D01*
X255698571Y-74178571D01*
X255841428Y-74107142D01*
X255912857Y-74035714D01*
X255984285Y-73892857D01*
X256055714Y-73607142D01*
X256055714Y-73250000D01*
X255984285Y-72964285D01*
X255912857Y-72821428D01*
X255841428Y-72750000D01*
X255698571Y-72678571D01*
X254698571Y-72678571D02*
X253770000Y-72678571D01*
X254270000Y-73250000D01*
X254055714Y-73250000D01*
X253912857Y-73321428D01*
X253841428Y-73392857D01*
X253770000Y-73535714D01*
X253770000Y-73892857D01*
X253841428Y-74035714D01*
X253912857Y-74107142D01*
X254055714Y-74178571D01*
X254484285Y-74178571D01*
X254627142Y-74107142D01*
X254698571Y-74035714D01*
X260912857Y-77678571D02*
X260912857Y-76178571D01*
X260341428Y-76178571D01*
X260198571Y-76250000D01*
X260127142Y-76321428D01*
X260055714Y-76464285D01*
X260055714Y-76678571D01*
X260127142Y-76821428D01*
X260198571Y-76892857D01*
X260341428Y-76964285D01*
X260912857Y-76964285D01*
X259555714Y-76178571D02*
X259198571Y-77678571D01*
X258912857Y-76607142D01*
X258627142Y-77678571D01*
X258270000Y-76178571D01*
X257698571Y-77678571D02*
X257698571Y-76178571D01*
X257198571Y-77250000D01*
X256698571Y-76178571D01*
X256698571Y-77678571D01*
X255698571Y-76178571D02*
X255555714Y-76178571D01*
X255412857Y-76250000D01*
X255341428Y-76321428D01*
X255270000Y-76464285D01*
X255198571Y-76750000D01*
X255198571Y-77107142D01*
X255270000Y-77392857D01*
X255341428Y-77535714D01*
X255412857Y-77607142D01*
X255555714Y-77678571D01*
X255698571Y-77678571D01*
X255841428Y-77607142D01*
X255912857Y-77535714D01*
X255984285Y-77392857D01*
X256055714Y-77107142D01*
X256055714Y-76750000D01*
X255984285Y-76464285D01*
X255912857Y-76321428D01*
X255841428Y-76250000D01*
X255698571Y-76178571D01*
X254627142Y-76321428D02*
X254555714Y-76250000D01*
X254412857Y-76178571D01*
X254055714Y-76178571D01*
X253912857Y-76250000D01*
X253841428Y-76321428D01*
X253770000Y-76464285D01*
X253770000Y-76607142D01*
X253841428Y-76821428D01*
X254698571Y-77678571D01*
X253770000Y-77678571D01*
X260912857Y-81178571D02*
X260912857Y-79678571D01*
X260341428Y-79678571D01*
X260198571Y-79750000D01*
X260127142Y-79821428D01*
X260055714Y-79964285D01*
X260055714Y-80178571D01*
X260127142Y-80321428D01*
X260198571Y-80392857D01*
X260341428Y-80464285D01*
X260912857Y-80464285D01*
X259555714Y-79678571D02*
X259198571Y-81178571D01*
X258912857Y-80107142D01*
X258627142Y-81178571D01*
X258270000Y-79678571D01*
X257698571Y-81178571D02*
X257698571Y-79678571D01*
X257198571Y-80750000D01*
X256698571Y-79678571D01*
X256698571Y-81178571D01*
X255698571Y-79678571D02*
X255555714Y-79678571D01*
X255412857Y-79750000D01*
X255341428Y-79821428D01*
X255270000Y-79964285D01*
X255198571Y-80250000D01*
X255198571Y-80607142D01*
X255270000Y-80892857D01*
X255341428Y-81035714D01*
X255412857Y-81107142D01*
X255555714Y-81178571D01*
X255698571Y-81178571D01*
X255841428Y-81107142D01*
X255912857Y-81035714D01*
X255984285Y-80892857D01*
X256055714Y-80607142D01*
X256055714Y-80250000D01*
X255984285Y-79964285D01*
X255912857Y-79821428D01*
X255841428Y-79750000D01*
X255698571Y-79678571D01*
X253770000Y-81178571D02*
X254627142Y-81178571D01*
X254198571Y-81178571D02*
X254198571Y-79678571D01*
X254341428Y-79892857D01*
X254484285Y-80035714D01*
X254627142Y-80107142D01*
X260027142Y-83350000D02*
X260170000Y-83278571D01*
X260384285Y-83278571D01*
X260598571Y-83350000D01*
X260741428Y-83492857D01*
X260812857Y-83635714D01*
X260884285Y-83921428D01*
X260884285Y-84135714D01*
X260812857Y-84421428D01*
X260741428Y-84564285D01*
X260598571Y-84707142D01*
X260384285Y-84778571D01*
X260241428Y-84778571D01*
X260027142Y-84707142D01*
X259955714Y-84635714D01*
X259955714Y-84135714D01*
X260241428Y-84135714D01*
X259312857Y-84778571D02*
X259312857Y-83278571D01*
X258455714Y-84778571D01*
X258455714Y-83278571D01*
X257741428Y-84778571D02*
X257741428Y-83278571D01*
X257384285Y-83278571D01*
X257170000Y-83350000D01*
X257027142Y-83492857D01*
X256955714Y-83635714D01*
X256884285Y-83921428D01*
X256884285Y-84135714D01*
X256955714Y-84421428D01*
X257027142Y-84564285D01*
X257170000Y-84707142D01*
X257384285Y-84778571D01*
X257741428Y-84778571D01*
M02*
