G04 #@! TF.GenerationSoftware,KiCad,Pcbnew,5.1.5*
G04 #@! TF.CreationDate,2020-04-05T15:42:04+02:00*
G04 #@! TF.ProjectId,HB-LC-DimPWM-PCB,48422d4c-432d-4446-996d-50574d2d5043,rev?*
G04 #@! TF.SameCoordinates,Original*
G04 #@! TF.FileFunction,Copper,L2,Bot*
G04 #@! TF.FilePolarity,Positive*
%FSLAX46Y46*%
G04 Gerber Fmt 4.6, Leading zero omitted, Abs format (unit mm)*
G04 Created by KiCad (PCBNEW 5.1.5) date 2020-04-05 15:42:04*
%MOMM*%
%LPD*%
G04 APERTURE LIST*
%ADD10O,2.000000X2.600000*%
%ADD11C,0.100000*%
%ADD12O,2.600000X2.000000*%
%ADD13C,1.700000*%
%ADD14R,1.700000X1.700000*%
%ADD15R,1.727200X1.727200*%
%ADD16O,1.727200X1.727200*%
%ADD17C,0.600000*%
%ADD18C,0.250000*%
%ADD19C,2.000000*%
%ADD20C,0.127000*%
%ADD21C,1.000000*%
G04 APERTURE END LIST*
D10*
X156700000Y-98000000D03*
G04 #@! TA.AperFunction,ComponentPad*
D11*
G36*
X153974504Y-96701204D02*
G01*
X153998773Y-96704804D01*
X154022571Y-96710765D01*
X154045671Y-96719030D01*
X154067849Y-96729520D01*
X154088893Y-96742133D01*
X154108598Y-96756747D01*
X154126777Y-96773223D01*
X154143253Y-96791402D01*
X154157867Y-96811107D01*
X154170480Y-96832151D01*
X154180970Y-96854329D01*
X154189235Y-96877429D01*
X154195196Y-96901227D01*
X154198796Y-96925496D01*
X154200000Y-96950000D01*
X154200000Y-99050000D01*
X154198796Y-99074504D01*
X154195196Y-99098773D01*
X154189235Y-99122571D01*
X154180970Y-99145671D01*
X154170480Y-99167849D01*
X154157867Y-99188893D01*
X154143253Y-99208598D01*
X154126777Y-99226777D01*
X154108598Y-99243253D01*
X154088893Y-99257867D01*
X154067849Y-99270480D01*
X154045671Y-99280970D01*
X154022571Y-99289235D01*
X153998773Y-99295196D01*
X153974504Y-99298796D01*
X153950000Y-99300000D01*
X152450000Y-99300000D01*
X152425496Y-99298796D01*
X152401227Y-99295196D01*
X152377429Y-99289235D01*
X152354329Y-99280970D01*
X152332151Y-99270480D01*
X152311107Y-99257867D01*
X152291402Y-99243253D01*
X152273223Y-99226777D01*
X152256747Y-99208598D01*
X152242133Y-99188893D01*
X152229520Y-99167849D01*
X152219030Y-99145671D01*
X152210765Y-99122571D01*
X152204804Y-99098773D01*
X152201204Y-99074504D01*
X152200000Y-99050000D01*
X152200000Y-96950000D01*
X152201204Y-96925496D01*
X152204804Y-96901227D01*
X152210765Y-96877429D01*
X152219030Y-96854329D01*
X152229520Y-96832151D01*
X152242133Y-96811107D01*
X152256747Y-96791402D01*
X152273223Y-96773223D01*
X152291402Y-96756747D01*
X152311107Y-96742133D01*
X152332151Y-96729520D01*
X152354329Y-96719030D01*
X152377429Y-96710765D01*
X152401227Y-96704804D01*
X152425496Y-96701204D01*
X152450000Y-96700000D01*
X153950000Y-96700000D01*
X153974504Y-96701204D01*
G37*
G04 #@! TD.AperFunction*
D12*
X93900000Y-111700000D03*
X93900000Y-108200000D03*
X93900000Y-104700000D03*
X93900000Y-101200000D03*
G04 #@! TA.AperFunction,ComponentPad*
D11*
G36*
X94974504Y-96701204D02*
G01*
X94998773Y-96704804D01*
X95022571Y-96710765D01*
X95045671Y-96719030D01*
X95067849Y-96729520D01*
X95088893Y-96742133D01*
X95108598Y-96756747D01*
X95126777Y-96773223D01*
X95143253Y-96791402D01*
X95157867Y-96811107D01*
X95170480Y-96832151D01*
X95180970Y-96854329D01*
X95189235Y-96877429D01*
X95195196Y-96901227D01*
X95198796Y-96925496D01*
X95200000Y-96950000D01*
X95200000Y-98450000D01*
X95198796Y-98474504D01*
X95195196Y-98498773D01*
X95189235Y-98522571D01*
X95180970Y-98545671D01*
X95170480Y-98567849D01*
X95157867Y-98588893D01*
X95143253Y-98608598D01*
X95126777Y-98626777D01*
X95108598Y-98643253D01*
X95088893Y-98657867D01*
X95067849Y-98670480D01*
X95045671Y-98680970D01*
X95022571Y-98689235D01*
X94998773Y-98695196D01*
X94974504Y-98698796D01*
X94950000Y-98700000D01*
X92850000Y-98700000D01*
X92825496Y-98698796D01*
X92801227Y-98695196D01*
X92777429Y-98689235D01*
X92754329Y-98680970D01*
X92732151Y-98670480D01*
X92711107Y-98657867D01*
X92691402Y-98643253D01*
X92673223Y-98626777D01*
X92656747Y-98608598D01*
X92642133Y-98588893D01*
X92629520Y-98567849D01*
X92619030Y-98545671D01*
X92610765Y-98522571D01*
X92604804Y-98498773D01*
X92601204Y-98474504D01*
X92600000Y-98450000D01*
X92600000Y-96950000D01*
X92601204Y-96925496D01*
X92604804Y-96901227D01*
X92610765Y-96877429D01*
X92619030Y-96854329D01*
X92629520Y-96832151D01*
X92642133Y-96811107D01*
X92656747Y-96791402D01*
X92673223Y-96773223D01*
X92691402Y-96756747D01*
X92711107Y-96742133D01*
X92732151Y-96729520D01*
X92754329Y-96719030D01*
X92777429Y-96710765D01*
X92801227Y-96704804D01*
X92825496Y-96701204D01*
X92850000Y-96700000D01*
X94950000Y-96700000D01*
X94974504Y-96701204D01*
G37*
G04 #@! TD.AperFunction*
D12*
X93900000Y-83600000D03*
X93900000Y-80100000D03*
X93900000Y-76600000D03*
X93900000Y-73100000D03*
G04 #@! TA.AperFunction,ComponentPad*
D11*
G36*
X94974504Y-68601204D02*
G01*
X94998773Y-68604804D01*
X95022571Y-68610765D01*
X95045671Y-68619030D01*
X95067849Y-68629520D01*
X95088893Y-68642133D01*
X95108598Y-68656747D01*
X95126777Y-68673223D01*
X95143253Y-68691402D01*
X95157867Y-68711107D01*
X95170480Y-68732151D01*
X95180970Y-68754329D01*
X95189235Y-68777429D01*
X95195196Y-68801227D01*
X95198796Y-68825496D01*
X95200000Y-68850000D01*
X95200000Y-70350000D01*
X95198796Y-70374504D01*
X95195196Y-70398773D01*
X95189235Y-70422571D01*
X95180970Y-70445671D01*
X95170480Y-70467849D01*
X95157867Y-70488893D01*
X95143253Y-70508598D01*
X95126777Y-70526777D01*
X95108598Y-70543253D01*
X95088893Y-70557867D01*
X95067849Y-70570480D01*
X95045671Y-70580970D01*
X95022571Y-70589235D01*
X94998773Y-70595196D01*
X94974504Y-70598796D01*
X94950000Y-70600000D01*
X92850000Y-70600000D01*
X92825496Y-70598796D01*
X92801227Y-70595196D01*
X92777429Y-70589235D01*
X92754329Y-70580970D01*
X92732151Y-70570480D01*
X92711107Y-70557867D01*
X92691402Y-70543253D01*
X92673223Y-70526777D01*
X92656747Y-70508598D01*
X92642133Y-70488893D01*
X92629520Y-70467849D01*
X92619030Y-70445671D01*
X92610765Y-70422571D01*
X92604804Y-70398773D01*
X92601204Y-70374504D01*
X92600000Y-70350000D01*
X92600000Y-68850000D01*
X92601204Y-68825496D01*
X92604804Y-68801227D01*
X92610765Y-68777429D01*
X92619030Y-68754329D01*
X92629520Y-68732151D01*
X92642133Y-68711107D01*
X92656747Y-68691402D01*
X92673223Y-68673223D01*
X92691402Y-68656747D01*
X92711107Y-68642133D01*
X92732151Y-68629520D01*
X92754329Y-68619030D01*
X92777429Y-68610765D01*
X92801227Y-68604804D01*
X92825496Y-68601204D01*
X92850000Y-68600000D01*
X94950000Y-68600000D01*
X94974504Y-68601204D01*
G37*
G04 #@! TD.AperFunction*
D12*
X251900000Y-98000000D03*
X251900000Y-101500000D03*
X251900000Y-105000000D03*
X251900000Y-108500000D03*
G04 #@! TA.AperFunction,ComponentPad*
D11*
G36*
X252974504Y-111001204D02*
G01*
X252998773Y-111004804D01*
X253022571Y-111010765D01*
X253045671Y-111019030D01*
X253067849Y-111029520D01*
X253088893Y-111042133D01*
X253108598Y-111056747D01*
X253126777Y-111073223D01*
X253143253Y-111091402D01*
X253157867Y-111111107D01*
X253170480Y-111132151D01*
X253180970Y-111154329D01*
X253189235Y-111177429D01*
X253195196Y-111201227D01*
X253198796Y-111225496D01*
X253200000Y-111250000D01*
X253200000Y-112750000D01*
X253198796Y-112774504D01*
X253195196Y-112798773D01*
X253189235Y-112822571D01*
X253180970Y-112845671D01*
X253170480Y-112867849D01*
X253157867Y-112888893D01*
X253143253Y-112908598D01*
X253126777Y-112926777D01*
X253108598Y-112943253D01*
X253088893Y-112957867D01*
X253067849Y-112970480D01*
X253045671Y-112980970D01*
X253022571Y-112989235D01*
X252998773Y-112995196D01*
X252974504Y-112998796D01*
X252950000Y-113000000D01*
X250850000Y-113000000D01*
X250825496Y-112998796D01*
X250801227Y-112995196D01*
X250777429Y-112989235D01*
X250754329Y-112980970D01*
X250732151Y-112970480D01*
X250711107Y-112957867D01*
X250691402Y-112943253D01*
X250673223Y-112926777D01*
X250656747Y-112908598D01*
X250642133Y-112888893D01*
X250629520Y-112867849D01*
X250619030Y-112845671D01*
X250610765Y-112822571D01*
X250604804Y-112798773D01*
X250601204Y-112774504D01*
X250600000Y-112750000D01*
X250600000Y-111250000D01*
X250601204Y-111225496D01*
X250604804Y-111201227D01*
X250610765Y-111177429D01*
X250619030Y-111154329D01*
X250629520Y-111132151D01*
X250642133Y-111111107D01*
X250656747Y-111091402D01*
X250673223Y-111073223D01*
X250691402Y-111056747D01*
X250711107Y-111042133D01*
X250732151Y-111029520D01*
X250754329Y-111019030D01*
X250777429Y-111010765D01*
X250801227Y-111004804D01*
X250825496Y-111001204D01*
X250850000Y-111000000D01*
X252950000Y-111000000D01*
X252974504Y-111001204D01*
G37*
G04 #@! TD.AperFunction*
D12*
X251900000Y-69800000D03*
X251900000Y-73300000D03*
X251900000Y-76800000D03*
X251900000Y-80300000D03*
G04 #@! TA.AperFunction,ComponentPad*
D11*
G36*
X252974504Y-82801204D02*
G01*
X252998773Y-82804804D01*
X253022571Y-82810765D01*
X253045671Y-82819030D01*
X253067849Y-82829520D01*
X253088893Y-82842133D01*
X253108598Y-82856747D01*
X253126777Y-82873223D01*
X253143253Y-82891402D01*
X253157867Y-82911107D01*
X253170480Y-82932151D01*
X253180970Y-82954329D01*
X253189235Y-82977429D01*
X253195196Y-83001227D01*
X253198796Y-83025496D01*
X253200000Y-83050000D01*
X253200000Y-84550000D01*
X253198796Y-84574504D01*
X253195196Y-84598773D01*
X253189235Y-84622571D01*
X253180970Y-84645671D01*
X253170480Y-84667849D01*
X253157867Y-84688893D01*
X253143253Y-84708598D01*
X253126777Y-84726777D01*
X253108598Y-84743253D01*
X253088893Y-84757867D01*
X253067849Y-84770480D01*
X253045671Y-84780970D01*
X253022571Y-84789235D01*
X252998773Y-84795196D01*
X252974504Y-84798796D01*
X252950000Y-84800000D01*
X250850000Y-84800000D01*
X250825496Y-84798796D01*
X250801227Y-84795196D01*
X250777429Y-84789235D01*
X250754329Y-84780970D01*
X250732151Y-84770480D01*
X250711107Y-84757867D01*
X250691402Y-84743253D01*
X250673223Y-84726777D01*
X250656747Y-84708598D01*
X250642133Y-84688893D01*
X250629520Y-84667849D01*
X250619030Y-84645671D01*
X250610765Y-84622571D01*
X250604804Y-84598773D01*
X250601204Y-84574504D01*
X250600000Y-84550000D01*
X250600000Y-83050000D01*
X250601204Y-83025496D01*
X250604804Y-83001227D01*
X250610765Y-82977429D01*
X250619030Y-82954329D01*
X250629520Y-82932151D01*
X250642133Y-82911107D01*
X250656747Y-82891402D01*
X250673223Y-82873223D01*
X250691402Y-82856747D01*
X250711107Y-82842133D01*
X250732151Y-82829520D01*
X250754329Y-82819030D01*
X250777429Y-82810765D01*
X250801227Y-82804804D01*
X250825496Y-82801204D01*
X250850000Y-82800000D01*
X252950000Y-82800000D01*
X252974504Y-82801204D01*
G37*
G04 #@! TD.AperFunction*
D13*
X153165000Y-93795000D03*
X155705000Y-93795000D03*
X153165000Y-91255000D03*
X155705000Y-91255000D03*
X153165000Y-88715000D03*
X155705000Y-88715000D03*
X153165000Y-86175000D03*
D14*
X155705000Y-86175000D03*
D15*
X189900000Y-103300000D03*
D16*
X192440000Y-103300000D03*
X189900000Y-105840000D03*
X192440000Y-105840000D03*
X189900000Y-108380000D03*
X192440000Y-108380000D03*
X189900000Y-110920000D03*
X192440000Y-110920000D03*
X189900000Y-113460000D03*
X192440000Y-113460000D03*
D17*
X194900000Y-93400000D03*
X159600000Y-109400000D03*
X159600000Y-107600000D03*
X159600000Y-108500000D03*
X160900000Y-109400000D03*
X154650000Y-104500000D03*
X155650000Y-104500000D03*
X151650000Y-104500000D03*
X153650000Y-104500000D03*
X152650000Y-104500000D03*
X167150000Y-105550000D03*
X168050000Y-105550000D03*
X165350000Y-105550000D03*
X166250000Y-105550000D03*
X165350000Y-101050000D03*
X166250000Y-101050000D03*
X147650000Y-68850000D03*
X149950000Y-70700000D03*
X147650000Y-70450000D03*
X147650000Y-69650000D03*
X147650000Y-75650000D03*
X149950000Y-77500000D03*
X147650000Y-77250000D03*
X147650000Y-76450000D03*
X147700000Y-82500000D03*
X149950000Y-84350000D03*
X147700000Y-84100000D03*
X147700000Y-83300000D03*
X147650000Y-90250000D03*
X147650000Y-91850000D03*
X147650000Y-91050000D03*
X147650000Y-97050000D03*
X147650000Y-98650000D03*
X147650000Y-97850000D03*
X147650000Y-103850000D03*
X149950000Y-104500000D03*
X147650000Y-105450000D03*
X147650000Y-104650000D03*
X198100000Y-70400000D03*
X195850000Y-68500000D03*
X195850000Y-67800000D03*
X198100000Y-69700000D03*
X195850000Y-69200000D03*
X198150000Y-77250000D03*
X195900000Y-75350000D03*
X198150000Y-75850000D03*
X195900000Y-74650000D03*
X198150000Y-76550000D03*
X195900000Y-76050000D03*
X198150000Y-84050000D03*
X195900000Y-82150000D03*
X198150000Y-82650000D03*
X195900000Y-81450000D03*
X198150000Y-83350000D03*
X195900000Y-82850000D03*
X198100000Y-98600000D03*
X198100000Y-97900000D03*
X198150000Y-90850000D03*
X198150000Y-89450000D03*
X195900000Y-88250000D03*
X198150000Y-90150000D03*
X198150000Y-105450000D03*
X195900000Y-103550000D03*
X198150000Y-104050000D03*
X195900000Y-102850000D03*
X198150000Y-104750000D03*
X195900000Y-104250000D03*
X138100000Y-90400000D03*
X138100000Y-91400000D03*
X137400000Y-90400000D03*
X137400000Y-91400000D03*
X207700000Y-91100000D03*
X208400000Y-91100000D03*
X149950000Y-101600000D03*
X149940000Y-95500000D03*
X149900000Y-109100000D03*
X149940000Y-94800000D03*
X149950000Y-102300000D03*
X149900000Y-115950000D03*
X149900000Y-108400000D03*
X149900000Y-115250000D03*
X149900000Y-73400000D03*
X149900000Y-67300000D03*
X149900000Y-80900000D03*
X149900000Y-66600000D03*
X149900000Y-74100000D03*
X149950000Y-87750000D03*
X149900000Y-80200000D03*
X149950000Y-87050000D03*
X195900000Y-108150000D03*
X195900000Y-114250000D03*
X195900000Y-100650000D03*
X195900000Y-114950000D03*
X195900000Y-107450000D03*
X195900000Y-93800000D03*
X195900000Y-101350000D03*
X195900000Y-94500000D03*
X208300000Y-65300000D03*
X207000000Y-64700000D03*
X207000000Y-63500000D03*
X207600000Y-65300000D03*
X208400000Y-90100000D03*
X195900000Y-86750000D03*
X195900000Y-86050000D03*
X195900000Y-79950000D03*
X195900000Y-79250000D03*
X195910000Y-73150000D03*
X195910000Y-72450000D03*
X207000000Y-66400000D03*
X208250000Y-66400000D03*
X207000000Y-67650000D03*
X208250000Y-67650000D03*
X207000000Y-68900000D03*
X208250000Y-68900000D03*
X207100000Y-71900000D03*
X208350000Y-71900000D03*
X207100000Y-73150000D03*
X208350000Y-73150000D03*
X207100000Y-74400000D03*
X208350000Y-74400000D03*
X207100000Y-77400000D03*
X208350000Y-77400000D03*
X207100000Y-78650000D03*
X208350000Y-78650000D03*
X207100000Y-79900000D03*
X208350000Y-79900000D03*
X207100000Y-83000000D03*
X208350000Y-83000000D03*
X207100000Y-84250000D03*
X208350000Y-84250000D03*
X207100000Y-85500000D03*
X208350000Y-85500000D03*
X216500000Y-77800000D03*
X218800000Y-77800000D03*
X217700000Y-77800000D03*
X220900000Y-74900000D03*
X216500000Y-74900000D03*
X217700000Y-74900000D03*
X218800000Y-74900000D03*
X218800000Y-76800000D03*
X219900000Y-74900000D03*
X223300000Y-76100000D03*
X224650000Y-76100000D03*
X226000000Y-76100000D03*
X223300000Y-77300000D03*
X224650000Y-77300000D03*
X226000000Y-77300000D03*
X231600000Y-76100000D03*
X232600000Y-76100000D03*
X233600000Y-76100000D03*
X231600000Y-77300000D03*
X232600000Y-77300000D03*
X233600000Y-77300000D03*
X200900000Y-67300000D03*
X200800000Y-74100000D03*
X200900000Y-80900000D03*
X200900000Y-87700000D03*
X199900000Y-84700000D03*
X199900000Y-77900000D03*
X199900000Y-71100000D03*
X199900000Y-64300000D03*
X198900000Y-66700000D03*
X198900000Y-73500000D03*
X198900000Y-80300000D03*
X198900000Y-87100000D03*
X201600000Y-84500000D03*
X201600000Y-77700000D03*
X201600000Y-70900000D03*
X201600000Y-64100000D03*
X195900000Y-66300000D03*
X195900000Y-65600000D03*
X251700000Y-87700000D03*
X254700000Y-87700000D03*
X251700000Y-88700000D03*
X254700000Y-88700000D03*
X251700000Y-89700000D03*
X254700000Y-89700000D03*
X251700000Y-90700000D03*
X252700000Y-90700000D03*
X253700000Y-90700000D03*
X254700000Y-90700000D03*
X251700000Y-65500000D03*
X254700000Y-65500000D03*
X251700000Y-64500000D03*
X254700000Y-64500000D03*
X251700000Y-63500000D03*
X254700000Y-63500000D03*
X218800000Y-75900000D03*
X207700000Y-90100000D03*
X207100000Y-89500000D03*
X207100000Y-88300000D03*
X207700000Y-87700000D03*
X208400000Y-87700000D03*
X199900000Y-76600000D03*
X199900000Y-69800000D03*
X199900000Y-83400000D03*
X208400000Y-93500000D03*
X207000000Y-92900000D03*
X207000000Y-91700000D03*
X207700000Y-93500000D03*
X207000000Y-94600000D03*
X208250000Y-94600000D03*
X207000000Y-95850000D03*
X208250000Y-95850000D03*
X207000000Y-97100000D03*
X208250000Y-97100000D03*
X207100000Y-100100000D03*
X208350000Y-100100000D03*
X207100000Y-101350000D03*
X208350000Y-101350000D03*
X207100000Y-102600000D03*
X208350000Y-102600000D03*
X207100000Y-105600000D03*
X208350000Y-105600000D03*
X207100000Y-106850000D03*
X208350000Y-106850000D03*
X207100000Y-108100000D03*
X208350000Y-108100000D03*
X207100000Y-111200000D03*
X208350000Y-111200000D03*
X207100000Y-112450000D03*
X208350000Y-112450000D03*
X207100000Y-113700000D03*
X208350000Y-113700000D03*
X216500000Y-106000000D03*
X218800000Y-106000000D03*
X217700000Y-106000000D03*
X220900000Y-103100000D03*
X216500000Y-103100000D03*
X217700000Y-103100000D03*
X218800000Y-103100000D03*
X218800000Y-105000000D03*
X219900000Y-103100000D03*
X223300000Y-104300000D03*
X224650000Y-104300000D03*
X226000000Y-104300000D03*
X223300000Y-105500000D03*
X224650000Y-105500000D03*
X226000000Y-105500000D03*
X231600000Y-104300000D03*
X232600000Y-104300000D03*
X233600000Y-104300000D03*
X231600000Y-105500000D03*
X232600000Y-105500000D03*
X233600000Y-105500000D03*
X200900000Y-95500000D03*
X200800000Y-102300000D03*
X200900000Y-109100000D03*
X200900000Y-115900000D03*
X199900000Y-112900000D03*
X199900000Y-106100000D03*
X199900000Y-99300000D03*
X199900000Y-92500000D03*
X198900000Y-94900000D03*
X198900000Y-101700000D03*
X198900000Y-108500000D03*
X198900000Y-115300000D03*
X201600000Y-112700000D03*
X201600000Y-105900000D03*
X201600000Y-99100000D03*
X201600000Y-92300000D03*
X251700000Y-115900000D03*
X254700000Y-115900000D03*
X251700000Y-116900000D03*
X254700000Y-116900000D03*
X251700000Y-117900000D03*
X254700000Y-117900000D03*
X251700000Y-93700000D03*
X254700000Y-93700000D03*
X251700000Y-92700000D03*
X254700000Y-92700000D03*
X251700000Y-91700000D03*
X254700000Y-91700000D03*
X218800000Y-104100000D03*
X207100000Y-117700000D03*
X207100000Y-116500000D03*
X207700000Y-115900000D03*
X208400000Y-115900000D03*
X199900000Y-104800000D03*
X199900000Y-98000000D03*
X199900000Y-111600000D03*
X137500000Y-88050000D03*
X138800000Y-88650000D03*
X138800000Y-89850000D03*
X138200000Y-88050000D03*
X138800000Y-86950000D03*
X137550000Y-86950000D03*
X138800000Y-85700000D03*
X137550000Y-85700000D03*
X138800000Y-84450000D03*
X137550000Y-84450000D03*
X138700000Y-81450000D03*
X137450000Y-81450000D03*
X138700000Y-80200000D03*
X137450000Y-80200000D03*
X138700000Y-78950000D03*
X137450000Y-78950000D03*
X138700000Y-75950000D03*
X137450000Y-75950000D03*
X138700000Y-74700000D03*
X137450000Y-74700000D03*
X138700000Y-73450000D03*
X137450000Y-73450000D03*
X138700000Y-70350000D03*
X137450000Y-70350000D03*
X138700000Y-69100000D03*
X137450000Y-69100000D03*
X138700000Y-67850000D03*
X137450000Y-67850000D03*
X129300000Y-75550000D03*
X127000000Y-75550000D03*
X128100000Y-75550000D03*
X124900000Y-78450000D03*
X129300000Y-78450000D03*
X128100000Y-78450000D03*
X127000000Y-78450000D03*
X127000000Y-76550000D03*
X125900000Y-78450000D03*
X122500000Y-77250000D03*
X121150000Y-77250000D03*
X119800000Y-77250000D03*
X122500000Y-76050000D03*
X121150000Y-76050000D03*
X119800000Y-76050000D03*
X114200000Y-77250000D03*
X113200000Y-77250000D03*
X112200000Y-77250000D03*
X114200000Y-76050000D03*
X113200000Y-76050000D03*
X112200000Y-76050000D03*
X144900000Y-86050000D03*
X145000000Y-79250000D03*
X144900000Y-72450000D03*
X144900000Y-65650000D03*
X145900000Y-68650000D03*
X145900000Y-75450000D03*
X145900000Y-82250000D03*
X145900000Y-89050000D03*
X146900000Y-86650000D03*
X146900000Y-79850000D03*
X146900000Y-73050000D03*
X146900000Y-66250000D03*
X144200000Y-68850000D03*
X144200000Y-75650000D03*
X144200000Y-82450000D03*
X144200000Y-89250000D03*
X94100000Y-65650000D03*
X91100000Y-65650000D03*
X94100000Y-64650000D03*
X91100000Y-64650000D03*
X94100000Y-63650000D03*
X91100000Y-63650000D03*
X94100000Y-87850000D03*
X91100000Y-87850000D03*
X94100000Y-88850000D03*
X91100000Y-88850000D03*
X94100000Y-89850000D03*
X91100000Y-89850000D03*
X127000000Y-77450000D03*
X138700000Y-63850000D03*
X138700000Y-65050000D03*
X138100000Y-65650000D03*
X137400000Y-65650000D03*
X145900000Y-76750000D03*
X145900000Y-83550000D03*
X145900000Y-69950000D03*
X137500000Y-116250000D03*
X138800000Y-116850000D03*
X138800000Y-118050000D03*
X138200000Y-116250000D03*
X138800000Y-115150000D03*
X137550000Y-115150000D03*
X138800000Y-113900000D03*
X137550000Y-113900000D03*
X138800000Y-112650000D03*
X137550000Y-112650000D03*
X138700000Y-109650000D03*
X137450000Y-109650000D03*
X138700000Y-108400000D03*
X137450000Y-108400000D03*
X138700000Y-107150000D03*
X137450000Y-107150000D03*
X138700000Y-104150000D03*
X137450000Y-104150000D03*
X138700000Y-102900000D03*
X137450000Y-102900000D03*
X138700000Y-101650000D03*
X137450000Y-101650000D03*
X138700000Y-98550000D03*
X137450000Y-98550000D03*
X138700000Y-97300000D03*
X137450000Y-97300000D03*
X138700000Y-96050000D03*
X137450000Y-96050000D03*
X129300000Y-103750000D03*
X127000000Y-103750000D03*
X128100000Y-103750000D03*
X124900000Y-106650000D03*
X129300000Y-106650000D03*
X128100000Y-106650000D03*
X127000000Y-106650000D03*
X127000000Y-104750000D03*
X125900000Y-106650000D03*
X122500000Y-105450000D03*
X121150000Y-105450000D03*
X119800000Y-105450000D03*
X122500000Y-104250000D03*
X121150000Y-104250000D03*
X119800000Y-104250000D03*
X114200000Y-105450000D03*
X113200000Y-105450000D03*
X112200000Y-105450000D03*
X114200000Y-104250000D03*
X113200000Y-104250000D03*
X112200000Y-104250000D03*
X144900000Y-114250000D03*
X145000000Y-107450000D03*
X144900000Y-100650000D03*
X144900000Y-93850000D03*
X145900000Y-96850000D03*
X145900000Y-103650000D03*
X145900000Y-110450000D03*
X145900000Y-117250000D03*
X146900000Y-114850000D03*
X146900000Y-108050000D03*
X146900000Y-101250000D03*
X146900000Y-94450000D03*
X144200000Y-97050000D03*
X144200000Y-103850000D03*
X144200000Y-110650000D03*
X144200000Y-117450000D03*
X94100000Y-93850000D03*
X91100000Y-93850000D03*
X94100000Y-92850000D03*
X91100000Y-92850000D03*
X94100000Y-91850000D03*
X91100000Y-91850000D03*
X94100000Y-116050000D03*
X91100000Y-116050000D03*
X94100000Y-117050000D03*
X91100000Y-117050000D03*
X94100000Y-118050000D03*
X91100000Y-118050000D03*
X127000000Y-105650000D03*
X138700000Y-92050000D03*
X138700000Y-93250000D03*
X138100000Y-93850000D03*
X137400000Y-93850000D03*
X145900000Y-104950000D03*
X145900000Y-111750000D03*
X145900000Y-98150000D03*
X94100000Y-90800000D03*
X91100000Y-90800000D03*
X93100000Y-90800000D03*
X92100000Y-90800000D03*
X177100000Y-94500000D03*
X178700000Y-95800000D03*
X178110000Y-86780000D03*
X178960000Y-86200000D03*
X177300000Y-87400000D03*
X172900000Y-95600000D03*
X169800000Y-96900000D03*
X170200000Y-95900000D03*
X169100000Y-86600000D03*
X167600000Y-87900000D03*
X151100000Y-84700000D03*
X149900000Y-82600000D03*
X149900000Y-75800000D03*
X149900000Y-68900000D03*
X174000000Y-90100000D03*
X172800000Y-90100000D03*
X172000000Y-91300000D03*
X170800000Y-91300000D03*
X177900000Y-95100000D03*
X167800000Y-85600000D03*
X172600000Y-94600000D03*
X172050000Y-94100000D03*
X173550000Y-93800000D03*
X173000000Y-93250000D03*
X175050000Y-92800000D03*
X175450000Y-95800000D03*
X171950000Y-97300000D03*
X191200000Y-90650000D03*
X195900000Y-90150000D03*
X193900000Y-93400000D03*
X195900000Y-83850000D03*
X149950000Y-89400000D03*
X149950000Y-90400000D03*
X149950000Y-91400000D03*
X149950000Y-92400000D03*
X146900000Y-88700000D03*
X146900000Y-90850000D03*
X145950000Y-91500000D03*
X145950000Y-90250000D03*
X144700000Y-91500000D03*
X144700000Y-90250000D03*
X146900000Y-102200000D03*
X151100000Y-110900000D03*
X195900000Y-91000000D03*
X199000000Y-90700000D03*
X199900000Y-90000000D03*
X199900000Y-91300000D03*
X183200000Y-96300000D03*
X172000000Y-104800000D03*
X180300000Y-109050000D03*
X179500000Y-109050000D03*
X178700000Y-109050000D03*
X177900000Y-109050000D03*
X180500000Y-113150000D03*
X177000000Y-116600000D03*
X176500000Y-114300000D03*
X180300000Y-110500000D03*
X171000000Y-114450000D03*
X169000000Y-114450000D03*
X171050000Y-105200000D03*
X168950000Y-105200000D03*
X176000000Y-96300000D03*
X185700000Y-93400000D03*
X186600000Y-93400000D03*
X185750000Y-96300000D03*
X186600000Y-96300000D03*
X191800000Y-102150000D03*
X191800000Y-97350000D03*
X193650000Y-96450000D03*
X193750000Y-104600000D03*
X193750000Y-107150000D03*
X193750000Y-109650000D03*
X194850000Y-104750000D03*
X195550000Y-98700000D03*
X150450000Y-100650000D03*
X149950000Y-97200000D03*
X151200000Y-99600000D03*
X159000000Y-99600000D03*
X152650000Y-102400000D03*
X153400000Y-102400000D03*
X154100000Y-102400000D03*
X161100000Y-97500000D03*
X162700000Y-95900000D03*
X164050000Y-93800000D03*
X164850000Y-93750000D03*
X167600000Y-93000000D03*
X192150000Y-84500000D03*
X165850000Y-85450000D03*
X159200000Y-85400000D03*
X187050000Y-102250000D03*
X187050000Y-103100000D03*
X187050000Y-103950000D03*
X195900000Y-111050000D03*
X195900000Y-110350000D03*
X195900000Y-109650000D03*
X198150000Y-110850000D03*
X198150000Y-111550000D03*
X198150000Y-112250000D03*
X147700000Y-112300000D03*
X147700000Y-111500000D03*
X147700000Y-110700000D03*
X150000000Y-110950000D03*
X150000000Y-111750000D03*
X150000000Y-112550000D03*
X149950000Y-100200000D03*
X149950000Y-85150000D03*
X149950000Y-85950000D03*
X149950000Y-71350000D03*
X149950000Y-106500000D03*
X149900000Y-117650000D03*
X149900000Y-118350000D03*
X168050000Y-101850000D03*
X167150000Y-101850000D03*
X166250000Y-101850000D03*
X165350000Y-101850000D03*
X165350000Y-104750000D03*
X166250000Y-104750000D03*
X167150000Y-104750000D03*
X168050000Y-104750000D03*
X167150000Y-101050000D03*
X168050000Y-101050000D03*
X151650000Y-106500000D03*
X152650000Y-106500000D03*
X153650000Y-106500000D03*
X154650000Y-106500000D03*
X155650000Y-106500000D03*
X163100000Y-99800000D03*
X161050000Y-101800000D03*
X187800000Y-92250000D03*
X179100000Y-89450000D03*
X179800000Y-85550000D03*
X175850000Y-85900000D03*
X191900000Y-85600000D03*
X193350000Y-86500000D03*
X194300000Y-88250000D03*
X189950000Y-88400000D03*
X187400000Y-88400000D03*
X188850000Y-89850000D03*
X186400000Y-89200000D03*
X182450000Y-92750000D03*
X171950000Y-101800000D03*
X172800000Y-86700000D03*
X174000000Y-88700000D03*
X175300000Y-90100000D03*
X168000000Y-90700000D03*
X162200000Y-109400000D03*
X162200000Y-108500000D03*
X162200000Y-107600000D03*
X192900000Y-93400000D03*
X191900000Y-93400000D03*
X190900000Y-93400000D03*
X198150000Y-91550000D03*
X198150000Y-92250000D03*
X195900000Y-91850000D03*
X91600000Y-62600000D03*
X93600000Y-62600000D03*
X95600000Y-62600000D03*
X97600000Y-62600000D03*
X99600000Y-62600000D03*
X101600000Y-62600000D03*
X103600000Y-62600000D03*
X105600000Y-62600000D03*
X107600000Y-62600000D03*
X109600000Y-62600000D03*
X111600000Y-62600000D03*
X113600000Y-62600000D03*
X115600000Y-62600000D03*
X117600000Y-62600000D03*
X119600000Y-62600000D03*
X121600000Y-62600000D03*
X123600000Y-62600000D03*
X125600000Y-62600000D03*
X127600000Y-62600000D03*
X129600000Y-62600000D03*
X131600000Y-62600000D03*
X133600000Y-62600000D03*
X135600000Y-62600000D03*
X137600000Y-62600000D03*
X139600000Y-62600000D03*
X141600000Y-62600000D03*
X143600000Y-62600000D03*
X145600000Y-62600000D03*
X147600000Y-62600000D03*
X149600000Y-62600000D03*
X196100000Y-62700000D03*
X198100000Y-62700000D03*
X200100000Y-62700000D03*
X202100000Y-62700000D03*
X204100000Y-62700000D03*
X206100000Y-62700000D03*
X208100000Y-62700000D03*
X210100000Y-62700000D03*
X212100000Y-62700000D03*
X214100000Y-62700000D03*
X216100000Y-62700000D03*
X218100000Y-62700000D03*
X220100000Y-62700000D03*
X222100000Y-62700000D03*
X224100000Y-62700000D03*
X226100000Y-62700000D03*
X228100000Y-62700000D03*
X230100000Y-62700000D03*
X232100000Y-62700000D03*
X234100000Y-62700000D03*
X236100000Y-62700000D03*
X238100000Y-62700000D03*
X240100000Y-62700000D03*
X242100000Y-62700000D03*
X244100000Y-62700000D03*
X246100000Y-62700000D03*
X248100000Y-62700000D03*
X250100000Y-62700000D03*
X252100000Y-62700000D03*
X254200000Y-62700000D03*
X256400000Y-62700000D03*
X89600000Y-118900000D03*
X89600000Y-116890000D03*
X89600000Y-114880000D03*
X89600000Y-112870000D03*
X89600000Y-110860000D03*
X89600000Y-108850000D03*
X89600000Y-106840000D03*
X89600000Y-104830000D03*
X89600000Y-102820000D03*
X89600000Y-100810000D03*
X89600000Y-98800000D03*
X89600000Y-96790000D03*
X89600000Y-94780000D03*
X89600000Y-92770000D03*
X89600000Y-90760000D03*
X89600000Y-88750000D03*
X89600000Y-86740000D03*
X89600000Y-84730000D03*
X89600000Y-82720000D03*
X89600000Y-80710000D03*
X89600000Y-78700000D03*
X89600000Y-76690000D03*
X89600000Y-74680000D03*
X89600000Y-72670000D03*
X89600000Y-70660000D03*
X89600000Y-68650000D03*
X89600000Y-66640000D03*
X89600000Y-64630000D03*
X89600000Y-62620000D03*
X91609000Y-118900000D03*
X93618000Y-118900000D03*
X95627000Y-118900000D03*
X97636000Y-118900000D03*
X99645000Y-118900000D03*
X101654000Y-118900000D03*
X103663000Y-118900000D03*
X105672000Y-118900000D03*
X107681000Y-118900000D03*
X109690000Y-118900000D03*
X111699000Y-118900000D03*
X113708000Y-118900000D03*
X115717000Y-118900000D03*
X117726000Y-118900000D03*
X119735000Y-118900000D03*
X121744000Y-118900000D03*
X123753000Y-118900000D03*
X125762000Y-118900000D03*
X127771000Y-118900000D03*
X129780000Y-118900000D03*
X131789000Y-118900000D03*
X133798000Y-118900000D03*
X135807000Y-118900000D03*
X137816000Y-118900000D03*
X139825000Y-118900000D03*
X141834000Y-118900000D03*
X143843000Y-118900000D03*
X145852000Y-118900000D03*
X147861000Y-118900000D03*
X149870000Y-118900000D03*
X151879000Y-118900000D03*
X153888000Y-118900000D03*
X155897000Y-118900000D03*
X157906000Y-118900000D03*
X159915000Y-118900000D03*
X161924000Y-118900000D03*
X163933000Y-118900000D03*
X165942000Y-118900000D03*
X167951000Y-118900000D03*
X169960000Y-118900000D03*
X171969000Y-118900000D03*
X173978000Y-118900000D03*
X175987000Y-118900000D03*
X177996000Y-118900000D03*
X180005000Y-118900000D03*
X182014000Y-118900000D03*
X184023000Y-118900000D03*
X186032000Y-118900000D03*
X188041000Y-118900000D03*
X190050000Y-118900000D03*
X192059000Y-118900000D03*
X194068000Y-118900000D03*
X196077000Y-118900000D03*
X198086000Y-118900000D03*
X200095000Y-118900000D03*
X202104000Y-118900000D03*
X204113000Y-118900000D03*
X206122000Y-118900000D03*
X208131000Y-118900000D03*
X210140000Y-118900000D03*
X212149000Y-118900000D03*
X214158000Y-118900000D03*
X216167000Y-118900000D03*
X218176000Y-118900000D03*
X220185000Y-118900000D03*
X222194000Y-118900000D03*
X224203000Y-118900000D03*
X226212000Y-118900000D03*
X228221000Y-118900000D03*
X230230000Y-118900000D03*
X232239000Y-118900000D03*
X234248000Y-118900000D03*
X236257000Y-118900000D03*
X238266000Y-118900000D03*
X240275000Y-118900000D03*
X242284000Y-118900000D03*
X244293000Y-118900000D03*
X246302000Y-118900000D03*
X248311000Y-118900000D03*
X250320000Y-118900000D03*
X256347000Y-118900000D03*
X254338000Y-118900000D03*
X252329000Y-118900000D03*
X256347000Y-116890000D03*
X256347000Y-114880000D03*
X256347000Y-112870000D03*
X256347000Y-110860000D03*
X256347000Y-108850000D03*
X256347000Y-106840000D03*
X256347000Y-104830000D03*
X256347000Y-102820000D03*
X256347000Y-100810000D03*
X256347000Y-98800000D03*
X256347000Y-96790000D03*
X256347000Y-94780000D03*
X256347000Y-92770000D03*
X256347000Y-90760000D03*
X256347000Y-88750000D03*
X256347000Y-86740000D03*
X256347000Y-84730000D03*
X256347000Y-82720000D03*
X256347000Y-80710000D03*
X256347000Y-78700000D03*
X256347000Y-76690000D03*
X256347000Y-74680000D03*
X256347000Y-72670000D03*
X256347000Y-70660000D03*
X256347000Y-68650000D03*
X256347000Y-66640000D03*
X256347000Y-64630000D03*
X181400000Y-98500000D03*
X182100000Y-98500000D03*
X182100000Y-97800000D03*
X182800000Y-97800000D03*
X182800000Y-97100000D03*
X182800000Y-98500000D03*
X160050000Y-95300000D03*
X164573963Y-95398536D03*
X171400000Y-93300000D03*
X172150000Y-93300000D03*
X176050000Y-97200000D03*
X176700000Y-97850000D03*
X188050000Y-110100000D03*
X188050000Y-103950000D03*
X186300000Y-97100000D03*
X184100000Y-97100000D03*
X172900000Y-105700000D03*
X184100000Y-98500000D03*
X186300000Y-98500000D03*
X186300000Y-101700000D03*
X186300000Y-100100000D03*
X184100000Y-100100000D03*
X184100000Y-101700000D03*
X182000000Y-101700000D03*
X182000000Y-100100000D03*
X179900000Y-100100000D03*
X179900000Y-101700000D03*
X177800000Y-101700000D03*
X181100000Y-104800000D03*
X181100000Y-103500000D03*
X181100000Y-104150000D03*
X187750000Y-99900000D03*
X182950000Y-90700000D03*
X182950000Y-91350000D03*
X182950000Y-92000000D03*
X185400000Y-90700000D03*
X185400000Y-91350000D03*
X185400000Y-92000000D03*
X168800000Y-103300000D03*
X168800000Y-103950000D03*
X168800000Y-102650000D03*
X171250000Y-103300000D03*
X171250000Y-103950000D03*
X171250000Y-102650000D03*
X191150000Y-96750000D03*
X175400000Y-89350000D03*
X187150000Y-92750000D03*
X179150000Y-90650000D03*
X192450000Y-96750000D03*
X172700000Y-85050000D03*
X188450000Y-92750000D03*
X179500000Y-88650000D03*
X173200000Y-91550000D03*
X162550000Y-88700000D03*
X171650000Y-90000000D03*
X170050000Y-90000000D03*
X172600000Y-92300000D03*
X170600000Y-92300000D03*
X169700000Y-91400000D03*
X161400000Y-90000000D03*
X197315000Y-66935000D03*
X196650000Y-67450000D03*
X197315000Y-73785000D03*
X196700000Y-74300000D03*
X197365000Y-80585000D03*
X196700000Y-81100000D03*
X197315000Y-87385000D03*
X196700000Y-87900000D03*
X197265000Y-95135000D03*
X196650000Y-95650000D03*
X197315000Y-101985000D03*
X196700000Y-102500000D03*
X197315000Y-108785000D03*
X196700000Y-109300000D03*
X197300000Y-115585000D03*
X196700000Y-116100000D03*
X193700000Y-89200000D03*
X194550000Y-89200000D03*
X192850000Y-89200000D03*
X192000000Y-89200000D03*
X148435000Y-65965000D03*
X149100000Y-65450000D03*
X148485000Y-72765000D03*
X149100000Y-72250000D03*
X148485000Y-79565000D03*
X149100000Y-79050000D03*
X148535000Y-86415000D03*
X149150000Y-85900000D03*
X148485000Y-94165000D03*
X149100000Y-93650000D03*
X148485000Y-100965000D03*
X149100000Y-100450000D03*
X148485000Y-107765000D03*
X149100000Y-107250000D03*
X148535000Y-114615000D03*
X149150000Y-114100000D03*
X158300000Y-105500000D03*
X157300000Y-105500000D03*
X156300000Y-105500000D03*
X155300000Y-105500000D03*
D18*
X164475427Y-95300000D02*
X164573963Y-95398536D01*
X164200000Y-95300000D02*
X164475427Y-95300000D01*
X169400000Y-95300000D02*
X171400000Y-93300000D01*
X160050000Y-95300000D02*
X164200000Y-95300000D01*
X164200000Y-95300000D02*
X169400000Y-95300000D01*
X172150000Y-93300000D02*
X175850000Y-97000000D01*
X175850000Y-97000000D02*
X176350000Y-97500000D01*
X172150000Y-93300000D02*
X171400000Y-93300000D01*
X176350000Y-97500000D02*
X176700000Y-97850000D01*
X189900000Y-110920000D02*
X188870000Y-110920000D01*
X188870000Y-110920000D02*
X188050000Y-110100000D01*
X188049999Y-100199999D02*
X187750000Y-99900000D01*
X188050000Y-103950000D02*
X188049999Y-100199999D01*
D19*
X185400000Y-91350000D02*
X182950000Y-91350000D01*
X157200000Y-103300000D02*
X171250000Y-103300000D01*
X153200000Y-98000000D02*
X153200000Y-99300000D01*
X153200000Y-99300000D02*
X157200000Y-103300000D01*
X184200000Y-93150000D02*
X184200000Y-91350000D01*
X171250000Y-103300000D02*
X174050000Y-103300000D01*
X174050000Y-103300000D02*
X184200000Y-93150000D01*
D20*
X191150000Y-96750000D02*
X187150000Y-92750000D01*
X176700000Y-90650000D02*
X175400000Y-89350000D01*
X179150000Y-90650000D02*
X176700000Y-90650000D01*
X192450000Y-96750000D02*
X188450000Y-92750000D01*
X176300000Y-88650000D02*
X172700000Y-85050000D01*
X179500000Y-88650000D02*
X176300000Y-88650000D01*
X173200000Y-91550000D02*
X171650000Y-90000000D01*
X162550000Y-88700000D02*
X168400000Y-88700000D01*
X168400000Y-88700000D02*
X169700000Y-90000000D01*
X169700000Y-90000000D02*
X170050000Y-90000000D01*
X172600000Y-92300000D02*
X170600000Y-92300000D01*
X168300000Y-90000000D02*
X169700000Y-91400000D01*
X161400000Y-90000000D02*
X168300000Y-90000000D01*
D21*
X193700000Y-89200000D02*
X194550000Y-89200000D01*
X193700000Y-89200000D02*
X192850000Y-89200000D01*
X192850000Y-89200000D02*
X192000000Y-89200000D01*
X194550000Y-89200000D02*
X197000000Y-89200000D01*
X158300000Y-105500000D02*
X157300000Y-105500000D01*
X157300000Y-105500000D02*
X156200000Y-105500000D01*
X156200000Y-105500000D02*
X155300000Y-105500000D01*
X155300000Y-105500000D02*
X148800000Y-105500000D01*
D20*
G36*
X150196500Y-84160000D02*
G01*
X150197720Y-84172388D01*
X150201334Y-84184300D01*
X150207202Y-84195279D01*
X150215099Y-84204901D01*
X150224721Y-84212798D01*
X150235700Y-84218666D01*
X150247612Y-84222280D01*
X150260000Y-84223500D01*
X195540000Y-84223500D01*
X195552388Y-84222280D01*
X195564300Y-84218666D01*
X195575279Y-84212798D01*
X195584901Y-84204901D01*
X195592798Y-84195279D01*
X195598666Y-84184300D01*
X195602280Y-84172388D01*
X195603500Y-84160000D01*
X195603500Y-63500000D01*
X212836500Y-63500000D01*
X212836500Y-74500000D01*
X212837720Y-74512388D01*
X212841334Y-74524300D01*
X212847202Y-74535279D01*
X212855099Y-74544901D01*
X212864721Y-74552798D01*
X212875700Y-74558666D01*
X212887612Y-74562280D01*
X212900000Y-74563500D01*
X238600000Y-74563500D01*
X238612388Y-74562280D01*
X238624300Y-74558666D01*
X238635279Y-74552798D01*
X238644901Y-74544901D01*
X238652798Y-74535279D01*
X238658666Y-74524300D01*
X238662280Y-74512388D01*
X238663500Y-74500000D01*
X238663500Y-73300000D01*
X250403740Y-73300000D01*
X250426726Y-73533379D01*
X250494800Y-73757789D01*
X250605346Y-73964606D01*
X250754116Y-74145884D01*
X250935394Y-74294654D01*
X251142211Y-74405200D01*
X251366621Y-74473274D01*
X251541518Y-74490500D01*
X252258482Y-74490500D01*
X252433379Y-74473274D01*
X252657789Y-74405200D01*
X252864606Y-74294654D01*
X253045884Y-74145884D01*
X253194654Y-73964606D01*
X253305200Y-73757789D01*
X253373274Y-73533379D01*
X253396260Y-73300000D01*
X253373274Y-73066621D01*
X253305200Y-72842211D01*
X253194654Y-72635394D01*
X253045884Y-72454116D01*
X252864606Y-72305346D01*
X252657789Y-72194800D01*
X252433379Y-72126726D01*
X252258482Y-72109500D01*
X251541518Y-72109500D01*
X251366621Y-72126726D01*
X251142211Y-72194800D01*
X250935394Y-72305346D01*
X250754116Y-72454116D01*
X250605346Y-72635394D01*
X250494800Y-72842211D01*
X250426726Y-73066621D01*
X250403740Y-73300000D01*
X238663500Y-73300000D01*
X238663500Y-69800000D01*
X250403740Y-69800000D01*
X250426726Y-70033379D01*
X250494800Y-70257789D01*
X250605346Y-70464606D01*
X250754116Y-70645884D01*
X250935394Y-70794654D01*
X251142211Y-70905200D01*
X251366621Y-70973274D01*
X251541518Y-70990500D01*
X252258482Y-70990500D01*
X252433379Y-70973274D01*
X252657789Y-70905200D01*
X252864606Y-70794654D01*
X253045884Y-70645884D01*
X253194654Y-70464606D01*
X253305200Y-70257789D01*
X253373274Y-70033379D01*
X253396260Y-69800000D01*
X253373274Y-69566621D01*
X253305200Y-69342211D01*
X253194654Y-69135394D01*
X253045884Y-68954116D01*
X252864606Y-68805346D01*
X252657789Y-68694800D01*
X252433379Y-68626726D01*
X252258482Y-68609500D01*
X251541518Y-68609500D01*
X251366621Y-68626726D01*
X251142211Y-68694800D01*
X250935394Y-68805346D01*
X250754116Y-68954116D01*
X250605346Y-69135394D01*
X250494800Y-69342211D01*
X250426726Y-69566621D01*
X250403740Y-69800000D01*
X238663500Y-69800000D01*
X238663500Y-63500000D01*
X238662280Y-63487612D01*
X238658666Y-63475700D01*
X238652798Y-63464721D01*
X238644901Y-63455099D01*
X238635279Y-63447202D01*
X238624300Y-63441334D01*
X238612388Y-63437720D01*
X238600000Y-63436500D01*
X212900000Y-63436500D01*
X212887612Y-63437720D01*
X212875700Y-63441334D01*
X212864721Y-63447202D01*
X212855099Y-63455099D01*
X212847202Y-63464721D01*
X212841334Y-63475700D01*
X212837720Y-63487612D01*
X212836500Y-63500000D01*
X195603500Y-63500000D01*
X195603500Y-62215500D01*
X256636500Y-62215500D01*
X256636500Y-119384500D01*
X89163500Y-119384500D01*
X89163500Y-111700000D01*
X92403740Y-111700000D01*
X92426726Y-111933379D01*
X92494800Y-112157789D01*
X92605346Y-112364606D01*
X92754116Y-112545884D01*
X92935394Y-112694654D01*
X93142211Y-112805200D01*
X93366621Y-112873274D01*
X93541518Y-112890500D01*
X94258482Y-112890500D01*
X94433379Y-112873274D01*
X94657789Y-112805200D01*
X94864606Y-112694654D01*
X95045884Y-112545884D01*
X95194654Y-112364606D01*
X95305200Y-112157789D01*
X95373274Y-111933379D01*
X95396260Y-111700000D01*
X95373274Y-111466621D01*
X95305200Y-111242211D01*
X95194654Y-111035394D01*
X95045884Y-110854116D01*
X94864606Y-110705346D01*
X94657789Y-110594800D01*
X94433379Y-110526726D01*
X94258482Y-110509500D01*
X93541518Y-110509500D01*
X93366621Y-110526726D01*
X93142211Y-110594800D01*
X92935394Y-110705346D01*
X92754116Y-110854116D01*
X92605346Y-111035394D01*
X92494800Y-111242211D01*
X92426726Y-111466621D01*
X92403740Y-111700000D01*
X89163500Y-111700000D01*
X89163500Y-108200000D01*
X92403740Y-108200000D01*
X92426726Y-108433379D01*
X92494800Y-108657789D01*
X92605346Y-108864606D01*
X92754116Y-109045884D01*
X92935394Y-109194654D01*
X93142211Y-109305200D01*
X93366621Y-109373274D01*
X93541518Y-109390500D01*
X94258482Y-109390500D01*
X94433379Y-109373274D01*
X94657789Y-109305200D01*
X94864606Y-109194654D01*
X95045884Y-109045884D01*
X95194654Y-108864606D01*
X95305200Y-108657789D01*
X95373274Y-108433379D01*
X95396260Y-108200000D01*
X95373274Y-107966621D01*
X95305200Y-107742211D01*
X95194654Y-107535394D01*
X95045884Y-107354116D01*
X94864606Y-107205346D01*
X94657789Y-107094800D01*
X94510104Y-107050000D01*
X107136500Y-107050000D01*
X107136500Y-118050000D01*
X107137720Y-118062388D01*
X107141334Y-118074300D01*
X107147202Y-118085279D01*
X107155099Y-118094901D01*
X107164721Y-118102798D01*
X107175700Y-118108666D01*
X107187612Y-118112280D01*
X107200000Y-118113500D01*
X132900000Y-118113500D01*
X132912388Y-118112280D01*
X132924300Y-118108666D01*
X132935279Y-118102798D01*
X132944901Y-118094901D01*
X132952798Y-118085279D01*
X132958666Y-118074300D01*
X132962280Y-118062388D01*
X132963500Y-118050000D01*
X132963500Y-107050000D01*
X132962280Y-107037612D01*
X132958666Y-107025700D01*
X132952798Y-107014721D01*
X132944901Y-107005099D01*
X132935279Y-106997202D01*
X132924300Y-106991334D01*
X132912388Y-106987720D01*
X132900000Y-106986500D01*
X107200000Y-106986500D01*
X107187612Y-106987720D01*
X107175700Y-106991334D01*
X107164721Y-106997202D01*
X107155099Y-107005099D01*
X107147202Y-107014721D01*
X107141334Y-107025700D01*
X107137720Y-107037612D01*
X107136500Y-107050000D01*
X94510104Y-107050000D01*
X94433379Y-107026726D01*
X94258482Y-107009500D01*
X93541518Y-107009500D01*
X93366621Y-107026726D01*
X93142211Y-107094800D01*
X92935394Y-107205346D01*
X92754116Y-107354116D01*
X92605346Y-107535394D01*
X92494800Y-107742211D01*
X92426726Y-107966621D01*
X92403740Y-108200000D01*
X89163500Y-108200000D01*
X89163500Y-104700000D01*
X92403740Y-104700000D01*
X92426726Y-104933379D01*
X92494800Y-105157789D01*
X92605346Y-105364606D01*
X92754116Y-105545884D01*
X92935394Y-105694654D01*
X93142211Y-105805200D01*
X93366621Y-105873274D01*
X93541518Y-105890500D01*
X94258482Y-105890500D01*
X94433379Y-105873274D01*
X94657789Y-105805200D01*
X94864606Y-105694654D01*
X95045884Y-105545884D01*
X95194654Y-105364606D01*
X95305200Y-105157789D01*
X95373274Y-104933379D01*
X95396260Y-104700000D01*
X95373274Y-104466621D01*
X95305200Y-104242211D01*
X95194654Y-104035394D01*
X95045884Y-103854116D01*
X94864606Y-103705346D01*
X94657789Y-103594800D01*
X94433379Y-103526726D01*
X94258482Y-103509500D01*
X93541518Y-103509500D01*
X93366621Y-103526726D01*
X93142211Y-103594800D01*
X92935394Y-103705346D01*
X92754116Y-103854116D01*
X92605346Y-104035394D01*
X92494800Y-104242211D01*
X92426726Y-104466621D01*
X92403740Y-104700000D01*
X89163500Y-104700000D01*
X89163500Y-101200000D01*
X92403740Y-101200000D01*
X92426726Y-101433379D01*
X92494800Y-101657789D01*
X92605346Y-101864606D01*
X92754116Y-102045884D01*
X92935394Y-102194654D01*
X93142211Y-102305200D01*
X93366621Y-102373274D01*
X93541518Y-102390500D01*
X94258482Y-102390500D01*
X94433379Y-102373274D01*
X94657789Y-102305200D01*
X94864606Y-102194654D01*
X95045884Y-102045884D01*
X95194654Y-101864606D01*
X95305200Y-101657789D01*
X95373274Y-101433379D01*
X95396260Y-101200000D01*
X95373274Y-100966621D01*
X95305200Y-100742211D01*
X95194654Y-100535394D01*
X95045884Y-100354116D01*
X94864606Y-100205346D01*
X94657789Y-100094800D01*
X94433379Y-100026726D01*
X94258482Y-100009500D01*
X93541518Y-100009500D01*
X93366621Y-100026726D01*
X93142211Y-100094800D01*
X92935394Y-100205346D01*
X92754116Y-100354116D01*
X92605346Y-100535394D01*
X92494800Y-100742211D01*
X92426726Y-100966621D01*
X92403740Y-101200000D01*
X89163500Y-101200000D01*
X89163500Y-91650000D01*
X107136500Y-91650000D01*
X107136500Y-102650000D01*
X107137720Y-102662388D01*
X107141334Y-102674300D01*
X107147202Y-102685279D01*
X107155099Y-102694901D01*
X107164721Y-102702798D01*
X107175700Y-102708666D01*
X107187612Y-102712280D01*
X107200000Y-102713500D01*
X133000000Y-102713500D01*
X133012388Y-102712280D01*
X133024300Y-102708666D01*
X133035279Y-102702798D01*
X133044901Y-102694901D01*
X133052798Y-102685279D01*
X133058666Y-102674300D01*
X133062280Y-102662388D01*
X133063500Y-102650000D01*
X133063500Y-91650000D01*
X133062280Y-91637612D01*
X133058666Y-91625700D01*
X133052798Y-91614721D01*
X133044901Y-91605099D01*
X133035279Y-91597202D01*
X133024300Y-91591334D01*
X133012388Y-91587720D01*
X133000000Y-91586500D01*
X107200000Y-91586500D01*
X107187612Y-91587720D01*
X107175700Y-91591334D01*
X107164721Y-91597202D01*
X107155099Y-91605099D01*
X107147202Y-91614721D01*
X107141334Y-91625700D01*
X107137720Y-91637612D01*
X107136500Y-91650000D01*
X89163500Y-91650000D01*
X89163500Y-83600000D01*
X92403740Y-83600000D01*
X92426726Y-83833379D01*
X92494800Y-84057789D01*
X92605346Y-84264606D01*
X92754116Y-84445884D01*
X92935394Y-84594654D01*
X93142211Y-84705200D01*
X93366621Y-84773274D01*
X93541518Y-84790500D01*
X94258482Y-84790500D01*
X94433379Y-84773274D01*
X94657789Y-84705200D01*
X94864606Y-84594654D01*
X95045884Y-84445884D01*
X95194654Y-84264606D01*
X95305200Y-84057789D01*
X95373274Y-83833379D01*
X95396260Y-83600000D01*
X95373274Y-83366621D01*
X95305200Y-83142211D01*
X95194654Y-82935394D01*
X95045884Y-82754116D01*
X94864606Y-82605346D01*
X94657789Y-82494800D01*
X94433379Y-82426726D01*
X94258482Y-82409500D01*
X93541518Y-82409500D01*
X93366621Y-82426726D01*
X93142211Y-82494800D01*
X92935394Y-82605346D01*
X92754116Y-82754116D01*
X92605346Y-82935394D01*
X92494800Y-83142211D01*
X92426726Y-83366621D01*
X92403740Y-83600000D01*
X89163500Y-83600000D01*
X89163500Y-80100000D01*
X92403740Y-80100000D01*
X92426726Y-80333379D01*
X92494800Y-80557789D01*
X92605346Y-80764606D01*
X92754116Y-80945884D01*
X92935394Y-81094654D01*
X93142211Y-81205200D01*
X93366621Y-81273274D01*
X93541518Y-81290500D01*
X94258482Y-81290500D01*
X94433379Y-81273274D01*
X94657789Y-81205200D01*
X94864606Y-81094654D01*
X95045884Y-80945884D01*
X95194654Y-80764606D01*
X95305200Y-80557789D01*
X95373274Y-80333379D01*
X95396260Y-80100000D01*
X95373274Y-79866621D01*
X95305200Y-79642211D01*
X95194654Y-79435394D01*
X95045884Y-79254116D01*
X94864606Y-79105346D01*
X94657789Y-78994800D01*
X94433379Y-78926726D01*
X94258482Y-78909500D01*
X93541518Y-78909500D01*
X93366621Y-78926726D01*
X93142211Y-78994800D01*
X92935394Y-79105346D01*
X92754116Y-79254116D01*
X92605346Y-79435394D01*
X92494800Y-79642211D01*
X92426726Y-79866621D01*
X92403740Y-80100000D01*
X89163500Y-80100000D01*
X89163500Y-78850000D01*
X107136500Y-78850000D01*
X107136500Y-89850000D01*
X107137720Y-89862388D01*
X107141334Y-89874300D01*
X107147202Y-89885279D01*
X107155099Y-89894901D01*
X107164721Y-89902798D01*
X107175700Y-89908666D01*
X107187612Y-89912280D01*
X107200000Y-89913500D01*
X132900000Y-89913500D01*
X132912388Y-89912280D01*
X132924300Y-89908666D01*
X132935279Y-89902798D01*
X132944901Y-89894901D01*
X132952798Y-89885279D01*
X132958666Y-89874300D01*
X132962280Y-89862388D01*
X132963500Y-89850000D01*
X132963500Y-78850000D01*
X132962280Y-78837612D01*
X132958666Y-78825700D01*
X132952798Y-78814721D01*
X132944901Y-78805099D01*
X132935279Y-78797202D01*
X132924300Y-78791334D01*
X132912388Y-78787720D01*
X132900000Y-78786500D01*
X107200000Y-78786500D01*
X107187612Y-78787720D01*
X107175700Y-78791334D01*
X107164721Y-78797202D01*
X107155099Y-78805099D01*
X107147202Y-78814721D01*
X107141334Y-78825700D01*
X107137720Y-78837612D01*
X107136500Y-78850000D01*
X89163500Y-78850000D01*
X89163500Y-76600000D01*
X92403740Y-76600000D01*
X92426726Y-76833379D01*
X92494800Y-77057789D01*
X92605346Y-77264606D01*
X92754116Y-77445884D01*
X92935394Y-77594654D01*
X93142211Y-77705200D01*
X93366621Y-77773274D01*
X93541518Y-77790500D01*
X94258482Y-77790500D01*
X94433379Y-77773274D01*
X94657789Y-77705200D01*
X94864606Y-77594654D01*
X95045884Y-77445884D01*
X95194654Y-77264606D01*
X95305200Y-77057789D01*
X95373274Y-76833379D01*
X95396260Y-76600000D01*
X95373274Y-76366621D01*
X95305200Y-76142211D01*
X95194654Y-75935394D01*
X95045884Y-75754116D01*
X94864606Y-75605346D01*
X94657789Y-75494800D01*
X94433379Y-75426726D01*
X94258482Y-75409500D01*
X93541518Y-75409500D01*
X93366621Y-75426726D01*
X93142211Y-75494800D01*
X92935394Y-75605346D01*
X92754116Y-75754116D01*
X92605346Y-75935394D01*
X92494800Y-76142211D01*
X92426726Y-76366621D01*
X92403740Y-76600000D01*
X89163500Y-76600000D01*
X89163500Y-73100000D01*
X92403740Y-73100000D01*
X92426726Y-73333379D01*
X92494800Y-73557789D01*
X92605346Y-73764606D01*
X92754116Y-73945884D01*
X92935394Y-74094654D01*
X93142211Y-74205200D01*
X93366621Y-74273274D01*
X93541518Y-74290500D01*
X94258482Y-74290500D01*
X94433379Y-74273274D01*
X94657789Y-74205200D01*
X94864606Y-74094654D01*
X95045884Y-73945884D01*
X95194654Y-73764606D01*
X95305200Y-73557789D01*
X95373274Y-73333379D01*
X95396260Y-73100000D01*
X95373274Y-72866621D01*
X95305200Y-72642211D01*
X95194654Y-72435394D01*
X95045884Y-72254116D01*
X94864606Y-72105346D01*
X94657789Y-71994800D01*
X94433379Y-71926726D01*
X94258482Y-71909500D01*
X93541518Y-71909500D01*
X93366621Y-71926726D01*
X93142211Y-71994800D01*
X92935394Y-72105346D01*
X92754116Y-72254116D01*
X92605346Y-72435394D01*
X92494800Y-72642211D01*
X92426726Y-72866621D01*
X92403740Y-73100000D01*
X89163500Y-73100000D01*
X89163500Y-63450000D01*
X107136500Y-63450000D01*
X107136500Y-74450000D01*
X107137720Y-74462388D01*
X107141334Y-74474300D01*
X107147202Y-74485279D01*
X107155099Y-74494901D01*
X107164721Y-74502798D01*
X107175700Y-74508666D01*
X107187612Y-74512280D01*
X107200000Y-74513500D01*
X133000000Y-74513500D01*
X133012388Y-74512280D01*
X133024300Y-74508666D01*
X133035279Y-74502798D01*
X133044901Y-74494901D01*
X133052798Y-74485279D01*
X133058666Y-74474300D01*
X133062280Y-74462388D01*
X133063500Y-74450000D01*
X133063500Y-65916690D01*
X147944500Y-65916690D01*
X147944500Y-66013310D01*
X147959500Y-66088718D01*
X147959500Y-114950000D01*
X147963160Y-114987165D01*
X147974001Y-115022901D01*
X147991605Y-115055836D01*
X148015296Y-115084704D01*
X148044164Y-115108395D01*
X148077099Y-115125999D01*
X148112835Y-115136840D01*
X148150000Y-115140500D01*
X149450000Y-115140500D01*
X149487165Y-115136840D01*
X149522901Y-115125999D01*
X149555836Y-115108395D01*
X149584704Y-115084704D01*
X149608395Y-115055836D01*
X149625999Y-115022901D01*
X149636840Y-114987165D01*
X149640500Y-114950000D01*
X149640500Y-113356180D01*
X188845900Y-113356180D01*
X188845900Y-113563820D01*
X188886409Y-113767470D01*
X188965869Y-113959303D01*
X189081227Y-114131949D01*
X189228051Y-114278773D01*
X189400697Y-114394131D01*
X189592530Y-114473591D01*
X189796180Y-114514100D01*
X190003820Y-114514100D01*
X190207470Y-114473591D01*
X190399303Y-114394131D01*
X190571949Y-114278773D01*
X190718773Y-114131949D01*
X190834131Y-113959303D01*
X190913591Y-113767470D01*
X190954100Y-113563820D01*
X190954100Y-113356180D01*
X191385900Y-113356180D01*
X191385900Y-113563820D01*
X191426409Y-113767470D01*
X191505869Y-113959303D01*
X191621227Y-114131949D01*
X191768051Y-114278773D01*
X191940697Y-114394131D01*
X192132530Y-114473591D01*
X192336180Y-114514100D01*
X192543820Y-114514100D01*
X192747470Y-114473591D01*
X192939303Y-114394131D01*
X193111949Y-114278773D01*
X193258773Y-114131949D01*
X193374131Y-113959303D01*
X193453591Y-113767470D01*
X193494100Y-113563820D01*
X193494100Y-113356180D01*
X193453591Y-113152530D01*
X193374131Y-112960697D01*
X193258773Y-112788051D01*
X193111949Y-112641227D01*
X192939303Y-112525869D01*
X192747470Y-112446409D01*
X192543820Y-112405900D01*
X192336180Y-112405900D01*
X192132530Y-112446409D01*
X191940697Y-112525869D01*
X191768051Y-112641227D01*
X191621227Y-112788051D01*
X191505869Y-112960697D01*
X191426409Y-113152530D01*
X191385900Y-113356180D01*
X190954100Y-113356180D01*
X190913591Y-113152530D01*
X190834131Y-112960697D01*
X190718773Y-112788051D01*
X190571949Y-112641227D01*
X190399303Y-112525869D01*
X190207470Y-112446409D01*
X190003820Y-112405900D01*
X189796180Y-112405900D01*
X189592530Y-112446409D01*
X189400697Y-112525869D01*
X189228051Y-112641227D01*
X189081227Y-112788051D01*
X188965869Y-112960697D01*
X188886409Y-113152530D01*
X188845900Y-113356180D01*
X149640500Y-113356180D01*
X149640500Y-110051690D01*
X187559500Y-110051690D01*
X187559500Y-110148310D01*
X187578350Y-110243073D01*
X187615325Y-110332339D01*
X187669004Y-110412675D01*
X187737325Y-110480996D01*
X187817661Y-110534675D01*
X187906927Y-110571650D01*
X188001690Y-110590500D01*
X188094316Y-110590500D01*
X188635957Y-111132142D01*
X188645829Y-111144171D01*
X188657857Y-111154042D01*
X188657862Y-111154047D01*
X188693870Y-111183597D01*
X188748679Y-111212894D01*
X188808151Y-111230934D01*
X188854507Y-111235500D01*
X188854517Y-111235500D01*
X188869999Y-111237025D01*
X188885482Y-111235500D01*
X188889735Y-111235500D01*
X188965869Y-111419303D01*
X189081227Y-111591949D01*
X189228051Y-111738773D01*
X189400697Y-111854131D01*
X189592530Y-111933591D01*
X189796180Y-111974100D01*
X190003820Y-111974100D01*
X190207470Y-111933591D01*
X190399303Y-111854131D01*
X190571949Y-111738773D01*
X190718773Y-111591949D01*
X190834131Y-111419303D01*
X190913591Y-111227470D01*
X190954100Y-111023820D01*
X190954100Y-110816180D01*
X191385900Y-110816180D01*
X191385900Y-111023820D01*
X191426409Y-111227470D01*
X191505869Y-111419303D01*
X191621227Y-111591949D01*
X191768051Y-111738773D01*
X191940697Y-111854131D01*
X192132530Y-111933591D01*
X192336180Y-111974100D01*
X192543820Y-111974100D01*
X192747470Y-111933591D01*
X192939303Y-111854131D01*
X193111949Y-111738773D01*
X193258773Y-111591949D01*
X193374131Y-111419303D01*
X193453591Y-111227470D01*
X193494100Y-111023820D01*
X193494100Y-110816180D01*
X193453591Y-110612530D01*
X193374131Y-110420697D01*
X193258773Y-110248051D01*
X193111949Y-110101227D01*
X192939303Y-109985869D01*
X192747470Y-109906409D01*
X192543820Y-109865900D01*
X192336180Y-109865900D01*
X192132530Y-109906409D01*
X191940697Y-109985869D01*
X191768051Y-110101227D01*
X191621227Y-110248051D01*
X191505869Y-110420697D01*
X191426409Y-110612530D01*
X191385900Y-110816180D01*
X190954100Y-110816180D01*
X190913591Y-110612530D01*
X190834131Y-110420697D01*
X190718773Y-110248051D01*
X190571949Y-110101227D01*
X190399303Y-109985869D01*
X190207470Y-109906409D01*
X190003820Y-109865900D01*
X189796180Y-109865900D01*
X189592530Y-109906409D01*
X189400697Y-109985869D01*
X189228051Y-110101227D01*
X189081227Y-110248051D01*
X188965869Y-110420697D01*
X188922232Y-110526047D01*
X188540500Y-110144316D01*
X188540500Y-110051690D01*
X188521650Y-109956927D01*
X188484675Y-109867661D01*
X188430996Y-109787325D01*
X188362675Y-109719004D01*
X188282339Y-109665325D01*
X188193073Y-109628350D01*
X188098310Y-109609500D01*
X188001690Y-109609500D01*
X187906927Y-109628350D01*
X187817661Y-109665325D01*
X187737325Y-109719004D01*
X187669004Y-109787325D01*
X187615325Y-109867661D01*
X187578350Y-109956927D01*
X187559500Y-110051690D01*
X149640500Y-110051690D01*
X149640500Y-106190500D01*
X158333922Y-106190500D01*
X158435362Y-106180509D01*
X158565521Y-106141025D01*
X158685477Y-106076908D01*
X158790620Y-105990620D01*
X158876908Y-105885477D01*
X158941025Y-105765521D01*
X158980509Y-105635362D01*
X158993841Y-105500000D01*
X158980509Y-105364638D01*
X158941025Y-105234479D01*
X158876908Y-105114523D01*
X158790620Y-105009380D01*
X158685477Y-104923092D01*
X158565521Y-104858975D01*
X158435362Y-104819491D01*
X158333922Y-104809500D01*
X149640500Y-104809500D01*
X149640500Y-99300000D01*
X152003740Y-99300000D01*
X152009500Y-99358479D01*
X152009500Y-99358482D01*
X152026726Y-99533379D01*
X152094800Y-99757789D01*
X152205347Y-99964606D01*
X152354117Y-100145884D01*
X152399548Y-100183168D01*
X156316832Y-104100453D01*
X156354116Y-104145884D01*
X156535394Y-104294654D01*
X156742211Y-104405200D01*
X156966621Y-104473274D01*
X157141518Y-104490500D01*
X157141520Y-104490500D01*
X157199999Y-104496260D01*
X157258479Y-104490500D01*
X173991521Y-104490500D01*
X174050000Y-104496260D01*
X174108479Y-104490500D01*
X174108482Y-104490500D01*
X174283379Y-104473274D01*
X174290706Y-104471051D01*
X173654790Y-105109500D01*
X172500000Y-105109500D01*
X172462835Y-105113160D01*
X172427099Y-105124001D01*
X172394164Y-105141605D01*
X172365296Y-105165296D01*
X172341605Y-105194164D01*
X172324001Y-105227099D01*
X172313160Y-105262835D01*
X172309500Y-105300000D01*
X172309500Y-108600000D01*
X172313160Y-108637165D01*
X172324001Y-108672901D01*
X172341605Y-108705836D01*
X172365296Y-108734704D01*
X172394164Y-108758395D01*
X172427099Y-108775999D01*
X172462835Y-108786840D01*
X172500000Y-108790500D01*
X186600000Y-108790500D01*
X186637165Y-108786840D01*
X186672901Y-108775999D01*
X186705836Y-108758395D01*
X186734704Y-108734704D01*
X186758395Y-108705836D01*
X186775999Y-108672901D01*
X186786840Y-108637165D01*
X186790500Y-108600000D01*
X186790500Y-105736180D01*
X188845900Y-105736180D01*
X188845900Y-105943820D01*
X188886409Y-106147470D01*
X188965869Y-106339303D01*
X189081227Y-106511949D01*
X189228051Y-106658773D01*
X189400697Y-106774131D01*
X189592530Y-106853591D01*
X189796180Y-106894100D01*
X190003820Y-106894100D01*
X190207470Y-106853591D01*
X190399303Y-106774131D01*
X190571949Y-106658773D01*
X190718773Y-106511949D01*
X190834131Y-106339303D01*
X190913591Y-106147470D01*
X190954100Y-105943820D01*
X190954100Y-105736180D01*
X191385900Y-105736180D01*
X191385900Y-105943820D01*
X191426409Y-106147470D01*
X191505869Y-106339303D01*
X191621227Y-106511949D01*
X191768051Y-106658773D01*
X191940697Y-106774131D01*
X192132530Y-106853591D01*
X192336180Y-106894100D01*
X192543820Y-106894100D01*
X192747470Y-106853591D01*
X192939303Y-106774131D01*
X193111949Y-106658773D01*
X193258773Y-106511949D01*
X193374131Y-106339303D01*
X193453591Y-106147470D01*
X193494100Y-105943820D01*
X193494100Y-105736180D01*
X193453591Y-105532530D01*
X193374131Y-105340697D01*
X193258773Y-105168051D01*
X193111949Y-105021227D01*
X192939303Y-104905869D01*
X192747470Y-104826409D01*
X192543820Y-104785900D01*
X192336180Y-104785900D01*
X192132530Y-104826409D01*
X191940697Y-104905869D01*
X191768051Y-105021227D01*
X191621227Y-105168051D01*
X191505869Y-105340697D01*
X191426409Y-105532530D01*
X191385900Y-105736180D01*
X190954100Y-105736180D01*
X190913591Y-105532530D01*
X190834131Y-105340697D01*
X190718773Y-105168051D01*
X190571949Y-105021227D01*
X190399303Y-104905869D01*
X190207470Y-104826409D01*
X190003820Y-104785900D01*
X189796180Y-104785900D01*
X189592530Y-104826409D01*
X189400697Y-104905869D01*
X189228051Y-105021227D01*
X189081227Y-105168051D01*
X188965869Y-105340697D01*
X188886409Y-105532530D01*
X188845900Y-105736180D01*
X186790500Y-105736180D01*
X186790500Y-99851690D01*
X187259500Y-99851690D01*
X187259500Y-99948310D01*
X187278350Y-100043073D01*
X187315325Y-100132339D01*
X187369004Y-100212675D01*
X187437325Y-100280996D01*
X187517661Y-100334675D01*
X187606927Y-100371650D01*
X187701690Y-100390500D01*
X187734499Y-100390500D01*
X187734501Y-103571828D01*
X187669004Y-103637325D01*
X187615325Y-103717661D01*
X187578350Y-103806927D01*
X187559500Y-103901690D01*
X187559500Y-103998310D01*
X187578350Y-104093073D01*
X187615325Y-104182339D01*
X187669004Y-104262675D01*
X187737325Y-104330996D01*
X187817661Y-104384675D01*
X187906927Y-104421650D01*
X188001690Y-104440500D01*
X188098310Y-104440500D01*
X188193073Y-104421650D01*
X188282339Y-104384675D01*
X188362675Y-104330996D01*
X188430996Y-104262675D01*
X188484675Y-104182339D01*
X188521650Y-104093073D01*
X188540500Y-103998310D01*
X188540500Y-103901690D01*
X188521650Y-103806927D01*
X188484675Y-103717661D01*
X188430996Y-103637325D01*
X188365500Y-103571829D01*
X188365500Y-102436400D01*
X188844979Y-102436400D01*
X188844979Y-104163600D01*
X188848657Y-104200944D01*
X188859550Y-104236854D01*
X188877239Y-104269948D01*
X188901045Y-104298955D01*
X188930052Y-104322761D01*
X188963146Y-104340450D01*
X188999056Y-104351343D01*
X189036400Y-104355021D01*
X190763600Y-104355021D01*
X190800944Y-104351343D01*
X190836854Y-104340450D01*
X190869948Y-104322761D01*
X190898955Y-104298955D01*
X190922761Y-104269948D01*
X190940450Y-104236854D01*
X190951343Y-104200944D01*
X190955021Y-104163600D01*
X190955021Y-103196180D01*
X191385900Y-103196180D01*
X191385900Y-103403820D01*
X191426409Y-103607470D01*
X191505869Y-103799303D01*
X191621227Y-103971949D01*
X191768051Y-104118773D01*
X191940697Y-104234131D01*
X192132530Y-104313591D01*
X192336180Y-104354100D01*
X192543820Y-104354100D01*
X192747470Y-104313591D01*
X192939303Y-104234131D01*
X193111949Y-104118773D01*
X193258773Y-103971949D01*
X193374131Y-103799303D01*
X193453591Y-103607470D01*
X193494100Y-103403820D01*
X193494100Y-103196180D01*
X193453591Y-102992530D01*
X193374131Y-102800697D01*
X193258773Y-102628051D01*
X193111949Y-102481227D01*
X192939303Y-102365869D01*
X192747470Y-102286409D01*
X192543820Y-102245900D01*
X192336180Y-102245900D01*
X192132530Y-102286409D01*
X191940697Y-102365869D01*
X191768051Y-102481227D01*
X191621227Y-102628051D01*
X191505869Y-102800697D01*
X191426409Y-102992530D01*
X191385900Y-103196180D01*
X190955021Y-103196180D01*
X190955021Y-102436400D01*
X190951343Y-102399056D01*
X190940450Y-102363146D01*
X190922761Y-102330052D01*
X190898955Y-102301045D01*
X190869948Y-102277239D01*
X190836854Y-102259550D01*
X190800944Y-102248657D01*
X190763600Y-102244979D01*
X189036400Y-102244979D01*
X188999056Y-102248657D01*
X188963146Y-102259550D01*
X188930052Y-102277239D01*
X188901045Y-102301045D01*
X188877239Y-102330052D01*
X188859550Y-102363146D01*
X188848657Y-102399056D01*
X188844979Y-102436400D01*
X188365500Y-102436400D01*
X188365498Y-100215494D01*
X188367024Y-100199999D01*
X188360933Y-100138150D01*
X188342893Y-100078678D01*
X188313596Y-100023869D01*
X188284046Y-99987862D01*
X188284040Y-99987856D01*
X188274169Y-99975828D01*
X188262140Y-99965956D01*
X188240500Y-99944316D01*
X188240500Y-99851690D01*
X188221650Y-99756927D01*
X188184675Y-99667661D01*
X188130996Y-99587325D01*
X188062675Y-99519004D01*
X187982339Y-99465325D01*
X187893073Y-99428350D01*
X187798310Y-99409500D01*
X187701690Y-99409500D01*
X187606927Y-99428350D01*
X187517661Y-99465325D01*
X187437325Y-99519004D01*
X187369004Y-99587325D01*
X187315325Y-99667661D01*
X187278350Y-99756927D01*
X187259500Y-99851690D01*
X186790500Y-99851690D01*
X186790500Y-96750000D01*
X186786840Y-96712835D01*
X186775999Y-96677099D01*
X186758395Y-96644164D01*
X186734704Y-96615296D01*
X186705836Y-96591605D01*
X186672901Y-96574001D01*
X186637165Y-96563160D01*
X186600000Y-96559500D01*
X182474121Y-96559500D01*
X185000454Y-94033167D01*
X185045884Y-93995884D01*
X185194654Y-93814606D01*
X185305200Y-93607789D01*
X185373274Y-93383379D01*
X185390500Y-93208482D01*
X185390500Y-93208481D01*
X185396260Y-93150000D01*
X185390500Y-93091518D01*
X185390500Y-92701690D01*
X186659500Y-92701690D01*
X186659500Y-92798310D01*
X186678350Y-92893073D01*
X186715325Y-92982339D01*
X186769004Y-93062675D01*
X186837325Y-93130996D01*
X186917661Y-93184675D01*
X187006927Y-93221650D01*
X187101690Y-93240500D01*
X187198310Y-93240500D01*
X187267522Y-93226732D01*
X190673268Y-96632478D01*
X190659500Y-96701690D01*
X190659500Y-96798310D01*
X190678350Y-96893073D01*
X190715325Y-96982339D01*
X190769004Y-97062675D01*
X190837325Y-97130996D01*
X190917661Y-97184675D01*
X191006927Y-97221650D01*
X191101690Y-97240500D01*
X191198310Y-97240500D01*
X191293073Y-97221650D01*
X191382339Y-97184675D01*
X191462675Y-97130996D01*
X191530996Y-97062675D01*
X191584675Y-96982339D01*
X191621650Y-96893073D01*
X191640500Y-96798310D01*
X191640500Y-96701690D01*
X191621650Y-96606927D01*
X191584675Y-96517661D01*
X191530996Y-96437325D01*
X191462675Y-96369004D01*
X191382339Y-96315325D01*
X191293073Y-96278350D01*
X191198310Y-96259500D01*
X191101690Y-96259500D01*
X191032478Y-96273268D01*
X187626732Y-92867522D01*
X187640500Y-92798310D01*
X187640500Y-92701690D01*
X187959500Y-92701690D01*
X187959500Y-92798310D01*
X187978350Y-92893073D01*
X188015325Y-92982339D01*
X188069004Y-93062675D01*
X188137325Y-93130996D01*
X188217661Y-93184675D01*
X188306927Y-93221650D01*
X188401690Y-93240500D01*
X188498310Y-93240500D01*
X188567522Y-93226732D01*
X191973268Y-96632478D01*
X191959500Y-96701690D01*
X191959500Y-96798310D01*
X191978350Y-96893073D01*
X192015325Y-96982339D01*
X192069004Y-97062675D01*
X192137325Y-97130996D01*
X192217661Y-97184675D01*
X192306927Y-97221650D01*
X192401690Y-97240500D01*
X192498310Y-97240500D01*
X192593073Y-97221650D01*
X192682339Y-97184675D01*
X192762675Y-97130996D01*
X192830996Y-97062675D01*
X192884675Y-96982339D01*
X192921650Y-96893073D01*
X192940500Y-96798310D01*
X192940500Y-96701690D01*
X192921650Y-96606927D01*
X192884675Y-96517661D01*
X192830996Y-96437325D01*
X192762675Y-96369004D01*
X192682339Y-96315325D01*
X192593073Y-96278350D01*
X192498310Y-96259500D01*
X192401690Y-96259500D01*
X192332478Y-96273268D01*
X188926732Y-92867522D01*
X188940500Y-92798310D01*
X188940500Y-92701690D01*
X188921650Y-92606927D01*
X188884675Y-92517661D01*
X188830996Y-92437325D01*
X188762675Y-92369004D01*
X188682339Y-92315325D01*
X188593073Y-92278350D01*
X188498310Y-92259500D01*
X188401690Y-92259500D01*
X188306927Y-92278350D01*
X188217661Y-92315325D01*
X188137325Y-92369004D01*
X188069004Y-92437325D01*
X188015325Y-92517661D01*
X187978350Y-92606927D01*
X187959500Y-92701690D01*
X187640500Y-92701690D01*
X187621650Y-92606927D01*
X187584675Y-92517661D01*
X187530996Y-92437325D01*
X187462675Y-92369004D01*
X187382339Y-92315325D01*
X187293073Y-92278350D01*
X187198310Y-92259500D01*
X187101690Y-92259500D01*
X187006927Y-92278350D01*
X186917661Y-92315325D01*
X186837325Y-92369004D01*
X186769004Y-92437325D01*
X186715325Y-92517661D01*
X186678350Y-92606927D01*
X186659500Y-92701690D01*
X185390500Y-92701690D01*
X185390500Y-92540500D01*
X185458482Y-92540500D01*
X185633379Y-92523274D01*
X185857789Y-92455200D01*
X186064606Y-92344654D01*
X186245884Y-92195884D01*
X186394654Y-92014606D01*
X186505200Y-91807789D01*
X186573274Y-91583379D01*
X186596260Y-91350000D01*
X186573274Y-91116621D01*
X186505200Y-90892211D01*
X186394654Y-90685394D01*
X186245884Y-90504116D01*
X186064606Y-90355346D01*
X185857789Y-90244800D01*
X185633379Y-90176726D01*
X185458482Y-90159500D01*
X184258482Y-90159500D01*
X184200000Y-90153740D01*
X184141518Y-90159500D01*
X182891518Y-90159500D01*
X182716621Y-90176726D01*
X182492211Y-90244800D01*
X182285394Y-90355346D01*
X182104116Y-90504116D01*
X181955346Y-90685394D01*
X181844800Y-90892211D01*
X181776726Y-91116621D01*
X181753740Y-91350000D01*
X181776726Y-91583379D01*
X181844800Y-91807789D01*
X181955346Y-92014606D01*
X182104116Y-92195884D01*
X182285394Y-92344654D01*
X182492211Y-92455200D01*
X182716621Y-92523274D01*
X182891518Y-92540500D01*
X183009500Y-92540500D01*
X183009500Y-92656879D01*
X173556880Y-102109500D01*
X157693121Y-102109500D01*
X154391421Y-98807801D01*
X154391421Y-96950000D01*
X154382939Y-96863883D01*
X154357820Y-96781075D01*
X154317028Y-96704760D01*
X154262132Y-96637868D01*
X154195240Y-96582972D01*
X154118925Y-96542180D01*
X154036117Y-96517061D01*
X153950000Y-96508579D01*
X152450000Y-96508579D01*
X152363883Y-96517061D01*
X152281075Y-96542180D01*
X152204760Y-96582972D01*
X152137868Y-96637868D01*
X152082972Y-96704760D01*
X152042180Y-96781075D01*
X152017061Y-96863883D01*
X152008579Y-96950000D01*
X152008579Y-99050000D01*
X152009500Y-99059351D01*
X152009500Y-99241521D01*
X152003740Y-99300000D01*
X149640500Y-99300000D01*
X149640500Y-95251690D01*
X159559500Y-95251690D01*
X159559500Y-95348310D01*
X159578350Y-95443073D01*
X159615325Y-95532339D01*
X159669004Y-95612675D01*
X159737325Y-95680996D01*
X159817661Y-95734675D01*
X159906927Y-95771650D01*
X160001690Y-95790500D01*
X160098310Y-95790500D01*
X160193073Y-95771650D01*
X160282339Y-95734675D01*
X160362675Y-95680996D01*
X160428171Y-95615500D01*
X164132919Y-95615500D01*
X164139288Y-95630875D01*
X164192967Y-95711211D01*
X164261288Y-95779532D01*
X164341624Y-95833211D01*
X164430890Y-95870186D01*
X164525653Y-95889036D01*
X164622273Y-95889036D01*
X164717036Y-95870186D01*
X164806302Y-95833211D01*
X164886638Y-95779532D01*
X164954959Y-95711211D01*
X165008638Y-95630875D01*
X165015007Y-95615500D01*
X169384518Y-95615500D01*
X169400000Y-95617025D01*
X169415482Y-95615500D01*
X169415493Y-95615500D01*
X169461849Y-95610934D01*
X169521321Y-95592894D01*
X169576130Y-95563597D01*
X169624171Y-95524171D01*
X169634051Y-95512132D01*
X171355685Y-93790500D01*
X171448310Y-93790500D01*
X171543073Y-93771650D01*
X171632339Y-93734675D01*
X171712675Y-93680996D01*
X171775000Y-93618671D01*
X171837325Y-93680996D01*
X171917661Y-93734675D01*
X172006927Y-93771650D01*
X172101690Y-93790500D01*
X172194317Y-93790500D01*
X175559500Y-97155685D01*
X175559500Y-97248310D01*
X175578350Y-97343073D01*
X175615325Y-97432339D01*
X175669004Y-97512675D01*
X175737325Y-97580996D01*
X175817661Y-97634675D01*
X175906927Y-97671650D01*
X176001690Y-97690500D01*
X176094316Y-97690500D01*
X176137863Y-97734047D01*
X176137868Y-97734051D01*
X176209500Y-97805683D01*
X176209500Y-97898310D01*
X176228350Y-97993073D01*
X176265325Y-98082339D01*
X176319004Y-98162675D01*
X176387325Y-98230996D01*
X176467661Y-98284675D01*
X176556927Y-98321650D01*
X176651690Y-98340500D01*
X176748310Y-98340500D01*
X176843073Y-98321650D01*
X176932339Y-98284675D01*
X177012675Y-98230996D01*
X177080996Y-98162675D01*
X177134675Y-98082339D01*
X177171650Y-97993073D01*
X177190500Y-97898310D01*
X177190500Y-97801690D01*
X177171650Y-97706927D01*
X177134675Y-97617661D01*
X177080996Y-97537325D01*
X177012675Y-97469004D01*
X176932339Y-97415325D01*
X176843073Y-97378350D01*
X176748310Y-97359500D01*
X176655683Y-97359500D01*
X176584051Y-97287868D01*
X176584047Y-97287863D01*
X176540500Y-97244316D01*
X176540500Y-97151690D01*
X176521650Y-97056927D01*
X176484675Y-96967661D01*
X176430996Y-96887325D01*
X176362675Y-96819004D01*
X176282339Y-96765325D01*
X176193073Y-96728350D01*
X176098310Y-96709500D01*
X176005685Y-96709500D01*
X172640500Y-93344317D01*
X172640500Y-93251690D01*
X172621650Y-93156927D01*
X172584675Y-93067661D01*
X172530996Y-92987325D01*
X172462675Y-92919004D01*
X172382339Y-92865325D01*
X172293073Y-92828350D01*
X172198310Y-92809500D01*
X172101690Y-92809500D01*
X172006927Y-92828350D01*
X171917661Y-92865325D01*
X171837325Y-92919004D01*
X171775000Y-92981329D01*
X171712675Y-92919004D01*
X171632339Y-92865325D01*
X171543073Y-92828350D01*
X171448310Y-92809500D01*
X171351690Y-92809500D01*
X171256927Y-92828350D01*
X171167661Y-92865325D01*
X171087325Y-92919004D01*
X171019004Y-92987325D01*
X170965325Y-93067661D01*
X170928350Y-93156927D01*
X170909500Y-93251690D01*
X170909500Y-93344315D01*
X169269317Y-94984500D01*
X164837190Y-94984500D01*
X164806302Y-94963861D01*
X164717036Y-94926886D01*
X164622273Y-94908036D01*
X164525653Y-94908036D01*
X164430890Y-94926886D01*
X164341624Y-94963861D01*
X164310736Y-94984500D01*
X160428171Y-94984500D01*
X160362675Y-94919004D01*
X160282339Y-94865325D01*
X160193073Y-94828350D01*
X160098310Y-94809500D01*
X160001690Y-94809500D01*
X159906927Y-94828350D01*
X159817661Y-94865325D01*
X159737325Y-94919004D01*
X159669004Y-94987325D01*
X159615325Y-95067661D01*
X159578350Y-95156927D01*
X159559500Y-95251690D01*
X149640500Y-95251690D01*
X149640500Y-93692520D01*
X152124500Y-93692520D01*
X152124500Y-93897480D01*
X152164485Y-94098503D01*
X152242920Y-94287862D01*
X152356791Y-94458280D01*
X152501720Y-94603209D01*
X152672138Y-94717080D01*
X152861497Y-94795515D01*
X153062520Y-94835500D01*
X153267480Y-94835500D01*
X153468503Y-94795515D01*
X153657862Y-94717080D01*
X153828280Y-94603209D01*
X153973209Y-94458280D01*
X154087080Y-94287862D01*
X154165515Y-94098503D01*
X154205500Y-93897480D01*
X154205500Y-93692520D01*
X154664500Y-93692520D01*
X154664500Y-93897480D01*
X154704485Y-94098503D01*
X154782920Y-94287862D01*
X154896791Y-94458280D01*
X155041720Y-94603209D01*
X155212138Y-94717080D01*
X155401497Y-94795515D01*
X155602520Y-94835500D01*
X155807480Y-94835500D01*
X156008503Y-94795515D01*
X156197862Y-94717080D01*
X156368280Y-94603209D01*
X156513209Y-94458280D01*
X156627080Y-94287862D01*
X156705515Y-94098503D01*
X156745500Y-93897480D01*
X156745500Y-93692520D01*
X156705515Y-93491497D01*
X156627080Y-93302138D01*
X156513209Y-93131720D01*
X156368280Y-92986791D01*
X156197862Y-92872920D01*
X156008503Y-92794485D01*
X155807480Y-92754500D01*
X155602520Y-92754500D01*
X155401497Y-92794485D01*
X155212138Y-92872920D01*
X155041720Y-92986791D01*
X154896791Y-93131720D01*
X154782920Y-93302138D01*
X154704485Y-93491497D01*
X154664500Y-93692520D01*
X154205500Y-93692520D01*
X154165515Y-93491497D01*
X154087080Y-93302138D01*
X153973209Y-93131720D01*
X153828280Y-92986791D01*
X153657862Y-92872920D01*
X153468503Y-92794485D01*
X153267480Y-92754500D01*
X153062520Y-92754500D01*
X152861497Y-92794485D01*
X152672138Y-92872920D01*
X152501720Y-92986791D01*
X152356791Y-93131720D01*
X152242920Y-93302138D01*
X152164485Y-93491497D01*
X152124500Y-93692520D01*
X149640500Y-93692520D01*
X149640500Y-91152520D01*
X152124500Y-91152520D01*
X152124500Y-91357480D01*
X152164485Y-91558503D01*
X152242920Y-91747862D01*
X152356791Y-91918280D01*
X152501720Y-92063209D01*
X152672138Y-92177080D01*
X152861497Y-92255515D01*
X153062520Y-92295500D01*
X153267480Y-92295500D01*
X153468503Y-92255515D01*
X153657862Y-92177080D01*
X153828280Y-92063209D01*
X153973209Y-91918280D01*
X154087080Y-91747862D01*
X154165515Y-91558503D01*
X154205500Y-91357480D01*
X154205500Y-91152520D01*
X154664500Y-91152520D01*
X154664500Y-91357480D01*
X154704485Y-91558503D01*
X154782920Y-91747862D01*
X154896791Y-91918280D01*
X155041720Y-92063209D01*
X155212138Y-92177080D01*
X155401497Y-92255515D01*
X155602520Y-92295500D01*
X155807480Y-92295500D01*
X156008503Y-92255515D01*
X156017737Y-92251690D01*
X170109500Y-92251690D01*
X170109500Y-92348310D01*
X170128350Y-92443073D01*
X170165325Y-92532339D01*
X170219004Y-92612675D01*
X170287325Y-92680996D01*
X170367661Y-92734675D01*
X170456927Y-92771650D01*
X170551690Y-92790500D01*
X170648310Y-92790500D01*
X170743073Y-92771650D01*
X170832339Y-92734675D01*
X170912675Y-92680996D01*
X170980996Y-92612675D01*
X171020202Y-92554000D01*
X172179798Y-92554000D01*
X172219004Y-92612675D01*
X172287325Y-92680996D01*
X172367661Y-92734675D01*
X172456927Y-92771650D01*
X172551690Y-92790500D01*
X172648310Y-92790500D01*
X172743073Y-92771650D01*
X172832339Y-92734675D01*
X172912675Y-92680996D01*
X172980996Y-92612675D01*
X173034675Y-92532339D01*
X173071650Y-92443073D01*
X173090500Y-92348310D01*
X173090500Y-92251690D01*
X173071650Y-92156927D01*
X173034675Y-92067661D01*
X172983651Y-91991298D01*
X173056927Y-92021650D01*
X173151690Y-92040500D01*
X173248310Y-92040500D01*
X173343073Y-92021650D01*
X173432339Y-91984675D01*
X173512675Y-91930996D01*
X173580996Y-91862675D01*
X173634675Y-91782339D01*
X173671650Y-91693073D01*
X173690500Y-91598310D01*
X173690500Y-91501690D01*
X173671650Y-91406927D01*
X173634675Y-91317661D01*
X173580996Y-91237325D01*
X173512675Y-91169004D01*
X173432339Y-91115325D01*
X173343073Y-91078350D01*
X173248310Y-91059500D01*
X173151690Y-91059500D01*
X173082478Y-91073267D01*
X172126732Y-90117522D01*
X172140500Y-90048310D01*
X172140500Y-89951690D01*
X172121650Y-89856927D01*
X172084675Y-89767661D01*
X172030996Y-89687325D01*
X171962675Y-89619004D01*
X171882339Y-89565325D01*
X171793073Y-89528350D01*
X171698310Y-89509500D01*
X171601690Y-89509500D01*
X171506927Y-89528350D01*
X171417661Y-89565325D01*
X171337325Y-89619004D01*
X171269004Y-89687325D01*
X171215325Y-89767661D01*
X171178350Y-89856927D01*
X171159500Y-89951690D01*
X171159500Y-90048310D01*
X171178350Y-90143073D01*
X171215325Y-90232339D01*
X171269004Y-90312675D01*
X171337325Y-90380996D01*
X171417661Y-90434675D01*
X171506927Y-90471650D01*
X171601690Y-90490500D01*
X171698310Y-90490500D01*
X171767522Y-90476732D01*
X172723267Y-91432478D01*
X172709500Y-91501690D01*
X172709500Y-91598310D01*
X172728350Y-91693073D01*
X172765325Y-91782339D01*
X172816349Y-91858702D01*
X172743073Y-91828350D01*
X172648310Y-91809500D01*
X172551690Y-91809500D01*
X172456927Y-91828350D01*
X172367661Y-91865325D01*
X172287325Y-91919004D01*
X172219004Y-91987325D01*
X172179798Y-92046000D01*
X171020202Y-92046000D01*
X170980996Y-91987325D01*
X170912675Y-91919004D01*
X170832339Y-91865325D01*
X170743073Y-91828350D01*
X170648310Y-91809500D01*
X170551690Y-91809500D01*
X170456927Y-91828350D01*
X170367661Y-91865325D01*
X170287325Y-91919004D01*
X170219004Y-91987325D01*
X170165325Y-92067661D01*
X170128350Y-92156927D01*
X170109500Y-92251690D01*
X156017737Y-92251690D01*
X156197862Y-92177080D01*
X156368280Y-92063209D01*
X156513209Y-91918280D01*
X156627080Y-91747862D01*
X156705515Y-91558503D01*
X156745500Y-91357480D01*
X156745500Y-91152520D01*
X156705515Y-90951497D01*
X156627080Y-90762138D01*
X156513209Y-90591720D01*
X156368280Y-90446791D01*
X156197862Y-90332920D01*
X156008503Y-90254485D01*
X155807480Y-90214500D01*
X155602520Y-90214500D01*
X155401497Y-90254485D01*
X155212138Y-90332920D01*
X155041720Y-90446791D01*
X154896791Y-90591720D01*
X154782920Y-90762138D01*
X154704485Y-90951497D01*
X154664500Y-91152520D01*
X154205500Y-91152520D01*
X154165515Y-90951497D01*
X154087080Y-90762138D01*
X153973209Y-90591720D01*
X153828280Y-90446791D01*
X153657862Y-90332920D01*
X153468503Y-90254485D01*
X153267480Y-90214500D01*
X153062520Y-90214500D01*
X152861497Y-90254485D01*
X152672138Y-90332920D01*
X152501720Y-90446791D01*
X152356791Y-90591720D01*
X152242920Y-90762138D01*
X152164485Y-90951497D01*
X152124500Y-91152520D01*
X149640500Y-91152520D01*
X149640500Y-89951690D01*
X160909500Y-89951690D01*
X160909500Y-90048310D01*
X160928350Y-90143073D01*
X160965325Y-90232339D01*
X161019004Y-90312675D01*
X161087325Y-90380996D01*
X161167661Y-90434675D01*
X161256927Y-90471650D01*
X161351690Y-90490500D01*
X161448310Y-90490500D01*
X161543073Y-90471650D01*
X161632339Y-90434675D01*
X161712675Y-90380996D01*
X161780996Y-90312675D01*
X161820202Y-90254000D01*
X168194790Y-90254000D01*
X169223267Y-91282478D01*
X169209500Y-91351690D01*
X169209500Y-91448310D01*
X169228350Y-91543073D01*
X169265325Y-91632339D01*
X169319004Y-91712675D01*
X169387325Y-91780996D01*
X169467661Y-91834675D01*
X169556927Y-91871650D01*
X169651690Y-91890500D01*
X169748310Y-91890500D01*
X169843073Y-91871650D01*
X169932339Y-91834675D01*
X170012675Y-91780996D01*
X170080996Y-91712675D01*
X170134675Y-91632339D01*
X170171650Y-91543073D01*
X170190500Y-91448310D01*
X170190500Y-91351690D01*
X170171650Y-91256927D01*
X170134675Y-91167661D01*
X170080996Y-91087325D01*
X170012675Y-91019004D01*
X169932339Y-90965325D01*
X169843073Y-90928350D01*
X169748310Y-90909500D01*
X169651690Y-90909500D01*
X169582478Y-90923267D01*
X168488418Y-89829208D01*
X168480473Y-89819527D01*
X168470791Y-89811581D01*
X168470788Y-89811578D01*
X168458323Y-89801349D01*
X168441797Y-89787786D01*
X168397672Y-89764200D01*
X168349793Y-89749676D01*
X168312469Y-89746000D01*
X168312458Y-89746000D01*
X168300000Y-89744773D01*
X168287542Y-89746000D01*
X161820202Y-89746000D01*
X161780996Y-89687325D01*
X161712675Y-89619004D01*
X161632339Y-89565325D01*
X161543073Y-89528350D01*
X161448310Y-89509500D01*
X161351690Y-89509500D01*
X161256927Y-89528350D01*
X161167661Y-89565325D01*
X161087325Y-89619004D01*
X161019004Y-89687325D01*
X160965325Y-89767661D01*
X160928350Y-89856927D01*
X160909500Y-89951690D01*
X149640500Y-89951690D01*
X149640500Y-88612520D01*
X152124500Y-88612520D01*
X152124500Y-88817480D01*
X152164485Y-89018503D01*
X152242920Y-89207862D01*
X152356791Y-89378280D01*
X152501720Y-89523209D01*
X152672138Y-89637080D01*
X152861497Y-89715515D01*
X153062520Y-89755500D01*
X153267480Y-89755500D01*
X153468503Y-89715515D01*
X153657862Y-89637080D01*
X153828280Y-89523209D01*
X153973209Y-89378280D01*
X154087080Y-89207862D01*
X154165515Y-89018503D01*
X154205500Y-88817480D01*
X154205500Y-88612520D01*
X154664500Y-88612520D01*
X154664500Y-88817480D01*
X154704485Y-89018503D01*
X154782920Y-89207862D01*
X154896791Y-89378280D01*
X155041720Y-89523209D01*
X155212138Y-89637080D01*
X155401497Y-89715515D01*
X155602520Y-89755500D01*
X155807480Y-89755500D01*
X156008503Y-89715515D01*
X156197862Y-89637080D01*
X156368280Y-89523209D01*
X156513209Y-89378280D01*
X156627080Y-89207862D01*
X156705515Y-89018503D01*
X156745500Y-88817480D01*
X156745500Y-88651690D01*
X162059500Y-88651690D01*
X162059500Y-88748310D01*
X162078350Y-88843073D01*
X162115325Y-88932339D01*
X162169004Y-89012675D01*
X162237325Y-89080996D01*
X162317661Y-89134675D01*
X162406927Y-89171650D01*
X162501690Y-89190500D01*
X162598310Y-89190500D01*
X162693073Y-89171650D01*
X162782339Y-89134675D01*
X162862675Y-89080996D01*
X162930996Y-89012675D01*
X162970202Y-88954000D01*
X168294790Y-88954000D01*
X169511581Y-90170791D01*
X169519527Y-90180473D01*
X169529209Y-90188419D01*
X169529212Y-90188422D01*
X169558203Y-90212215D01*
X169586958Y-90227585D01*
X169602328Y-90235800D01*
X169621530Y-90241625D01*
X169669004Y-90312675D01*
X169737325Y-90380996D01*
X169817661Y-90434675D01*
X169906927Y-90471650D01*
X170001690Y-90490500D01*
X170098310Y-90490500D01*
X170193073Y-90471650D01*
X170282339Y-90434675D01*
X170362675Y-90380996D01*
X170430996Y-90312675D01*
X170484675Y-90232339D01*
X170521650Y-90143073D01*
X170540500Y-90048310D01*
X170540500Y-89951690D01*
X170521650Y-89856927D01*
X170484675Y-89767661D01*
X170430996Y-89687325D01*
X170362675Y-89619004D01*
X170282339Y-89565325D01*
X170193073Y-89528350D01*
X170098310Y-89509500D01*
X170001690Y-89509500D01*
X169906927Y-89528350D01*
X169817661Y-89565325D01*
X169737325Y-89619004D01*
X169707770Y-89648560D01*
X169360900Y-89301690D01*
X174909500Y-89301690D01*
X174909500Y-89398310D01*
X174928350Y-89493073D01*
X174965325Y-89582339D01*
X175019004Y-89662675D01*
X175087325Y-89730996D01*
X175167661Y-89784675D01*
X175256927Y-89821650D01*
X175351690Y-89840500D01*
X175448310Y-89840500D01*
X175517522Y-89826732D01*
X176511581Y-90820791D01*
X176519527Y-90830473D01*
X176529209Y-90838419D01*
X176529212Y-90838422D01*
X176558203Y-90862215D01*
X176586958Y-90877585D01*
X176602328Y-90885800D01*
X176650207Y-90900324D01*
X176687531Y-90904000D01*
X176687542Y-90904000D01*
X176700000Y-90905227D01*
X176712458Y-90904000D01*
X178729798Y-90904000D01*
X178769004Y-90962675D01*
X178837325Y-91030996D01*
X178917661Y-91084675D01*
X179006927Y-91121650D01*
X179101690Y-91140500D01*
X179198310Y-91140500D01*
X179293073Y-91121650D01*
X179382339Y-91084675D01*
X179462675Y-91030996D01*
X179530996Y-90962675D01*
X179584675Y-90882339D01*
X179621650Y-90793073D01*
X179640500Y-90698310D01*
X179640500Y-90601690D01*
X179621650Y-90506927D01*
X179584675Y-90417661D01*
X179530996Y-90337325D01*
X179462675Y-90269004D01*
X179382339Y-90215325D01*
X179293073Y-90178350D01*
X179198310Y-90159500D01*
X179101690Y-90159500D01*
X179006927Y-90178350D01*
X178917661Y-90215325D01*
X178837325Y-90269004D01*
X178769004Y-90337325D01*
X178729798Y-90396000D01*
X176805210Y-90396000D01*
X175876732Y-89467522D01*
X175890500Y-89398310D01*
X175890500Y-89301690D01*
X175871650Y-89206927D01*
X175868781Y-89200000D01*
X191306159Y-89200000D01*
X191319491Y-89335362D01*
X191358975Y-89465521D01*
X191423092Y-89585477D01*
X191509380Y-89690620D01*
X191614523Y-89776908D01*
X191734479Y-89841025D01*
X191864638Y-89880509D01*
X191966078Y-89890500D01*
X196159500Y-89890500D01*
X196159500Y-117000000D01*
X196163219Y-117037458D01*
X196174115Y-117073177D01*
X196191771Y-117106084D01*
X196215508Y-117134915D01*
X196244412Y-117158561D01*
X196277375Y-117176113D01*
X196313128Y-117186898D01*
X196350299Y-117190500D01*
X197700299Y-117188383D01*
X197737165Y-117184723D01*
X197772901Y-117173882D01*
X197805836Y-117156278D01*
X197834704Y-117132587D01*
X197858395Y-117103719D01*
X197875999Y-117070784D01*
X197886840Y-117035048D01*
X197890500Y-116997883D01*
X197890500Y-107100000D01*
X212736500Y-107100000D01*
X212736500Y-118100000D01*
X212737720Y-118112388D01*
X212741334Y-118124300D01*
X212747202Y-118135279D01*
X212755099Y-118144901D01*
X212764721Y-118152798D01*
X212775700Y-118158666D01*
X212787612Y-118162280D01*
X212800000Y-118163500D01*
X238600000Y-118163500D01*
X238612388Y-118162280D01*
X238624300Y-118158666D01*
X238635279Y-118152798D01*
X238644901Y-118144901D01*
X238652798Y-118135279D01*
X238658666Y-118124300D01*
X238662280Y-118112388D01*
X238663500Y-118100000D01*
X238663500Y-108500000D01*
X250403740Y-108500000D01*
X250426726Y-108733379D01*
X250494800Y-108957789D01*
X250605346Y-109164606D01*
X250754116Y-109345884D01*
X250935394Y-109494654D01*
X251142211Y-109605200D01*
X251366621Y-109673274D01*
X251541518Y-109690500D01*
X252258482Y-109690500D01*
X252433379Y-109673274D01*
X252657789Y-109605200D01*
X252864606Y-109494654D01*
X253045884Y-109345884D01*
X253194654Y-109164606D01*
X253305200Y-108957789D01*
X253373274Y-108733379D01*
X253396260Y-108500000D01*
X253373274Y-108266621D01*
X253305200Y-108042211D01*
X253194654Y-107835394D01*
X253045884Y-107654116D01*
X252864606Y-107505346D01*
X252657789Y-107394800D01*
X252433379Y-107326726D01*
X252258482Y-107309500D01*
X251541518Y-107309500D01*
X251366621Y-107326726D01*
X251142211Y-107394800D01*
X250935394Y-107505346D01*
X250754116Y-107654116D01*
X250605346Y-107835394D01*
X250494800Y-108042211D01*
X250426726Y-108266621D01*
X250403740Y-108500000D01*
X238663500Y-108500000D01*
X238663500Y-107100000D01*
X238662280Y-107087612D01*
X238658666Y-107075700D01*
X238652798Y-107064721D01*
X238644901Y-107055099D01*
X238635279Y-107047202D01*
X238624300Y-107041334D01*
X238612388Y-107037720D01*
X238600000Y-107036500D01*
X212800000Y-107036500D01*
X212787612Y-107037720D01*
X212775700Y-107041334D01*
X212764721Y-107047202D01*
X212755099Y-107055099D01*
X212747202Y-107064721D01*
X212741334Y-107075700D01*
X212737720Y-107087612D01*
X212736500Y-107100000D01*
X197890500Y-107100000D01*
X197890500Y-105000000D01*
X250403740Y-105000000D01*
X250426726Y-105233379D01*
X250494800Y-105457789D01*
X250605346Y-105664606D01*
X250754116Y-105845884D01*
X250935394Y-105994654D01*
X251142211Y-106105200D01*
X251366621Y-106173274D01*
X251541518Y-106190500D01*
X252258482Y-106190500D01*
X252433379Y-106173274D01*
X252657789Y-106105200D01*
X252864606Y-105994654D01*
X253045884Y-105845884D01*
X253194654Y-105664606D01*
X253305200Y-105457789D01*
X253373274Y-105233379D01*
X253396260Y-105000000D01*
X253373274Y-104766621D01*
X253305200Y-104542211D01*
X253194654Y-104335394D01*
X253045884Y-104154116D01*
X252864606Y-104005346D01*
X252657789Y-103894800D01*
X252433379Y-103826726D01*
X252258482Y-103809500D01*
X251541518Y-103809500D01*
X251366621Y-103826726D01*
X251142211Y-103894800D01*
X250935394Y-104005346D01*
X250754116Y-104154116D01*
X250605346Y-104335394D01*
X250494800Y-104542211D01*
X250426726Y-104766621D01*
X250403740Y-105000000D01*
X197890500Y-105000000D01*
X197890500Y-91700000D01*
X212836500Y-91700000D01*
X212836500Y-102700000D01*
X212837720Y-102712388D01*
X212841334Y-102724300D01*
X212847202Y-102735279D01*
X212855099Y-102744901D01*
X212864721Y-102752798D01*
X212875700Y-102758666D01*
X212887612Y-102762280D01*
X212900000Y-102763500D01*
X238600000Y-102763500D01*
X238612388Y-102762280D01*
X238624300Y-102758666D01*
X238635279Y-102752798D01*
X238644901Y-102744901D01*
X238652798Y-102735279D01*
X238658666Y-102724300D01*
X238662280Y-102712388D01*
X238663500Y-102700000D01*
X238663500Y-101500000D01*
X250403740Y-101500000D01*
X250426726Y-101733379D01*
X250494800Y-101957789D01*
X250605346Y-102164606D01*
X250754116Y-102345884D01*
X250935394Y-102494654D01*
X251142211Y-102605200D01*
X251366621Y-102673274D01*
X251541518Y-102690500D01*
X252258482Y-102690500D01*
X252433379Y-102673274D01*
X252657789Y-102605200D01*
X252864606Y-102494654D01*
X253045884Y-102345884D01*
X253194654Y-102164606D01*
X253305200Y-101957789D01*
X253373274Y-101733379D01*
X253396260Y-101500000D01*
X253373274Y-101266621D01*
X253305200Y-101042211D01*
X253194654Y-100835394D01*
X253045884Y-100654116D01*
X252864606Y-100505346D01*
X252657789Y-100394800D01*
X252433379Y-100326726D01*
X252258482Y-100309500D01*
X251541518Y-100309500D01*
X251366621Y-100326726D01*
X251142211Y-100394800D01*
X250935394Y-100505346D01*
X250754116Y-100654116D01*
X250605346Y-100835394D01*
X250494800Y-101042211D01*
X250426726Y-101266621D01*
X250403740Y-101500000D01*
X238663500Y-101500000D01*
X238663500Y-98000000D01*
X250403740Y-98000000D01*
X250426726Y-98233379D01*
X250494800Y-98457789D01*
X250605346Y-98664606D01*
X250754116Y-98845884D01*
X250935394Y-98994654D01*
X251142211Y-99105200D01*
X251366621Y-99173274D01*
X251541518Y-99190500D01*
X252258482Y-99190500D01*
X252433379Y-99173274D01*
X252657789Y-99105200D01*
X252864606Y-98994654D01*
X253045884Y-98845884D01*
X253194654Y-98664606D01*
X253305200Y-98457789D01*
X253373274Y-98233379D01*
X253396260Y-98000000D01*
X253373274Y-97766621D01*
X253305200Y-97542211D01*
X253194654Y-97335394D01*
X253045884Y-97154116D01*
X252864606Y-97005346D01*
X252657789Y-96894800D01*
X252433379Y-96826726D01*
X252258482Y-96809500D01*
X251541518Y-96809500D01*
X251366621Y-96826726D01*
X251142211Y-96894800D01*
X250935394Y-97005346D01*
X250754116Y-97154116D01*
X250605346Y-97335394D01*
X250494800Y-97542211D01*
X250426726Y-97766621D01*
X250403740Y-98000000D01*
X238663500Y-98000000D01*
X238663500Y-91700000D01*
X238662280Y-91687612D01*
X238658666Y-91675700D01*
X238652798Y-91664721D01*
X238644901Y-91655099D01*
X238635279Y-91647202D01*
X238624300Y-91641334D01*
X238612388Y-91637720D01*
X238600000Y-91636500D01*
X212900000Y-91636500D01*
X212887612Y-91637720D01*
X212875700Y-91641334D01*
X212864721Y-91647202D01*
X212855099Y-91655099D01*
X212847202Y-91664721D01*
X212841334Y-91675700D01*
X212837720Y-91687612D01*
X212836500Y-91700000D01*
X197890500Y-91700000D01*
X197890500Y-78900000D01*
X212736500Y-78900000D01*
X212736500Y-89900000D01*
X212737720Y-89912388D01*
X212741334Y-89924300D01*
X212747202Y-89935279D01*
X212755099Y-89944901D01*
X212764721Y-89952798D01*
X212775700Y-89958666D01*
X212787612Y-89962280D01*
X212800000Y-89963500D01*
X238600000Y-89963500D01*
X238612388Y-89962280D01*
X238624300Y-89958666D01*
X238635279Y-89952798D01*
X238644901Y-89944901D01*
X238652798Y-89935279D01*
X238658666Y-89924300D01*
X238662280Y-89912388D01*
X238663500Y-89900000D01*
X238663500Y-80300000D01*
X250403740Y-80300000D01*
X250426726Y-80533379D01*
X250494800Y-80757789D01*
X250605346Y-80964606D01*
X250754116Y-81145884D01*
X250935394Y-81294654D01*
X251142211Y-81405200D01*
X251366621Y-81473274D01*
X251541518Y-81490500D01*
X252258482Y-81490500D01*
X252433379Y-81473274D01*
X252657789Y-81405200D01*
X252864606Y-81294654D01*
X253045884Y-81145884D01*
X253194654Y-80964606D01*
X253305200Y-80757789D01*
X253373274Y-80533379D01*
X253396260Y-80300000D01*
X253373274Y-80066621D01*
X253305200Y-79842211D01*
X253194654Y-79635394D01*
X253045884Y-79454116D01*
X252864606Y-79305346D01*
X252657789Y-79194800D01*
X252433379Y-79126726D01*
X252258482Y-79109500D01*
X251541518Y-79109500D01*
X251366621Y-79126726D01*
X251142211Y-79194800D01*
X250935394Y-79305346D01*
X250754116Y-79454116D01*
X250605346Y-79635394D01*
X250494800Y-79842211D01*
X250426726Y-80066621D01*
X250403740Y-80300000D01*
X238663500Y-80300000D01*
X238663500Y-78900000D01*
X238662280Y-78887612D01*
X238658666Y-78875700D01*
X238652798Y-78864721D01*
X238644901Y-78855099D01*
X238635279Y-78847202D01*
X238624300Y-78841334D01*
X238612388Y-78837720D01*
X238600000Y-78836500D01*
X212800000Y-78836500D01*
X212787612Y-78837720D01*
X212775700Y-78841334D01*
X212764721Y-78847202D01*
X212755099Y-78855099D01*
X212747202Y-78864721D01*
X212741334Y-78875700D01*
X212737720Y-78887612D01*
X212736500Y-78900000D01*
X197890500Y-78900000D01*
X197890500Y-76800000D01*
X250403740Y-76800000D01*
X250426726Y-77033379D01*
X250494800Y-77257789D01*
X250605346Y-77464606D01*
X250754116Y-77645884D01*
X250935394Y-77794654D01*
X251142211Y-77905200D01*
X251366621Y-77973274D01*
X251541518Y-77990500D01*
X252258482Y-77990500D01*
X252433379Y-77973274D01*
X252657789Y-77905200D01*
X252864606Y-77794654D01*
X253045884Y-77645884D01*
X253194654Y-77464606D01*
X253305200Y-77257789D01*
X253373274Y-77033379D01*
X253396260Y-76800000D01*
X253373274Y-76566621D01*
X253305200Y-76342211D01*
X253194654Y-76135394D01*
X253045884Y-75954116D01*
X252864606Y-75805346D01*
X252657789Y-75694800D01*
X252433379Y-75626726D01*
X252258482Y-75609500D01*
X251541518Y-75609500D01*
X251366621Y-75626726D01*
X251142211Y-75694800D01*
X250935394Y-75805346D01*
X250754116Y-75954116D01*
X250605346Y-76135394D01*
X250494800Y-76342211D01*
X250426726Y-76566621D01*
X250403740Y-76800000D01*
X197890500Y-76800000D01*
X197890500Y-66602117D01*
X197886781Y-66564659D01*
X197875885Y-66528940D01*
X197858229Y-66496033D01*
X197834492Y-66467202D01*
X197805588Y-66443556D01*
X197772625Y-66426004D01*
X197736872Y-66415219D01*
X197699701Y-66411617D01*
X196349701Y-66413734D01*
X196312835Y-66417394D01*
X196277099Y-66428235D01*
X196244164Y-66445839D01*
X196215296Y-66469530D01*
X196191605Y-66498398D01*
X196174001Y-66531333D01*
X196163160Y-66567069D01*
X196159500Y-66604234D01*
X196159500Y-88509500D01*
X191966078Y-88509500D01*
X191864638Y-88519491D01*
X191734479Y-88558975D01*
X191614523Y-88623092D01*
X191509380Y-88709380D01*
X191423092Y-88814523D01*
X191358975Y-88934479D01*
X191319491Y-89064638D01*
X191306159Y-89200000D01*
X175868781Y-89200000D01*
X175834675Y-89117661D01*
X175780996Y-89037325D01*
X175712675Y-88969004D01*
X175632339Y-88915325D01*
X175543073Y-88878350D01*
X175448310Y-88859500D01*
X175351690Y-88859500D01*
X175256927Y-88878350D01*
X175167661Y-88915325D01*
X175087325Y-88969004D01*
X175019004Y-89037325D01*
X174965325Y-89117661D01*
X174928350Y-89206927D01*
X174909500Y-89301690D01*
X169360900Y-89301690D01*
X168588419Y-88529209D01*
X168580473Y-88519527D01*
X168570791Y-88511581D01*
X168570788Y-88511578D01*
X168558323Y-88501349D01*
X168541797Y-88487786D01*
X168497672Y-88464200D01*
X168449793Y-88449676D01*
X168412469Y-88446000D01*
X168412458Y-88446000D01*
X168400000Y-88444773D01*
X168387542Y-88446000D01*
X162970202Y-88446000D01*
X162930996Y-88387325D01*
X162862675Y-88319004D01*
X162782339Y-88265325D01*
X162693073Y-88228350D01*
X162598310Y-88209500D01*
X162501690Y-88209500D01*
X162406927Y-88228350D01*
X162317661Y-88265325D01*
X162237325Y-88319004D01*
X162169004Y-88387325D01*
X162115325Y-88467661D01*
X162078350Y-88556927D01*
X162059500Y-88651690D01*
X156745500Y-88651690D01*
X156745500Y-88612520D01*
X156705515Y-88411497D01*
X156627080Y-88222138D01*
X156513209Y-88051720D01*
X156368280Y-87906791D01*
X156197862Y-87792920D01*
X156008503Y-87714485D01*
X155807480Y-87674500D01*
X155602520Y-87674500D01*
X155401497Y-87714485D01*
X155212138Y-87792920D01*
X155041720Y-87906791D01*
X154896791Y-88051720D01*
X154782920Y-88222138D01*
X154704485Y-88411497D01*
X154664500Y-88612520D01*
X154205500Y-88612520D01*
X154165515Y-88411497D01*
X154087080Y-88222138D01*
X153973209Y-88051720D01*
X153828280Y-87906791D01*
X153657862Y-87792920D01*
X153468503Y-87714485D01*
X153267480Y-87674500D01*
X153062520Y-87674500D01*
X152861497Y-87714485D01*
X152672138Y-87792920D01*
X152501720Y-87906791D01*
X152356791Y-88051720D01*
X152242920Y-88222138D01*
X152164485Y-88411497D01*
X152124500Y-88612520D01*
X149640500Y-88612520D01*
X149640500Y-85325000D01*
X154663579Y-85325000D01*
X154663579Y-87025000D01*
X154667257Y-87062344D01*
X154678150Y-87098254D01*
X154695839Y-87131348D01*
X154719645Y-87160355D01*
X154748652Y-87184161D01*
X154781746Y-87201850D01*
X154817656Y-87212743D01*
X154855000Y-87216421D01*
X156555000Y-87216421D01*
X156592344Y-87212743D01*
X156628254Y-87201850D01*
X156661348Y-87184161D01*
X156690355Y-87160355D01*
X156714161Y-87131348D01*
X156731850Y-87098254D01*
X156742743Y-87062344D01*
X156746421Y-87025000D01*
X156746421Y-85325000D01*
X156742743Y-85287656D01*
X156731850Y-85251746D01*
X156714161Y-85218652D01*
X156690355Y-85189645D01*
X156661348Y-85165839D01*
X156628254Y-85148150D01*
X156592344Y-85137257D01*
X156555000Y-85133579D01*
X154855000Y-85133579D01*
X154817656Y-85137257D01*
X154781746Y-85148150D01*
X154748652Y-85165839D01*
X154719645Y-85189645D01*
X154695839Y-85218652D01*
X154678150Y-85251746D01*
X154667257Y-85287656D01*
X154663579Y-85325000D01*
X149640500Y-85325000D01*
X149640500Y-85001690D01*
X172209500Y-85001690D01*
X172209500Y-85098310D01*
X172228350Y-85193073D01*
X172265325Y-85282339D01*
X172319004Y-85362675D01*
X172387325Y-85430996D01*
X172467661Y-85484675D01*
X172556927Y-85521650D01*
X172651690Y-85540500D01*
X172748310Y-85540500D01*
X172817522Y-85526732D01*
X176111586Y-88820797D01*
X176119527Y-88830473D01*
X176129203Y-88838414D01*
X176129211Y-88838422D01*
X176154896Y-88859500D01*
X176158203Y-88862214D01*
X176202328Y-88885800D01*
X176250207Y-88900324D01*
X176287531Y-88904000D01*
X176287542Y-88904000D01*
X176300000Y-88905227D01*
X176312458Y-88904000D01*
X179079798Y-88904000D01*
X179119004Y-88962675D01*
X179187325Y-89030996D01*
X179267661Y-89084675D01*
X179356927Y-89121650D01*
X179451690Y-89140500D01*
X179548310Y-89140500D01*
X179643073Y-89121650D01*
X179732339Y-89084675D01*
X179812675Y-89030996D01*
X179880996Y-88962675D01*
X179934675Y-88882339D01*
X179971650Y-88793073D01*
X179990500Y-88698310D01*
X179990500Y-88601690D01*
X179971650Y-88506927D01*
X179934675Y-88417661D01*
X179880996Y-88337325D01*
X179812675Y-88269004D01*
X179732339Y-88215325D01*
X179643073Y-88178350D01*
X179548310Y-88159500D01*
X179451690Y-88159500D01*
X179356927Y-88178350D01*
X179267661Y-88215325D01*
X179187325Y-88269004D01*
X179119004Y-88337325D01*
X179079798Y-88396000D01*
X176405211Y-88396000D01*
X173176732Y-85167522D01*
X173190500Y-85098310D01*
X173190500Y-85001690D01*
X173171650Y-84906927D01*
X173134675Y-84817661D01*
X173080996Y-84737325D01*
X173012675Y-84669004D01*
X172932339Y-84615325D01*
X172843073Y-84578350D01*
X172748310Y-84559500D01*
X172651690Y-84559500D01*
X172556927Y-84578350D01*
X172467661Y-84615325D01*
X172387325Y-84669004D01*
X172319004Y-84737325D01*
X172265325Y-84817661D01*
X172228350Y-84906927D01*
X172209500Y-85001690D01*
X149640500Y-85001690D01*
X149640500Y-65150000D01*
X149636840Y-65112835D01*
X149625999Y-65077099D01*
X149608395Y-65044164D01*
X149584704Y-65015296D01*
X149555836Y-64991605D01*
X149522901Y-64974001D01*
X149487165Y-64963160D01*
X149450000Y-64959500D01*
X148150000Y-64959500D01*
X148112835Y-64963160D01*
X148077099Y-64974001D01*
X148044164Y-64991605D01*
X148015296Y-65015296D01*
X147991605Y-65044164D01*
X147974001Y-65077099D01*
X147963160Y-65112835D01*
X147959500Y-65150000D01*
X147959500Y-65841282D01*
X147944500Y-65916690D01*
X133063500Y-65916690D01*
X133063500Y-63450000D01*
X133062280Y-63437612D01*
X133058666Y-63425700D01*
X133052798Y-63414721D01*
X133044901Y-63405099D01*
X133035279Y-63397202D01*
X133024300Y-63391334D01*
X133012388Y-63387720D01*
X133000000Y-63386500D01*
X107200000Y-63386500D01*
X107187612Y-63387720D01*
X107175700Y-63391334D01*
X107164721Y-63397202D01*
X107155099Y-63405099D01*
X107147202Y-63414721D01*
X107141334Y-63425700D01*
X107137720Y-63437612D01*
X107136500Y-63450000D01*
X89163500Y-63450000D01*
X89163500Y-62215500D01*
X150196500Y-62215500D01*
X150196500Y-84160000D01*
G37*
X150196500Y-84160000D02*
X150197720Y-84172388D01*
X150201334Y-84184300D01*
X150207202Y-84195279D01*
X150215099Y-84204901D01*
X150224721Y-84212798D01*
X150235700Y-84218666D01*
X150247612Y-84222280D01*
X150260000Y-84223500D01*
X195540000Y-84223500D01*
X195552388Y-84222280D01*
X195564300Y-84218666D01*
X195575279Y-84212798D01*
X195584901Y-84204901D01*
X195592798Y-84195279D01*
X195598666Y-84184300D01*
X195602280Y-84172388D01*
X195603500Y-84160000D01*
X195603500Y-63500000D01*
X212836500Y-63500000D01*
X212836500Y-74500000D01*
X212837720Y-74512388D01*
X212841334Y-74524300D01*
X212847202Y-74535279D01*
X212855099Y-74544901D01*
X212864721Y-74552798D01*
X212875700Y-74558666D01*
X212887612Y-74562280D01*
X212900000Y-74563500D01*
X238600000Y-74563500D01*
X238612388Y-74562280D01*
X238624300Y-74558666D01*
X238635279Y-74552798D01*
X238644901Y-74544901D01*
X238652798Y-74535279D01*
X238658666Y-74524300D01*
X238662280Y-74512388D01*
X238663500Y-74500000D01*
X238663500Y-73300000D01*
X250403740Y-73300000D01*
X250426726Y-73533379D01*
X250494800Y-73757789D01*
X250605346Y-73964606D01*
X250754116Y-74145884D01*
X250935394Y-74294654D01*
X251142211Y-74405200D01*
X251366621Y-74473274D01*
X251541518Y-74490500D01*
X252258482Y-74490500D01*
X252433379Y-74473274D01*
X252657789Y-74405200D01*
X252864606Y-74294654D01*
X253045884Y-74145884D01*
X253194654Y-73964606D01*
X253305200Y-73757789D01*
X253373274Y-73533379D01*
X253396260Y-73300000D01*
X253373274Y-73066621D01*
X253305200Y-72842211D01*
X253194654Y-72635394D01*
X253045884Y-72454116D01*
X252864606Y-72305346D01*
X252657789Y-72194800D01*
X252433379Y-72126726D01*
X252258482Y-72109500D01*
X251541518Y-72109500D01*
X251366621Y-72126726D01*
X251142211Y-72194800D01*
X250935394Y-72305346D01*
X250754116Y-72454116D01*
X250605346Y-72635394D01*
X250494800Y-72842211D01*
X250426726Y-73066621D01*
X250403740Y-73300000D01*
X238663500Y-73300000D01*
X238663500Y-69800000D01*
X250403740Y-69800000D01*
X250426726Y-70033379D01*
X250494800Y-70257789D01*
X250605346Y-70464606D01*
X250754116Y-70645884D01*
X250935394Y-70794654D01*
X251142211Y-70905200D01*
X251366621Y-70973274D01*
X251541518Y-70990500D01*
X252258482Y-70990500D01*
X252433379Y-70973274D01*
X252657789Y-70905200D01*
X252864606Y-70794654D01*
X253045884Y-70645884D01*
X253194654Y-70464606D01*
X253305200Y-70257789D01*
X253373274Y-70033379D01*
X253396260Y-69800000D01*
X253373274Y-69566621D01*
X253305200Y-69342211D01*
X253194654Y-69135394D01*
X253045884Y-68954116D01*
X252864606Y-68805346D01*
X252657789Y-68694800D01*
X252433379Y-68626726D01*
X252258482Y-68609500D01*
X251541518Y-68609500D01*
X251366621Y-68626726D01*
X251142211Y-68694800D01*
X250935394Y-68805346D01*
X250754116Y-68954116D01*
X250605346Y-69135394D01*
X250494800Y-69342211D01*
X250426726Y-69566621D01*
X250403740Y-69800000D01*
X238663500Y-69800000D01*
X238663500Y-63500000D01*
X238662280Y-63487612D01*
X238658666Y-63475700D01*
X238652798Y-63464721D01*
X238644901Y-63455099D01*
X238635279Y-63447202D01*
X238624300Y-63441334D01*
X238612388Y-63437720D01*
X238600000Y-63436500D01*
X212900000Y-63436500D01*
X212887612Y-63437720D01*
X212875700Y-63441334D01*
X212864721Y-63447202D01*
X212855099Y-63455099D01*
X212847202Y-63464721D01*
X212841334Y-63475700D01*
X212837720Y-63487612D01*
X212836500Y-63500000D01*
X195603500Y-63500000D01*
X195603500Y-62215500D01*
X256636500Y-62215500D01*
X256636500Y-119384500D01*
X89163500Y-119384500D01*
X89163500Y-111700000D01*
X92403740Y-111700000D01*
X92426726Y-111933379D01*
X92494800Y-112157789D01*
X92605346Y-112364606D01*
X92754116Y-112545884D01*
X92935394Y-112694654D01*
X93142211Y-112805200D01*
X93366621Y-112873274D01*
X93541518Y-112890500D01*
X94258482Y-112890500D01*
X94433379Y-112873274D01*
X94657789Y-112805200D01*
X94864606Y-112694654D01*
X95045884Y-112545884D01*
X95194654Y-112364606D01*
X95305200Y-112157789D01*
X95373274Y-111933379D01*
X95396260Y-111700000D01*
X95373274Y-111466621D01*
X95305200Y-111242211D01*
X95194654Y-111035394D01*
X95045884Y-110854116D01*
X94864606Y-110705346D01*
X94657789Y-110594800D01*
X94433379Y-110526726D01*
X94258482Y-110509500D01*
X93541518Y-110509500D01*
X93366621Y-110526726D01*
X93142211Y-110594800D01*
X92935394Y-110705346D01*
X92754116Y-110854116D01*
X92605346Y-111035394D01*
X92494800Y-111242211D01*
X92426726Y-111466621D01*
X92403740Y-111700000D01*
X89163500Y-111700000D01*
X89163500Y-108200000D01*
X92403740Y-108200000D01*
X92426726Y-108433379D01*
X92494800Y-108657789D01*
X92605346Y-108864606D01*
X92754116Y-109045884D01*
X92935394Y-109194654D01*
X93142211Y-109305200D01*
X93366621Y-109373274D01*
X93541518Y-109390500D01*
X94258482Y-109390500D01*
X94433379Y-109373274D01*
X94657789Y-109305200D01*
X94864606Y-109194654D01*
X95045884Y-109045884D01*
X95194654Y-108864606D01*
X95305200Y-108657789D01*
X95373274Y-108433379D01*
X95396260Y-108200000D01*
X95373274Y-107966621D01*
X95305200Y-107742211D01*
X95194654Y-107535394D01*
X95045884Y-107354116D01*
X94864606Y-107205346D01*
X94657789Y-107094800D01*
X94510104Y-107050000D01*
X107136500Y-107050000D01*
X107136500Y-118050000D01*
X107137720Y-118062388D01*
X107141334Y-118074300D01*
X107147202Y-118085279D01*
X107155099Y-118094901D01*
X107164721Y-118102798D01*
X107175700Y-118108666D01*
X107187612Y-118112280D01*
X107200000Y-118113500D01*
X132900000Y-118113500D01*
X132912388Y-118112280D01*
X132924300Y-118108666D01*
X132935279Y-118102798D01*
X132944901Y-118094901D01*
X132952798Y-118085279D01*
X132958666Y-118074300D01*
X132962280Y-118062388D01*
X132963500Y-118050000D01*
X132963500Y-107050000D01*
X132962280Y-107037612D01*
X132958666Y-107025700D01*
X132952798Y-107014721D01*
X132944901Y-107005099D01*
X132935279Y-106997202D01*
X132924300Y-106991334D01*
X132912388Y-106987720D01*
X132900000Y-106986500D01*
X107200000Y-106986500D01*
X107187612Y-106987720D01*
X107175700Y-106991334D01*
X107164721Y-106997202D01*
X107155099Y-107005099D01*
X107147202Y-107014721D01*
X107141334Y-107025700D01*
X107137720Y-107037612D01*
X107136500Y-107050000D01*
X94510104Y-107050000D01*
X94433379Y-107026726D01*
X94258482Y-107009500D01*
X93541518Y-107009500D01*
X93366621Y-107026726D01*
X93142211Y-107094800D01*
X92935394Y-107205346D01*
X92754116Y-107354116D01*
X92605346Y-107535394D01*
X92494800Y-107742211D01*
X92426726Y-107966621D01*
X92403740Y-108200000D01*
X89163500Y-108200000D01*
X89163500Y-104700000D01*
X92403740Y-104700000D01*
X92426726Y-104933379D01*
X92494800Y-105157789D01*
X92605346Y-105364606D01*
X92754116Y-105545884D01*
X92935394Y-105694654D01*
X93142211Y-105805200D01*
X93366621Y-105873274D01*
X93541518Y-105890500D01*
X94258482Y-105890500D01*
X94433379Y-105873274D01*
X94657789Y-105805200D01*
X94864606Y-105694654D01*
X95045884Y-105545884D01*
X95194654Y-105364606D01*
X95305200Y-105157789D01*
X95373274Y-104933379D01*
X95396260Y-104700000D01*
X95373274Y-104466621D01*
X95305200Y-104242211D01*
X95194654Y-104035394D01*
X95045884Y-103854116D01*
X94864606Y-103705346D01*
X94657789Y-103594800D01*
X94433379Y-103526726D01*
X94258482Y-103509500D01*
X93541518Y-103509500D01*
X93366621Y-103526726D01*
X93142211Y-103594800D01*
X92935394Y-103705346D01*
X92754116Y-103854116D01*
X92605346Y-104035394D01*
X92494800Y-104242211D01*
X92426726Y-104466621D01*
X92403740Y-104700000D01*
X89163500Y-104700000D01*
X89163500Y-101200000D01*
X92403740Y-101200000D01*
X92426726Y-101433379D01*
X92494800Y-101657789D01*
X92605346Y-101864606D01*
X92754116Y-102045884D01*
X92935394Y-102194654D01*
X93142211Y-102305200D01*
X93366621Y-102373274D01*
X93541518Y-102390500D01*
X94258482Y-102390500D01*
X94433379Y-102373274D01*
X94657789Y-102305200D01*
X94864606Y-102194654D01*
X95045884Y-102045884D01*
X95194654Y-101864606D01*
X95305200Y-101657789D01*
X95373274Y-101433379D01*
X95396260Y-101200000D01*
X95373274Y-100966621D01*
X95305200Y-100742211D01*
X95194654Y-100535394D01*
X95045884Y-100354116D01*
X94864606Y-100205346D01*
X94657789Y-100094800D01*
X94433379Y-100026726D01*
X94258482Y-100009500D01*
X93541518Y-100009500D01*
X93366621Y-100026726D01*
X93142211Y-100094800D01*
X92935394Y-100205346D01*
X92754116Y-100354116D01*
X92605346Y-100535394D01*
X92494800Y-100742211D01*
X92426726Y-100966621D01*
X92403740Y-101200000D01*
X89163500Y-101200000D01*
X89163500Y-91650000D01*
X107136500Y-91650000D01*
X107136500Y-102650000D01*
X107137720Y-102662388D01*
X107141334Y-102674300D01*
X107147202Y-102685279D01*
X107155099Y-102694901D01*
X107164721Y-102702798D01*
X107175700Y-102708666D01*
X107187612Y-102712280D01*
X107200000Y-102713500D01*
X133000000Y-102713500D01*
X133012388Y-102712280D01*
X133024300Y-102708666D01*
X133035279Y-102702798D01*
X133044901Y-102694901D01*
X133052798Y-102685279D01*
X133058666Y-102674300D01*
X133062280Y-102662388D01*
X133063500Y-102650000D01*
X133063500Y-91650000D01*
X133062280Y-91637612D01*
X133058666Y-91625700D01*
X133052798Y-91614721D01*
X133044901Y-91605099D01*
X133035279Y-91597202D01*
X133024300Y-91591334D01*
X133012388Y-91587720D01*
X133000000Y-91586500D01*
X107200000Y-91586500D01*
X107187612Y-91587720D01*
X107175700Y-91591334D01*
X107164721Y-91597202D01*
X107155099Y-91605099D01*
X107147202Y-91614721D01*
X107141334Y-91625700D01*
X107137720Y-91637612D01*
X107136500Y-91650000D01*
X89163500Y-91650000D01*
X89163500Y-83600000D01*
X92403740Y-83600000D01*
X92426726Y-83833379D01*
X92494800Y-84057789D01*
X92605346Y-84264606D01*
X92754116Y-84445884D01*
X92935394Y-84594654D01*
X93142211Y-84705200D01*
X93366621Y-84773274D01*
X93541518Y-84790500D01*
X94258482Y-84790500D01*
X94433379Y-84773274D01*
X94657789Y-84705200D01*
X94864606Y-84594654D01*
X95045884Y-84445884D01*
X95194654Y-84264606D01*
X95305200Y-84057789D01*
X95373274Y-83833379D01*
X95396260Y-83600000D01*
X95373274Y-83366621D01*
X95305200Y-83142211D01*
X95194654Y-82935394D01*
X95045884Y-82754116D01*
X94864606Y-82605346D01*
X94657789Y-82494800D01*
X94433379Y-82426726D01*
X94258482Y-82409500D01*
X93541518Y-82409500D01*
X93366621Y-82426726D01*
X93142211Y-82494800D01*
X92935394Y-82605346D01*
X92754116Y-82754116D01*
X92605346Y-82935394D01*
X92494800Y-83142211D01*
X92426726Y-83366621D01*
X92403740Y-83600000D01*
X89163500Y-83600000D01*
X89163500Y-80100000D01*
X92403740Y-80100000D01*
X92426726Y-80333379D01*
X92494800Y-80557789D01*
X92605346Y-80764606D01*
X92754116Y-80945884D01*
X92935394Y-81094654D01*
X93142211Y-81205200D01*
X93366621Y-81273274D01*
X93541518Y-81290500D01*
X94258482Y-81290500D01*
X94433379Y-81273274D01*
X94657789Y-81205200D01*
X94864606Y-81094654D01*
X95045884Y-80945884D01*
X95194654Y-80764606D01*
X95305200Y-80557789D01*
X95373274Y-80333379D01*
X95396260Y-80100000D01*
X95373274Y-79866621D01*
X95305200Y-79642211D01*
X95194654Y-79435394D01*
X95045884Y-79254116D01*
X94864606Y-79105346D01*
X94657789Y-78994800D01*
X94433379Y-78926726D01*
X94258482Y-78909500D01*
X93541518Y-78909500D01*
X93366621Y-78926726D01*
X93142211Y-78994800D01*
X92935394Y-79105346D01*
X92754116Y-79254116D01*
X92605346Y-79435394D01*
X92494800Y-79642211D01*
X92426726Y-79866621D01*
X92403740Y-80100000D01*
X89163500Y-80100000D01*
X89163500Y-78850000D01*
X107136500Y-78850000D01*
X107136500Y-89850000D01*
X107137720Y-89862388D01*
X107141334Y-89874300D01*
X107147202Y-89885279D01*
X107155099Y-89894901D01*
X107164721Y-89902798D01*
X107175700Y-89908666D01*
X107187612Y-89912280D01*
X107200000Y-89913500D01*
X132900000Y-89913500D01*
X132912388Y-89912280D01*
X132924300Y-89908666D01*
X132935279Y-89902798D01*
X132944901Y-89894901D01*
X132952798Y-89885279D01*
X132958666Y-89874300D01*
X132962280Y-89862388D01*
X132963500Y-89850000D01*
X132963500Y-78850000D01*
X132962280Y-78837612D01*
X132958666Y-78825700D01*
X132952798Y-78814721D01*
X132944901Y-78805099D01*
X132935279Y-78797202D01*
X132924300Y-78791334D01*
X132912388Y-78787720D01*
X132900000Y-78786500D01*
X107200000Y-78786500D01*
X107187612Y-78787720D01*
X107175700Y-78791334D01*
X107164721Y-78797202D01*
X107155099Y-78805099D01*
X107147202Y-78814721D01*
X107141334Y-78825700D01*
X107137720Y-78837612D01*
X107136500Y-78850000D01*
X89163500Y-78850000D01*
X89163500Y-76600000D01*
X92403740Y-76600000D01*
X92426726Y-76833379D01*
X92494800Y-77057789D01*
X92605346Y-77264606D01*
X92754116Y-77445884D01*
X92935394Y-77594654D01*
X93142211Y-77705200D01*
X93366621Y-77773274D01*
X93541518Y-77790500D01*
X94258482Y-77790500D01*
X94433379Y-77773274D01*
X94657789Y-77705200D01*
X94864606Y-77594654D01*
X95045884Y-77445884D01*
X95194654Y-77264606D01*
X95305200Y-77057789D01*
X95373274Y-76833379D01*
X95396260Y-76600000D01*
X95373274Y-76366621D01*
X95305200Y-76142211D01*
X95194654Y-75935394D01*
X95045884Y-75754116D01*
X94864606Y-75605346D01*
X94657789Y-75494800D01*
X94433379Y-75426726D01*
X94258482Y-75409500D01*
X93541518Y-75409500D01*
X93366621Y-75426726D01*
X93142211Y-75494800D01*
X92935394Y-75605346D01*
X92754116Y-75754116D01*
X92605346Y-75935394D01*
X92494800Y-76142211D01*
X92426726Y-76366621D01*
X92403740Y-76600000D01*
X89163500Y-76600000D01*
X89163500Y-73100000D01*
X92403740Y-73100000D01*
X92426726Y-73333379D01*
X92494800Y-73557789D01*
X92605346Y-73764606D01*
X92754116Y-73945884D01*
X92935394Y-74094654D01*
X93142211Y-74205200D01*
X93366621Y-74273274D01*
X93541518Y-74290500D01*
X94258482Y-74290500D01*
X94433379Y-74273274D01*
X94657789Y-74205200D01*
X94864606Y-74094654D01*
X95045884Y-73945884D01*
X95194654Y-73764606D01*
X95305200Y-73557789D01*
X95373274Y-73333379D01*
X95396260Y-73100000D01*
X95373274Y-72866621D01*
X95305200Y-72642211D01*
X95194654Y-72435394D01*
X95045884Y-72254116D01*
X94864606Y-72105346D01*
X94657789Y-71994800D01*
X94433379Y-71926726D01*
X94258482Y-71909500D01*
X93541518Y-71909500D01*
X93366621Y-71926726D01*
X93142211Y-71994800D01*
X92935394Y-72105346D01*
X92754116Y-72254116D01*
X92605346Y-72435394D01*
X92494800Y-72642211D01*
X92426726Y-72866621D01*
X92403740Y-73100000D01*
X89163500Y-73100000D01*
X89163500Y-63450000D01*
X107136500Y-63450000D01*
X107136500Y-74450000D01*
X107137720Y-74462388D01*
X107141334Y-74474300D01*
X107147202Y-74485279D01*
X107155099Y-74494901D01*
X107164721Y-74502798D01*
X107175700Y-74508666D01*
X107187612Y-74512280D01*
X107200000Y-74513500D01*
X133000000Y-74513500D01*
X133012388Y-74512280D01*
X133024300Y-74508666D01*
X133035279Y-74502798D01*
X133044901Y-74494901D01*
X133052798Y-74485279D01*
X133058666Y-74474300D01*
X133062280Y-74462388D01*
X133063500Y-74450000D01*
X133063500Y-65916690D01*
X147944500Y-65916690D01*
X147944500Y-66013310D01*
X147959500Y-66088718D01*
X147959500Y-114950000D01*
X147963160Y-114987165D01*
X147974001Y-115022901D01*
X147991605Y-115055836D01*
X148015296Y-115084704D01*
X148044164Y-115108395D01*
X148077099Y-115125999D01*
X148112835Y-115136840D01*
X148150000Y-115140500D01*
X149450000Y-115140500D01*
X149487165Y-115136840D01*
X149522901Y-115125999D01*
X149555836Y-115108395D01*
X149584704Y-115084704D01*
X149608395Y-115055836D01*
X149625999Y-115022901D01*
X149636840Y-114987165D01*
X149640500Y-114950000D01*
X149640500Y-113356180D01*
X188845900Y-113356180D01*
X188845900Y-113563820D01*
X188886409Y-113767470D01*
X188965869Y-113959303D01*
X189081227Y-114131949D01*
X189228051Y-114278773D01*
X189400697Y-114394131D01*
X189592530Y-114473591D01*
X189796180Y-114514100D01*
X190003820Y-114514100D01*
X190207470Y-114473591D01*
X190399303Y-114394131D01*
X190571949Y-114278773D01*
X190718773Y-114131949D01*
X190834131Y-113959303D01*
X190913591Y-113767470D01*
X190954100Y-113563820D01*
X190954100Y-113356180D01*
X191385900Y-113356180D01*
X191385900Y-113563820D01*
X191426409Y-113767470D01*
X191505869Y-113959303D01*
X191621227Y-114131949D01*
X191768051Y-114278773D01*
X191940697Y-114394131D01*
X192132530Y-114473591D01*
X192336180Y-114514100D01*
X192543820Y-114514100D01*
X192747470Y-114473591D01*
X192939303Y-114394131D01*
X193111949Y-114278773D01*
X193258773Y-114131949D01*
X193374131Y-113959303D01*
X193453591Y-113767470D01*
X193494100Y-113563820D01*
X193494100Y-113356180D01*
X193453591Y-113152530D01*
X193374131Y-112960697D01*
X193258773Y-112788051D01*
X193111949Y-112641227D01*
X192939303Y-112525869D01*
X192747470Y-112446409D01*
X192543820Y-112405900D01*
X192336180Y-112405900D01*
X192132530Y-112446409D01*
X191940697Y-112525869D01*
X191768051Y-112641227D01*
X191621227Y-112788051D01*
X191505869Y-112960697D01*
X191426409Y-113152530D01*
X191385900Y-113356180D01*
X190954100Y-113356180D01*
X190913591Y-113152530D01*
X190834131Y-112960697D01*
X190718773Y-112788051D01*
X190571949Y-112641227D01*
X190399303Y-112525869D01*
X190207470Y-112446409D01*
X190003820Y-112405900D01*
X189796180Y-112405900D01*
X189592530Y-112446409D01*
X189400697Y-112525869D01*
X189228051Y-112641227D01*
X189081227Y-112788051D01*
X188965869Y-112960697D01*
X188886409Y-113152530D01*
X188845900Y-113356180D01*
X149640500Y-113356180D01*
X149640500Y-110051690D01*
X187559500Y-110051690D01*
X187559500Y-110148310D01*
X187578350Y-110243073D01*
X187615325Y-110332339D01*
X187669004Y-110412675D01*
X187737325Y-110480996D01*
X187817661Y-110534675D01*
X187906927Y-110571650D01*
X188001690Y-110590500D01*
X188094316Y-110590500D01*
X188635957Y-111132142D01*
X188645829Y-111144171D01*
X188657857Y-111154042D01*
X188657862Y-111154047D01*
X188693870Y-111183597D01*
X188748679Y-111212894D01*
X188808151Y-111230934D01*
X188854507Y-111235500D01*
X188854517Y-111235500D01*
X188869999Y-111237025D01*
X188885482Y-111235500D01*
X188889735Y-111235500D01*
X188965869Y-111419303D01*
X189081227Y-111591949D01*
X189228051Y-111738773D01*
X189400697Y-111854131D01*
X189592530Y-111933591D01*
X189796180Y-111974100D01*
X190003820Y-111974100D01*
X190207470Y-111933591D01*
X190399303Y-111854131D01*
X190571949Y-111738773D01*
X190718773Y-111591949D01*
X190834131Y-111419303D01*
X190913591Y-111227470D01*
X190954100Y-111023820D01*
X190954100Y-110816180D01*
X191385900Y-110816180D01*
X191385900Y-111023820D01*
X191426409Y-111227470D01*
X191505869Y-111419303D01*
X191621227Y-111591949D01*
X191768051Y-111738773D01*
X191940697Y-111854131D01*
X192132530Y-111933591D01*
X192336180Y-111974100D01*
X192543820Y-111974100D01*
X192747470Y-111933591D01*
X192939303Y-111854131D01*
X193111949Y-111738773D01*
X193258773Y-111591949D01*
X193374131Y-111419303D01*
X193453591Y-111227470D01*
X193494100Y-111023820D01*
X193494100Y-110816180D01*
X193453591Y-110612530D01*
X193374131Y-110420697D01*
X193258773Y-110248051D01*
X193111949Y-110101227D01*
X192939303Y-109985869D01*
X192747470Y-109906409D01*
X192543820Y-109865900D01*
X192336180Y-109865900D01*
X192132530Y-109906409D01*
X191940697Y-109985869D01*
X191768051Y-110101227D01*
X191621227Y-110248051D01*
X191505869Y-110420697D01*
X191426409Y-110612530D01*
X191385900Y-110816180D01*
X190954100Y-110816180D01*
X190913591Y-110612530D01*
X190834131Y-110420697D01*
X190718773Y-110248051D01*
X190571949Y-110101227D01*
X190399303Y-109985869D01*
X190207470Y-109906409D01*
X190003820Y-109865900D01*
X189796180Y-109865900D01*
X189592530Y-109906409D01*
X189400697Y-109985869D01*
X189228051Y-110101227D01*
X189081227Y-110248051D01*
X188965869Y-110420697D01*
X188922232Y-110526047D01*
X188540500Y-110144316D01*
X188540500Y-110051690D01*
X188521650Y-109956927D01*
X188484675Y-109867661D01*
X188430996Y-109787325D01*
X188362675Y-109719004D01*
X188282339Y-109665325D01*
X188193073Y-109628350D01*
X188098310Y-109609500D01*
X188001690Y-109609500D01*
X187906927Y-109628350D01*
X187817661Y-109665325D01*
X187737325Y-109719004D01*
X187669004Y-109787325D01*
X187615325Y-109867661D01*
X187578350Y-109956927D01*
X187559500Y-110051690D01*
X149640500Y-110051690D01*
X149640500Y-106190500D01*
X158333922Y-106190500D01*
X158435362Y-106180509D01*
X158565521Y-106141025D01*
X158685477Y-106076908D01*
X158790620Y-105990620D01*
X158876908Y-105885477D01*
X158941025Y-105765521D01*
X158980509Y-105635362D01*
X158993841Y-105500000D01*
X158980509Y-105364638D01*
X158941025Y-105234479D01*
X158876908Y-105114523D01*
X158790620Y-105009380D01*
X158685477Y-104923092D01*
X158565521Y-104858975D01*
X158435362Y-104819491D01*
X158333922Y-104809500D01*
X149640500Y-104809500D01*
X149640500Y-99300000D01*
X152003740Y-99300000D01*
X152009500Y-99358479D01*
X152009500Y-99358482D01*
X152026726Y-99533379D01*
X152094800Y-99757789D01*
X152205347Y-99964606D01*
X152354117Y-100145884D01*
X152399548Y-100183168D01*
X156316832Y-104100453D01*
X156354116Y-104145884D01*
X156535394Y-104294654D01*
X156742211Y-104405200D01*
X156966621Y-104473274D01*
X157141518Y-104490500D01*
X157141520Y-104490500D01*
X157199999Y-104496260D01*
X157258479Y-104490500D01*
X173991521Y-104490500D01*
X174050000Y-104496260D01*
X174108479Y-104490500D01*
X174108482Y-104490500D01*
X174283379Y-104473274D01*
X174290706Y-104471051D01*
X173654790Y-105109500D01*
X172500000Y-105109500D01*
X172462835Y-105113160D01*
X172427099Y-105124001D01*
X172394164Y-105141605D01*
X172365296Y-105165296D01*
X172341605Y-105194164D01*
X172324001Y-105227099D01*
X172313160Y-105262835D01*
X172309500Y-105300000D01*
X172309500Y-108600000D01*
X172313160Y-108637165D01*
X172324001Y-108672901D01*
X172341605Y-108705836D01*
X172365296Y-108734704D01*
X172394164Y-108758395D01*
X172427099Y-108775999D01*
X172462835Y-108786840D01*
X172500000Y-108790500D01*
X186600000Y-108790500D01*
X186637165Y-108786840D01*
X186672901Y-108775999D01*
X186705836Y-108758395D01*
X186734704Y-108734704D01*
X186758395Y-108705836D01*
X186775999Y-108672901D01*
X186786840Y-108637165D01*
X186790500Y-108600000D01*
X186790500Y-105736180D01*
X188845900Y-105736180D01*
X188845900Y-105943820D01*
X188886409Y-106147470D01*
X188965869Y-106339303D01*
X189081227Y-106511949D01*
X189228051Y-106658773D01*
X189400697Y-106774131D01*
X189592530Y-106853591D01*
X189796180Y-106894100D01*
X190003820Y-106894100D01*
X190207470Y-106853591D01*
X190399303Y-106774131D01*
X190571949Y-106658773D01*
X190718773Y-106511949D01*
X190834131Y-106339303D01*
X190913591Y-106147470D01*
X190954100Y-105943820D01*
X190954100Y-105736180D01*
X191385900Y-105736180D01*
X191385900Y-105943820D01*
X191426409Y-106147470D01*
X191505869Y-106339303D01*
X191621227Y-106511949D01*
X191768051Y-106658773D01*
X191940697Y-106774131D01*
X192132530Y-106853591D01*
X192336180Y-106894100D01*
X192543820Y-106894100D01*
X192747470Y-106853591D01*
X192939303Y-106774131D01*
X193111949Y-106658773D01*
X193258773Y-106511949D01*
X193374131Y-106339303D01*
X193453591Y-106147470D01*
X193494100Y-105943820D01*
X193494100Y-105736180D01*
X193453591Y-105532530D01*
X193374131Y-105340697D01*
X193258773Y-105168051D01*
X193111949Y-105021227D01*
X192939303Y-104905869D01*
X192747470Y-104826409D01*
X192543820Y-104785900D01*
X192336180Y-104785900D01*
X192132530Y-104826409D01*
X191940697Y-104905869D01*
X191768051Y-105021227D01*
X191621227Y-105168051D01*
X191505869Y-105340697D01*
X191426409Y-105532530D01*
X191385900Y-105736180D01*
X190954100Y-105736180D01*
X190913591Y-105532530D01*
X190834131Y-105340697D01*
X190718773Y-105168051D01*
X190571949Y-105021227D01*
X190399303Y-104905869D01*
X190207470Y-104826409D01*
X190003820Y-104785900D01*
X189796180Y-104785900D01*
X189592530Y-104826409D01*
X189400697Y-104905869D01*
X189228051Y-105021227D01*
X189081227Y-105168051D01*
X188965869Y-105340697D01*
X188886409Y-105532530D01*
X188845900Y-105736180D01*
X186790500Y-105736180D01*
X186790500Y-99851690D01*
X187259500Y-99851690D01*
X187259500Y-99948310D01*
X187278350Y-100043073D01*
X187315325Y-100132339D01*
X187369004Y-100212675D01*
X187437325Y-100280996D01*
X187517661Y-100334675D01*
X187606927Y-100371650D01*
X187701690Y-100390500D01*
X187734499Y-100390500D01*
X187734501Y-103571828D01*
X187669004Y-103637325D01*
X187615325Y-103717661D01*
X187578350Y-103806927D01*
X187559500Y-103901690D01*
X187559500Y-103998310D01*
X187578350Y-104093073D01*
X187615325Y-104182339D01*
X187669004Y-104262675D01*
X187737325Y-104330996D01*
X187817661Y-104384675D01*
X187906927Y-104421650D01*
X188001690Y-104440500D01*
X188098310Y-104440500D01*
X188193073Y-104421650D01*
X188282339Y-104384675D01*
X188362675Y-104330996D01*
X188430996Y-104262675D01*
X188484675Y-104182339D01*
X188521650Y-104093073D01*
X188540500Y-103998310D01*
X188540500Y-103901690D01*
X188521650Y-103806927D01*
X188484675Y-103717661D01*
X188430996Y-103637325D01*
X188365500Y-103571829D01*
X188365500Y-102436400D01*
X188844979Y-102436400D01*
X188844979Y-104163600D01*
X188848657Y-104200944D01*
X188859550Y-104236854D01*
X188877239Y-104269948D01*
X188901045Y-104298955D01*
X188930052Y-104322761D01*
X188963146Y-104340450D01*
X188999056Y-104351343D01*
X189036400Y-104355021D01*
X190763600Y-104355021D01*
X190800944Y-104351343D01*
X190836854Y-104340450D01*
X190869948Y-104322761D01*
X190898955Y-104298955D01*
X190922761Y-104269948D01*
X190940450Y-104236854D01*
X190951343Y-104200944D01*
X190955021Y-104163600D01*
X190955021Y-103196180D01*
X191385900Y-103196180D01*
X191385900Y-103403820D01*
X191426409Y-103607470D01*
X191505869Y-103799303D01*
X191621227Y-103971949D01*
X191768051Y-104118773D01*
X191940697Y-104234131D01*
X192132530Y-104313591D01*
X192336180Y-104354100D01*
X192543820Y-104354100D01*
X192747470Y-104313591D01*
X192939303Y-104234131D01*
X193111949Y-104118773D01*
X193258773Y-103971949D01*
X193374131Y-103799303D01*
X193453591Y-103607470D01*
X193494100Y-103403820D01*
X193494100Y-103196180D01*
X193453591Y-102992530D01*
X193374131Y-102800697D01*
X193258773Y-102628051D01*
X193111949Y-102481227D01*
X192939303Y-102365869D01*
X192747470Y-102286409D01*
X192543820Y-102245900D01*
X192336180Y-102245900D01*
X192132530Y-102286409D01*
X191940697Y-102365869D01*
X191768051Y-102481227D01*
X191621227Y-102628051D01*
X191505869Y-102800697D01*
X191426409Y-102992530D01*
X191385900Y-103196180D01*
X190955021Y-103196180D01*
X190955021Y-102436400D01*
X190951343Y-102399056D01*
X190940450Y-102363146D01*
X190922761Y-102330052D01*
X190898955Y-102301045D01*
X190869948Y-102277239D01*
X190836854Y-102259550D01*
X190800944Y-102248657D01*
X190763600Y-102244979D01*
X189036400Y-102244979D01*
X188999056Y-102248657D01*
X188963146Y-102259550D01*
X188930052Y-102277239D01*
X188901045Y-102301045D01*
X188877239Y-102330052D01*
X188859550Y-102363146D01*
X188848657Y-102399056D01*
X188844979Y-102436400D01*
X188365500Y-102436400D01*
X188365498Y-100215494D01*
X188367024Y-100199999D01*
X188360933Y-100138150D01*
X188342893Y-100078678D01*
X188313596Y-100023869D01*
X188284046Y-99987862D01*
X188284040Y-99987856D01*
X188274169Y-99975828D01*
X188262140Y-99965956D01*
X188240500Y-99944316D01*
X188240500Y-99851690D01*
X188221650Y-99756927D01*
X188184675Y-99667661D01*
X188130996Y-99587325D01*
X188062675Y-99519004D01*
X187982339Y-99465325D01*
X187893073Y-99428350D01*
X187798310Y-99409500D01*
X187701690Y-99409500D01*
X187606927Y-99428350D01*
X187517661Y-99465325D01*
X187437325Y-99519004D01*
X187369004Y-99587325D01*
X187315325Y-99667661D01*
X187278350Y-99756927D01*
X187259500Y-99851690D01*
X186790500Y-99851690D01*
X186790500Y-96750000D01*
X186786840Y-96712835D01*
X186775999Y-96677099D01*
X186758395Y-96644164D01*
X186734704Y-96615296D01*
X186705836Y-96591605D01*
X186672901Y-96574001D01*
X186637165Y-96563160D01*
X186600000Y-96559500D01*
X182474121Y-96559500D01*
X185000454Y-94033167D01*
X185045884Y-93995884D01*
X185194654Y-93814606D01*
X185305200Y-93607789D01*
X185373274Y-93383379D01*
X185390500Y-93208482D01*
X185390500Y-93208481D01*
X185396260Y-93150000D01*
X185390500Y-93091518D01*
X185390500Y-92701690D01*
X186659500Y-92701690D01*
X186659500Y-92798310D01*
X186678350Y-92893073D01*
X186715325Y-92982339D01*
X186769004Y-93062675D01*
X186837325Y-93130996D01*
X186917661Y-93184675D01*
X187006927Y-93221650D01*
X187101690Y-93240500D01*
X187198310Y-93240500D01*
X187267522Y-93226732D01*
X190673268Y-96632478D01*
X190659500Y-96701690D01*
X190659500Y-96798310D01*
X190678350Y-96893073D01*
X190715325Y-96982339D01*
X190769004Y-97062675D01*
X190837325Y-97130996D01*
X190917661Y-97184675D01*
X191006927Y-97221650D01*
X191101690Y-97240500D01*
X191198310Y-97240500D01*
X191293073Y-97221650D01*
X191382339Y-97184675D01*
X191462675Y-97130996D01*
X191530996Y-97062675D01*
X191584675Y-96982339D01*
X191621650Y-96893073D01*
X191640500Y-96798310D01*
X191640500Y-96701690D01*
X191621650Y-96606927D01*
X191584675Y-96517661D01*
X191530996Y-96437325D01*
X191462675Y-96369004D01*
X191382339Y-96315325D01*
X191293073Y-96278350D01*
X191198310Y-96259500D01*
X191101690Y-96259500D01*
X191032478Y-96273268D01*
X187626732Y-92867522D01*
X187640500Y-92798310D01*
X187640500Y-92701690D01*
X187959500Y-92701690D01*
X187959500Y-92798310D01*
X187978350Y-92893073D01*
X188015325Y-92982339D01*
X188069004Y-93062675D01*
X188137325Y-93130996D01*
X188217661Y-93184675D01*
X188306927Y-93221650D01*
X188401690Y-93240500D01*
X188498310Y-93240500D01*
X188567522Y-93226732D01*
X191973268Y-96632478D01*
X191959500Y-96701690D01*
X191959500Y-96798310D01*
X191978350Y-96893073D01*
X192015325Y-96982339D01*
X192069004Y-97062675D01*
X192137325Y-97130996D01*
X192217661Y-97184675D01*
X192306927Y-97221650D01*
X192401690Y-97240500D01*
X192498310Y-97240500D01*
X192593073Y-97221650D01*
X192682339Y-97184675D01*
X192762675Y-97130996D01*
X192830996Y-97062675D01*
X192884675Y-96982339D01*
X192921650Y-96893073D01*
X192940500Y-96798310D01*
X192940500Y-96701690D01*
X192921650Y-96606927D01*
X192884675Y-96517661D01*
X192830996Y-96437325D01*
X192762675Y-96369004D01*
X192682339Y-96315325D01*
X192593073Y-96278350D01*
X192498310Y-96259500D01*
X192401690Y-96259500D01*
X192332478Y-96273268D01*
X188926732Y-92867522D01*
X188940500Y-92798310D01*
X188940500Y-92701690D01*
X188921650Y-92606927D01*
X188884675Y-92517661D01*
X188830996Y-92437325D01*
X188762675Y-92369004D01*
X188682339Y-92315325D01*
X188593073Y-92278350D01*
X188498310Y-92259500D01*
X188401690Y-92259500D01*
X188306927Y-92278350D01*
X188217661Y-92315325D01*
X188137325Y-92369004D01*
X188069004Y-92437325D01*
X188015325Y-92517661D01*
X187978350Y-92606927D01*
X187959500Y-92701690D01*
X187640500Y-92701690D01*
X187621650Y-92606927D01*
X187584675Y-92517661D01*
X187530996Y-92437325D01*
X187462675Y-92369004D01*
X187382339Y-92315325D01*
X187293073Y-92278350D01*
X187198310Y-92259500D01*
X187101690Y-92259500D01*
X187006927Y-92278350D01*
X186917661Y-92315325D01*
X186837325Y-92369004D01*
X186769004Y-92437325D01*
X186715325Y-92517661D01*
X186678350Y-92606927D01*
X186659500Y-92701690D01*
X185390500Y-92701690D01*
X185390500Y-92540500D01*
X185458482Y-92540500D01*
X185633379Y-92523274D01*
X185857789Y-92455200D01*
X186064606Y-92344654D01*
X186245884Y-92195884D01*
X186394654Y-92014606D01*
X186505200Y-91807789D01*
X186573274Y-91583379D01*
X186596260Y-91350000D01*
X186573274Y-91116621D01*
X186505200Y-90892211D01*
X186394654Y-90685394D01*
X186245884Y-90504116D01*
X186064606Y-90355346D01*
X185857789Y-90244800D01*
X185633379Y-90176726D01*
X185458482Y-90159500D01*
X184258482Y-90159500D01*
X184200000Y-90153740D01*
X184141518Y-90159500D01*
X182891518Y-90159500D01*
X182716621Y-90176726D01*
X182492211Y-90244800D01*
X182285394Y-90355346D01*
X182104116Y-90504116D01*
X181955346Y-90685394D01*
X181844800Y-90892211D01*
X181776726Y-91116621D01*
X181753740Y-91350000D01*
X181776726Y-91583379D01*
X181844800Y-91807789D01*
X181955346Y-92014606D01*
X182104116Y-92195884D01*
X182285394Y-92344654D01*
X182492211Y-92455200D01*
X182716621Y-92523274D01*
X182891518Y-92540500D01*
X183009500Y-92540500D01*
X183009500Y-92656879D01*
X173556880Y-102109500D01*
X157693121Y-102109500D01*
X154391421Y-98807801D01*
X154391421Y-96950000D01*
X154382939Y-96863883D01*
X154357820Y-96781075D01*
X154317028Y-96704760D01*
X154262132Y-96637868D01*
X154195240Y-96582972D01*
X154118925Y-96542180D01*
X154036117Y-96517061D01*
X153950000Y-96508579D01*
X152450000Y-96508579D01*
X152363883Y-96517061D01*
X152281075Y-96542180D01*
X152204760Y-96582972D01*
X152137868Y-96637868D01*
X152082972Y-96704760D01*
X152042180Y-96781075D01*
X152017061Y-96863883D01*
X152008579Y-96950000D01*
X152008579Y-99050000D01*
X152009500Y-99059351D01*
X152009500Y-99241521D01*
X152003740Y-99300000D01*
X149640500Y-99300000D01*
X149640500Y-95251690D01*
X159559500Y-95251690D01*
X159559500Y-95348310D01*
X159578350Y-95443073D01*
X159615325Y-95532339D01*
X159669004Y-95612675D01*
X159737325Y-95680996D01*
X159817661Y-95734675D01*
X159906927Y-95771650D01*
X160001690Y-95790500D01*
X160098310Y-95790500D01*
X160193073Y-95771650D01*
X160282339Y-95734675D01*
X160362675Y-95680996D01*
X160428171Y-95615500D01*
X164132919Y-95615500D01*
X164139288Y-95630875D01*
X164192967Y-95711211D01*
X164261288Y-95779532D01*
X164341624Y-95833211D01*
X164430890Y-95870186D01*
X164525653Y-95889036D01*
X164622273Y-95889036D01*
X164717036Y-95870186D01*
X164806302Y-95833211D01*
X164886638Y-95779532D01*
X164954959Y-95711211D01*
X165008638Y-95630875D01*
X165015007Y-95615500D01*
X169384518Y-95615500D01*
X169400000Y-95617025D01*
X169415482Y-95615500D01*
X169415493Y-95615500D01*
X169461849Y-95610934D01*
X169521321Y-95592894D01*
X169576130Y-95563597D01*
X169624171Y-95524171D01*
X169634051Y-95512132D01*
X171355685Y-93790500D01*
X171448310Y-93790500D01*
X171543073Y-93771650D01*
X171632339Y-93734675D01*
X171712675Y-93680996D01*
X171775000Y-93618671D01*
X171837325Y-93680996D01*
X171917661Y-93734675D01*
X172006927Y-93771650D01*
X172101690Y-93790500D01*
X172194317Y-93790500D01*
X175559500Y-97155685D01*
X175559500Y-97248310D01*
X175578350Y-97343073D01*
X175615325Y-97432339D01*
X175669004Y-97512675D01*
X175737325Y-97580996D01*
X175817661Y-97634675D01*
X175906927Y-97671650D01*
X176001690Y-97690500D01*
X176094316Y-97690500D01*
X176137863Y-97734047D01*
X176137868Y-97734051D01*
X176209500Y-97805683D01*
X176209500Y-97898310D01*
X176228350Y-97993073D01*
X176265325Y-98082339D01*
X176319004Y-98162675D01*
X176387325Y-98230996D01*
X176467661Y-98284675D01*
X176556927Y-98321650D01*
X176651690Y-98340500D01*
X176748310Y-98340500D01*
X176843073Y-98321650D01*
X176932339Y-98284675D01*
X177012675Y-98230996D01*
X177080996Y-98162675D01*
X177134675Y-98082339D01*
X177171650Y-97993073D01*
X177190500Y-97898310D01*
X177190500Y-97801690D01*
X177171650Y-97706927D01*
X177134675Y-97617661D01*
X177080996Y-97537325D01*
X177012675Y-97469004D01*
X176932339Y-97415325D01*
X176843073Y-97378350D01*
X176748310Y-97359500D01*
X176655683Y-97359500D01*
X176584051Y-97287868D01*
X176584047Y-97287863D01*
X176540500Y-97244316D01*
X176540500Y-97151690D01*
X176521650Y-97056927D01*
X176484675Y-96967661D01*
X176430996Y-96887325D01*
X176362675Y-96819004D01*
X176282339Y-96765325D01*
X176193073Y-96728350D01*
X176098310Y-96709500D01*
X176005685Y-96709500D01*
X172640500Y-93344317D01*
X172640500Y-93251690D01*
X172621650Y-93156927D01*
X172584675Y-93067661D01*
X172530996Y-92987325D01*
X172462675Y-92919004D01*
X172382339Y-92865325D01*
X172293073Y-92828350D01*
X172198310Y-92809500D01*
X172101690Y-92809500D01*
X172006927Y-92828350D01*
X171917661Y-92865325D01*
X171837325Y-92919004D01*
X171775000Y-92981329D01*
X171712675Y-92919004D01*
X171632339Y-92865325D01*
X171543073Y-92828350D01*
X171448310Y-92809500D01*
X171351690Y-92809500D01*
X171256927Y-92828350D01*
X171167661Y-92865325D01*
X171087325Y-92919004D01*
X171019004Y-92987325D01*
X170965325Y-93067661D01*
X170928350Y-93156927D01*
X170909500Y-93251690D01*
X170909500Y-93344315D01*
X169269317Y-94984500D01*
X164837190Y-94984500D01*
X164806302Y-94963861D01*
X164717036Y-94926886D01*
X164622273Y-94908036D01*
X164525653Y-94908036D01*
X164430890Y-94926886D01*
X164341624Y-94963861D01*
X164310736Y-94984500D01*
X160428171Y-94984500D01*
X160362675Y-94919004D01*
X160282339Y-94865325D01*
X160193073Y-94828350D01*
X160098310Y-94809500D01*
X160001690Y-94809500D01*
X159906927Y-94828350D01*
X159817661Y-94865325D01*
X159737325Y-94919004D01*
X159669004Y-94987325D01*
X159615325Y-95067661D01*
X159578350Y-95156927D01*
X159559500Y-95251690D01*
X149640500Y-95251690D01*
X149640500Y-93692520D01*
X152124500Y-93692520D01*
X152124500Y-93897480D01*
X152164485Y-94098503D01*
X152242920Y-94287862D01*
X152356791Y-94458280D01*
X152501720Y-94603209D01*
X152672138Y-94717080D01*
X152861497Y-94795515D01*
X153062520Y-94835500D01*
X153267480Y-94835500D01*
X153468503Y-94795515D01*
X153657862Y-94717080D01*
X153828280Y-94603209D01*
X153973209Y-94458280D01*
X154087080Y-94287862D01*
X154165515Y-94098503D01*
X154205500Y-93897480D01*
X154205500Y-93692520D01*
X154664500Y-93692520D01*
X154664500Y-93897480D01*
X154704485Y-94098503D01*
X154782920Y-94287862D01*
X154896791Y-94458280D01*
X155041720Y-94603209D01*
X155212138Y-94717080D01*
X155401497Y-94795515D01*
X155602520Y-94835500D01*
X155807480Y-94835500D01*
X156008503Y-94795515D01*
X156197862Y-94717080D01*
X156368280Y-94603209D01*
X156513209Y-94458280D01*
X156627080Y-94287862D01*
X156705515Y-94098503D01*
X156745500Y-93897480D01*
X156745500Y-93692520D01*
X156705515Y-93491497D01*
X156627080Y-93302138D01*
X156513209Y-93131720D01*
X156368280Y-92986791D01*
X156197862Y-92872920D01*
X156008503Y-92794485D01*
X155807480Y-92754500D01*
X155602520Y-92754500D01*
X155401497Y-92794485D01*
X155212138Y-92872920D01*
X155041720Y-92986791D01*
X154896791Y-93131720D01*
X154782920Y-93302138D01*
X154704485Y-93491497D01*
X154664500Y-93692520D01*
X154205500Y-93692520D01*
X154165515Y-93491497D01*
X154087080Y-93302138D01*
X153973209Y-93131720D01*
X153828280Y-92986791D01*
X153657862Y-92872920D01*
X153468503Y-92794485D01*
X153267480Y-92754500D01*
X153062520Y-92754500D01*
X152861497Y-92794485D01*
X152672138Y-92872920D01*
X152501720Y-92986791D01*
X152356791Y-93131720D01*
X152242920Y-93302138D01*
X152164485Y-93491497D01*
X152124500Y-93692520D01*
X149640500Y-93692520D01*
X149640500Y-91152520D01*
X152124500Y-91152520D01*
X152124500Y-91357480D01*
X152164485Y-91558503D01*
X152242920Y-91747862D01*
X152356791Y-91918280D01*
X152501720Y-92063209D01*
X152672138Y-92177080D01*
X152861497Y-92255515D01*
X153062520Y-92295500D01*
X153267480Y-92295500D01*
X153468503Y-92255515D01*
X153657862Y-92177080D01*
X153828280Y-92063209D01*
X153973209Y-91918280D01*
X154087080Y-91747862D01*
X154165515Y-91558503D01*
X154205500Y-91357480D01*
X154205500Y-91152520D01*
X154664500Y-91152520D01*
X154664500Y-91357480D01*
X154704485Y-91558503D01*
X154782920Y-91747862D01*
X154896791Y-91918280D01*
X155041720Y-92063209D01*
X155212138Y-92177080D01*
X155401497Y-92255515D01*
X155602520Y-92295500D01*
X155807480Y-92295500D01*
X156008503Y-92255515D01*
X156017737Y-92251690D01*
X170109500Y-92251690D01*
X170109500Y-92348310D01*
X170128350Y-92443073D01*
X170165325Y-92532339D01*
X170219004Y-92612675D01*
X170287325Y-92680996D01*
X170367661Y-92734675D01*
X170456927Y-92771650D01*
X170551690Y-92790500D01*
X170648310Y-92790500D01*
X170743073Y-92771650D01*
X170832339Y-92734675D01*
X170912675Y-92680996D01*
X170980996Y-92612675D01*
X171020202Y-92554000D01*
X172179798Y-92554000D01*
X172219004Y-92612675D01*
X172287325Y-92680996D01*
X172367661Y-92734675D01*
X172456927Y-92771650D01*
X172551690Y-92790500D01*
X172648310Y-92790500D01*
X172743073Y-92771650D01*
X172832339Y-92734675D01*
X172912675Y-92680996D01*
X172980996Y-92612675D01*
X173034675Y-92532339D01*
X173071650Y-92443073D01*
X173090500Y-92348310D01*
X173090500Y-92251690D01*
X173071650Y-92156927D01*
X173034675Y-92067661D01*
X172983651Y-91991298D01*
X173056927Y-92021650D01*
X173151690Y-92040500D01*
X173248310Y-92040500D01*
X173343073Y-92021650D01*
X173432339Y-91984675D01*
X173512675Y-91930996D01*
X173580996Y-91862675D01*
X173634675Y-91782339D01*
X173671650Y-91693073D01*
X173690500Y-91598310D01*
X173690500Y-91501690D01*
X173671650Y-91406927D01*
X173634675Y-91317661D01*
X173580996Y-91237325D01*
X173512675Y-91169004D01*
X173432339Y-91115325D01*
X173343073Y-91078350D01*
X173248310Y-91059500D01*
X173151690Y-91059500D01*
X173082478Y-91073267D01*
X172126732Y-90117522D01*
X172140500Y-90048310D01*
X172140500Y-89951690D01*
X172121650Y-89856927D01*
X172084675Y-89767661D01*
X172030996Y-89687325D01*
X171962675Y-89619004D01*
X171882339Y-89565325D01*
X171793073Y-89528350D01*
X171698310Y-89509500D01*
X171601690Y-89509500D01*
X171506927Y-89528350D01*
X171417661Y-89565325D01*
X171337325Y-89619004D01*
X171269004Y-89687325D01*
X171215325Y-89767661D01*
X171178350Y-89856927D01*
X171159500Y-89951690D01*
X171159500Y-90048310D01*
X171178350Y-90143073D01*
X171215325Y-90232339D01*
X171269004Y-90312675D01*
X171337325Y-90380996D01*
X171417661Y-90434675D01*
X171506927Y-90471650D01*
X171601690Y-90490500D01*
X171698310Y-90490500D01*
X171767522Y-90476732D01*
X172723267Y-91432478D01*
X172709500Y-91501690D01*
X172709500Y-91598310D01*
X172728350Y-91693073D01*
X172765325Y-91782339D01*
X172816349Y-91858702D01*
X172743073Y-91828350D01*
X172648310Y-91809500D01*
X172551690Y-91809500D01*
X172456927Y-91828350D01*
X172367661Y-91865325D01*
X172287325Y-91919004D01*
X172219004Y-91987325D01*
X172179798Y-92046000D01*
X171020202Y-92046000D01*
X170980996Y-91987325D01*
X170912675Y-91919004D01*
X170832339Y-91865325D01*
X170743073Y-91828350D01*
X170648310Y-91809500D01*
X170551690Y-91809500D01*
X170456927Y-91828350D01*
X170367661Y-91865325D01*
X170287325Y-91919004D01*
X170219004Y-91987325D01*
X170165325Y-92067661D01*
X170128350Y-92156927D01*
X170109500Y-92251690D01*
X156017737Y-92251690D01*
X156197862Y-92177080D01*
X156368280Y-92063209D01*
X156513209Y-91918280D01*
X156627080Y-91747862D01*
X156705515Y-91558503D01*
X156745500Y-91357480D01*
X156745500Y-91152520D01*
X156705515Y-90951497D01*
X156627080Y-90762138D01*
X156513209Y-90591720D01*
X156368280Y-90446791D01*
X156197862Y-90332920D01*
X156008503Y-90254485D01*
X155807480Y-90214500D01*
X155602520Y-90214500D01*
X155401497Y-90254485D01*
X155212138Y-90332920D01*
X155041720Y-90446791D01*
X154896791Y-90591720D01*
X154782920Y-90762138D01*
X154704485Y-90951497D01*
X154664500Y-91152520D01*
X154205500Y-91152520D01*
X154165515Y-90951497D01*
X154087080Y-90762138D01*
X153973209Y-90591720D01*
X153828280Y-90446791D01*
X153657862Y-90332920D01*
X153468503Y-90254485D01*
X153267480Y-90214500D01*
X153062520Y-90214500D01*
X152861497Y-90254485D01*
X152672138Y-90332920D01*
X152501720Y-90446791D01*
X152356791Y-90591720D01*
X152242920Y-90762138D01*
X152164485Y-90951497D01*
X152124500Y-91152520D01*
X149640500Y-91152520D01*
X149640500Y-89951690D01*
X160909500Y-89951690D01*
X160909500Y-90048310D01*
X160928350Y-90143073D01*
X160965325Y-90232339D01*
X161019004Y-90312675D01*
X161087325Y-90380996D01*
X161167661Y-90434675D01*
X161256927Y-90471650D01*
X161351690Y-90490500D01*
X161448310Y-90490500D01*
X161543073Y-90471650D01*
X161632339Y-90434675D01*
X161712675Y-90380996D01*
X161780996Y-90312675D01*
X161820202Y-90254000D01*
X168194790Y-90254000D01*
X169223267Y-91282478D01*
X169209500Y-91351690D01*
X169209500Y-91448310D01*
X169228350Y-91543073D01*
X169265325Y-91632339D01*
X169319004Y-91712675D01*
X169387325Y-91780996D01*
X169467661Y-91834675D01*
X169556927Y-91871650D01*
X169651690Y-91890500D01*
X169748310Y-91890500D01*
X169843073Y-91871650D01*
X169932339Y-91834675D01*
X170012675Y-91780996D01*
X170080996Y-91712675D01*
X170134675Y-91632339D01*
X170171650Y-91543073D01*
X170190500Y-91448310D01*
X170190500Y-91351690D01*
X170171650Y-91256927D01*
X170134675Y-91167661D01*
X170080996Y-91087325D01*
X170012675Y-91019004D01*
X169932339Y-90965325D01*
X169843073Y-90928350D01*
X169748310Y-90909500D01*
X169651690Y-90909500D01*
X169582478Y-90923267D01*
X168488418Y-89829208D01*
X168480473Y-89819527D01*
X168470791Y-89811581D01*
X168470788Y-89811578D01*
X168458323Y-89801349D01*
X168441797Y-89787786D01*
X168397672Y-89764200D01*
X168349793Y-89749676D01*
X168312469Y-89746000D01*
X168312458Y-89746000D01*
X168300000Y-89744773D01*
X168287542Y-89746000D01*
X161820202Y-89746000D01*
X161780996Y-89687325D01*
X161712675Y-89619004D01*
X161632339Y-89565325D01*
X161543073Y-89528350D01*
X161448310Y-89509500D01*
X161351690Y-89509500D01*
X161256927Y-89528350D01*
X161167661Y-89565325D01*
X161087325Y-89619004D01*
X161019004Y-89687325D01*
X160965325Y-89767661D01*
X160928350Y-89856927D01*
X160909500Y-89951690D01*
X149640500Y-89951690D01*
X149640500Y-88612520D01*
X152124500Y-88612520D01*
X152124500Y-88817480D01*
X152164485Y-89018503D01*
X152242920Y-89207862D01*
X152356791Y-89378280D01*
X152501720Y-89523209D01*
X152672138Y-89637080D01*
X152861497Y-89715515D01*
X153062520Y-89755500D01*
X153267480Y-89755500D01*
X153468503Y-89715515D01*
X153657862Y-89637080D01*
X153828280Y-89523209D01*
X153973209Y-89378280D01*
X154087080Y-89207862D01*
X154165515Y-89018503D01*
X154205500Y-88817480D01*
X154205500Y-88612520D01*
X154664500Y-88612520D01*
X154664500Y-88817480D01*
X154704485Y-89018503D01*
X154782920Y-89207862D01*
X154896791Y-89378280D01*
X155041720Y-89523209D01*
X155212138Y-89637080D01*
X155401497Y-89715515D01*
X155602520Y-89755500D01*
X155807480Y-89755500D01*
X156008503Y-89715515D01*
X156197862Y-89637080D01*
X156368280Y-89523209D01*
X156513209Y-89378280D01*
X156627080Y-89207862D01*
X156705515Y-89018503D01*
X156745500Y-88817480D01*
X156745500Y-88651690D01*
X162059500Y-88651690D01*
X162059500Y-88748310D01*
X162078350Y-88843073D01*
X162115325Y-88932339D01*
X162169004Y-89012675D01*
X162237325Y-89080996D01*
X162317661Y-89134675D01*
X162406927Y-89171650D01*
X162501690Y-89190500D01*
X162598310Y-89190500D01*
X162693073Y-89171650D01*
X162782339Y-89134675D01*
X162862675Y-89080996D01*
X162930996Y-89012675D01*
X162970202Y-88954000D01*
X168294790Y-88954000D01*
X169511581Y-90170791D01*
X169519527Y-90180473D01*
X169529209Y-90188419D01*
X169529212Y-90188422D01*
X169558203Y-90212215D01*
X169586958Y-90227585D01*
X169602328Y-90235800D01*
X169621530Y-90241625D01*
X169669004Y-90312675D01*
X169737325Y-90380996D01*
X169817661Y-90434675D01*
X169906927Y-90471650D01*
X170001690Y-90490500D01*
X170098310Y-90490500D01*
X170193073Y-90471650D01*
X170282339Y-90434675D01*
X170362675Y-90380996D01*
X170430996Y-90312675D01*
X170484675Y-90232339D01*
X170521650Y-90143073D01*
X170540500Y-90048310D01*
X170540500Y-89951690D01*
X170521650Y-89856927D01*
X170484675Y-89767661D01*
X170430996Y-89687325D01*
X170362675Y-89619004D01*
X170282339Y-89565325D01*
X170193073Y-89528350D01*
X170098310Y-89509500D01*
X170001690Y-89509500D01*
X169906927Y-89528350D01*
X169817661Y-89565325D01*
X169737325Y-89619004D01*
X169707770Y-89648560D01*
X169360900Y-89301690D01*
X174909500Y-89301690D01*
X174909500Y-89398310D01*
X174928350Y-89493073D01*
X174965325Y-89582339D01*
X175019004Y-89662675D01*
X175087325Y-89730996D01*
X175167661Y-89784675D01*
X175256927Y-89821650D01*
X175351690Y-89840500D01*
X175448310Y-89840500D01*
X175517522Y-89826732D01*
X176511581Y-90820791D01*
X176519527Y-90830473D01*
X176529209Y-90838419D01*
X176529212Y-90838422D01*
X176558203Y-90862215D01*
X176586958Y-90877585D01*
X176602328Y-90885800D01*
X176650207Y-90900324D01*
X176687531Y-90904000D01*
X176687542Y-90904000D01*
X176700000Y-90905227D01*
X176712458Y-90904000D01*
X178729798Y-90904000D01*
X178769004Y-90962675D01*
X178837325Y-91030996D01*
X178917661Y-91084675D01*
X179006927Y-91121650D01*
X179101690Y-91140500D01*
X179198310Y-91140500D01*
X179293073Y-91121650D01*
X179382339Y-91084675D01*
X179462675Y-91030996D01*
X179530996Y-90962675D01*
X179584675Y-90882339D01*
X179621650Y-90793073D01*
X179640500Y-90698310D01*
X179640500Y-90601690D01*
X179621650Y-90506927D01*
X179584675Y-90417661D01*
X179530996Y-90337325D01*
X179462675Y-90269004D01*
X179382339Y-90215325D01*
X179293073Y-90178350D01*
X179198310Y-90159500D01*
X179101690Y-90159500D01*
X179006927Y-90178350D01*
X178917661Y-90215325D01*
X178837325Y-90269004D01*
X178769004Y-90337325D01*
X178729798Y-90396000D01*
X176805210Y-90396000D01*
X175876732Y-89467522D01*
X175890500Y-89398310D01*
X175890500Y-89301690D01*
X175871650Y-89206927D01*
X175868781Y-89200000D01*
X191306159Y-89200000D01*
X191319491Y-89335362D01*
X191358975Y-89465521D01*
X191423092Y-89585477D01*
X191509380Y-89690620D01*
X191614523Y-89776908D01*
X191734479Y-89841025D01*
X191864638Y-89880509D01*
X191966078Y-89890500D01*
X196159500Y-89890500D01*
X196159500Y-117000000D01*
X196163219Y-117037458D01*
X196174115Y-117073177D01*
X196191771Y-117106084D01*
X196215508Y-117134915D01*
X196244412Y-117158561D01*
X196277375Y-117176113D01*
X196313128Y-117186898D01*
X196350299Y-117190500D01*
X197700299Y-117188383D01*
X197737165Y-117184723D01*
X197772901Y-117173882D01*
X197805836Y-117156278D01*
X197834704Y-117132587D01*
X197858395Y-117103719D01*
X197875999Y-117070784D01*
X197886840Y-117035048D01*
X197890500Y-116997883D01*
X197890500Y-107100000D01*
X212736500Y-107100000D01*
X212736500Y-118100000D01*
X212737720Y-118112388D01*
X212741334Y-118124300D01*
X212747202Y-118135279D01*
X212755099Y-118144901D01*
X212764721Y-118152798D01*
X212775700Y-118158666D01*
X212787612Y-118162280D01*
X212800000Y-118163500D01*
X238600000Y-118163500D01*
X238612388Y-118162280D01*
X238624300Y-118158666D01*
X238635279Y-118152798D01*
X238644901Y-118144901D01*
X238652798Y-118135279D01*
X238658666Y-118124300D01*
X238662280Y-118112388D01*
X238663500Y-118100000D01*
X238663500Y-108500000D01*
X250403740Y-108500000D01*
X250426726Y-108733379D01*
X250494800Y-108957789D01*
X250605346Y-109164606D01*
X250754116Y-109345884D01*
X250935394Y-109494654D01*
X251142211Y-109605200D01*
X251366621Y-109673274D01*
X251541518Y-109690500D01*
X252258482Y-109690500D01*
X252433379Y-109673274D01*
X252657789Y-109605200D01*
X252864606Y-109494654D01*
X253045884Y-109345884D01*
X253194654Y-109164606D01*
X253305200Y-108957789D01*
X253373274Y-108733379D01*
X253396260Y-108500000D01*
X253373274Y-108266621D01*
X253305200Y-108042211D01*
X253194654Y-107835394D01*
X253045884Y-107654116D01*
X252864606Y-107505346D01*
X252657789Y-107394800D01*
X252433379Y-107326726D01*
X252258482Y-107309500D01*
X251541518Y-107309500D01*
X251366621Y-107326726D01*
X251142211Y-107394800D01*
X250935394Y-107505346D01*
X250754116Y-107654116D01*
X250605346Y-107835394D01*
X250494800Y-108042211D01*
X250426726Y-108266621D01*
X250403740Y-108500000D01*
X238663500Y-108500000D01*
X238663500Y-107100000D01*
X238662280Y-107087612D01*
X238658666Y-107075700D01*
X238652798Y-107064721D01*
X238644901Y-107055099D01*
X238635279Y-107047202D01*
X238624300Y-107041334D01*
X238612388Y-107037720D01*
X238600000Y-107036500D01*
X212800000Y-107036500D01*
X212787612Y-107037720D01*
X212775700Y-107041334D01*
X212764721Y-107047202D01*
X212755099Y-107055099D01*
X212747202Y-107064721D01*
X212741334Y-107075700D01*
X212737720Y-107087612D01*
X212736500Y-107100000D01*
X197890500Y-107100000D01*
X197890500Y-105000000D01*
X250403740Y-105000000D01*
X250426726Y-105233379D01*
X250494800Y-105457789D01*
X250605346Y-105664606D01*
X250754116Y-105845884D01*
X250935394Y-105994654D01*
X251142211Y-106105200D01*
X251366621Y-106173274D01*
X251541518Y-106190500D01*
X252258482Y-106190500D01*
X252433379Y-106173274D01*
X252657789Y-106105200D01*
X252864606Y-105994654D01*
X253045884Y-105845884D01*
X253194654Y-105664606D01*
X253305200Y-105457789D01*
X253373274Y-105233379D01*
X253396260Y-105000000D01*
X253373274Y-104766621D01*
X253305200Y-104542211D01*
X253194654Y-104335394D01*
X253045884Y-104154116D01*
X252864606Y-104005346D01*
X252657789Y-103894800D01*
X252433379Y-103826726D01*
X252258482Y-103809500D01*
X251541518Y-103809500D01*
X251366621Y-103826726D01*
X251142211Y-103894800D01*
X250935394Y-104005346D01*
X250754116Y-104154116D01*
X250605346Y-104335394D01*
X250494800Y-104542211D01*
X250426726Y-104766621D01*
X250403740Y-105000000D01*
X197890500Y-105000000D01*
X197890500Y-91700000D01*
X212836500Y-91700000D01*
X212836500Y-102700000D01*
X212837720Y-102712388D01*
X212841334Y-102724300D01*
X212847202Y-102735279D01*
X212855099Y-102744901D01*
X212864721Y-102752798D01*
X212875700Y-102758666D01*
X212887612Y-102762280D01*
X212900000Y-102763500D01*
X238600000Y-102763500D01*
X238612388Y-102762280D01*
X238624300Y-102758666D01*
X238635279Y-102752798D01*
X238644901Y-102744901D01*
X238652798Y-102735279D01*
X238658666Y-102724300D01*
X238662280Y-102712388D01*
X238663500Y-102700000D01*
X238663500Y-101500000D01*
X250403740Y-101500000D01*
X250426726Y-101733379D01*
X250494800Y-101957789D01*
X250605346Y-102164606D01*
X250754116Y-102345884D01*
X250935394Y-102494654D01*
X251142211Y-102605200D01*
X251366621Y-102673274D01*
X251541518Y-102690500D01*
X252258482Y-102690500D01*
X252433379Y-102673274D01*
X252657789Y-102605200D01*
X252864606Y-102494654D01*
X253045884Y-102345884D01*
X253194654Y-102164606D01*
X253305200Y-101957789D01*
X253373274Y-101733379D01*
X253396260Y-101500000D01*
X253373274Y-101266621D01*
X253305200Y-101042211D01*
X253194654Y-100835394D01*
X253045884Y-100654116D01*
X252864606Y-100505346D01*
X252657789Y-100394800D01*
X252433379Y-100326726D01*
X252258482Y-100309500D01*
X251541518Y-100309500D01*
X251366621Y-100326726D01*
X251142211Y-100394800D01*
X250935394Y-100505346D01*
X250754116Y-100654116D01*
X250605346Y-100835394D01*
X250494800Y-101042211D01*
X250426726Y-101266621D01*
X250403740Y-101500000D01*
X238663500Y-101500000D01*
X238663500Y-98000000D01*
X250403740Y-98000000D01*
X250426726Y-98233379D01*
X250494800Y-98457789D01*
X250605346Y-98664606D01*
X250754116Y-98845884D01*
X250935394Y-98994654D01*
X251142211Y-99105200D01*
X251366621Y-99173274D01*
X251541518Y-99190500D01*
X252258482Y-99190500D01*
X252433379Y-99173274D01*
X252657789Y-99105200D01*
X252864606Y-98994654D01*
X253045884Y-98845884D01*
X253194654Y-98664606D01*
X253305200Y-98457789D01*
X253373274Y-98233379D01*
X253396260Y-98000000D01*
X253373274Y-97766621D01*
X253305200Y-97542211D01*
X253194654Y-97335394D01*
X253045884Y-97154116D01*
X252864606Y-97005346D01*
X252657789Y-96894800D01*
X252433379Y-96826726D01*
X252258482Y-96809500D01*
X251541518Y-96809500D01*
X251366621Y-96826726D01*
X251142211Y-96894800D01*
X250935394Y-97005346D01*
X250754116Y-97154116D01*
X250605346Y-97335394D01*
X250494800Y-97542211D01*
X250426726Y-97766621D01*
X250403740Y-98000000D01*
X238663500Y-98000000D01*
X238663500Y-91700000D01*
X238662280Y-91687612D01*
X238658666Y-91675700D01*
X238652798Y-91664721D01*
X238644901Y-91655099D01*
X238635279Y-91647202D01*
X238624300Y-91641334D01*
X238612388Y-91637720D01*
X238600000Y-91636500D01*
X212900000Y-91636500D01*
X212887612Y-91637720D01*
X212875700Y-91641334D01*
X212864721Y-91647202D01*
X212855099Y-91655099D01*
X212847202Y-91664721D01*
X212841334Y-91675700D01*
X212837720Y-91687612D01*
X212836500Y-91700000D01*
X197890500Y-91700000D01*
X197890500Y-78900000D01*
X212736500Y-78900000D01*
X212736500Y-89900000D01*
X212737720Y-89912388D01*
X212741334Y-89924300D01*
X212747202Y-89935279D01*
X212755099Y-89944901D01*
X212764721Y-89952798D01*
X212775700Y-89958666D01*
X212787612Y-89962280D01*
X212800000Y-89963500D01*
X238600000Y-89963500D01*
X238612388Y-89962280D01*
X238624300Y-89958666D01*
X238635279Y-89952798D01*
X238644901Y-89944901D01*
X238652798Y-89935279D01*
X238658666Y-89924300D01*
X238662280Y-89912388D01*
X238663500Y-89900000D01*
X238663500Y-80300000D01*
X250403740Y-80300000D01*
X250426726Y-80533379D01*
X250494800Y-80757789D01*
X250605346Y-80964606D01*
X250754116Y-81145884D01*
X250935394Y-81294654D01*
X251142211Y-81405200D01*
X251366621Y-81473274D01*
X251541518Y-81490500D01*
X252258482Y-81490500D01*
X252433379Y-81473274D01*
X252657789Y-81405200D01*
X252864606Y-81294654D01*
X253045884Y-81145884D01*
X253194654Y-80964606D01*
X253305200Y-80757789D01*
X253373274Y-80533379D01*
X253396260Y-80300000D01*
X253373274Y-80066621D01*
X253305200Y-79842211D01*
X253194654Y-79635394D01*
X253045884Y-79454116D01*
X252864606Y-79305346D01*
X252657789Y-79194800D01*
X252433379Y-79126726D01*
X252258482Y-79109500D01*
X251541518Y-79109500D01*
X251366621Y-79126726D01*
X251142211Y-79194800D01*
X250935394Y-79305346D01*
X250754116Y-79454116D01*
X250605346Y-79635394D01*
X250494800Y-79842211D01*
X250426726Y-80066621D01*
X250403740Y-80300000D01*
X238663500Y-80300000D01*
X238663500Y-78900000D01*
X238662280Y-78887612D01*
X238658666Y-78875700D01*
X238652798Y-78864721D01*
X238644901Y-78855099D01*
X238635279Y-78847202D01*
X238624300Y-78841334D01*
X238612388Y-78837720D01*
X238600000Y-78836500D01*
X212800000Y-78836500D01*
X212787612Y-78837720D01*
X212775700Y-78841334D01*
X212764721Y-78847202D01*
X212755099Y-78855099D01*
X212747202Y-78864721D01*
X212741334Y-78875700D01*
X212737720Y-78887612D01*
X212736500Y-78900000D01*
X197890500Y-78900000D01*
X197890500Y-76800000D01*
X250403740Y-76800000D01*
X250426726Y-77033379D01*
X250494800Y-77257789D01*
X250605346Y-77464606D01*
X250754116Y-77645884D01*
X250935394Y-77794654D01*
X251142211Y-77905200D01*
X251366621Y-77973274D01*
X251541518Y-77990500D01*
X252258482Y-77990500D01*
X252433379Y-77973274D01*
X252657789Y-77905200D01*
X252864606Y-77794654D01*
X253045884Y-77645884D01*
X253194654Y-77464606D01*
X253305200Y-77257789D01*
X253373274Y-77033379D01*
X253396260Y-76800000D01*
X253373274Y-76566621D01*
X253305200Y-76342211D01*
X253194654Y-76135394D01*
X253045884Y-75954116D01*
X252864606Y-75805346D01*
X252657789Y-75694800D01*
X252433379Y-75626726D01*
X252258482Y-75609500D01*
X251541518Y-75609500D01*
X251366621Y-75626726D01*
X251142211Y-75694800D01*
X250935394Y-75805346D01*
X250754116Y-75954116D01*
X250605346Y-76135394D01*
X250494800Y-76342211D01*
X250426726Y-76566621D01*
X250403740Y-76800000D01*
X197890500Y-76800000D01*
X197890500Y-66602117D01*
X197886781Y-66564659D01*
X197875885Y-66528940D01*
X197858229Y-66496033D01*
X197834492Y-66467202D01*
X197805588Y-66443556D01*
X197772625Y-66426004D01*
X197736872Y-66415219D01*
X197699701Y-66411617D01*
X196349701Y-66413734D01*
X196312835Y-66417394D01*
X196277099Y-66428235D01*
X196244164Y-66445839D01*
X196215296Y-66469530D01*
X196191605Y-66498398D01*
X196174001Y-66531333D01*
X196163160Y-66567069D01*
X196159500Y-66604234D01*
X196159500Y-88509500D01*
X191966078Y-88509500D01*
X191864638Y-88519491D01*
X191734479Y-88558975D01*
X191614523Y-88623092D01*
X191509380Y-88709380D01*
X191423092Y-88814523D01*
X191358975Y-88934479D01*
X191319491Y-89064638D01*
X191306159Y-89200000D01*
X175868781Y-89200000D01*
X175834675Y-89117661D01*
X175780996Y-89037325D01*
X175712675Y-88969004D01*
X175632339Y-88915325D01*
X175543073Y-88878350D01*
X175448310Y-88859500D01*
X175351690Y-88859500D01*
X175256927Y-88878350D01*
X175167661Y-88915325D01*
X175087325Y-88969004D01*
X175019004Y-89037325D01*
X174965325Y-89117661D01*
X174928350Y-89206927D01*
X174909500Y-89301690D01*
X169360900Y-89301690D01*
X168588419Y-88529209D01*
X168580473Y-88519527D01*
X168570791Y-88511581D01*
X168570788Y-88511578D01*
X168558323Y-88501349D01*
X168541797Y-88487786D01*
X168497672Y-88464200D01*
X168449793Y-88449676D01*
X168412469Y-88446000D01*
X168412458Y-88446000D01*
X168400000Y-88444773D01*
X168387542Y-88446000D01*
X162970202Y-88446000D01*
X162930996Y-88387325D01*
X162862675Y-88319004D01*
X162782339Y-88265325D01*
X162693073Y-88228350D01*
X162598310Y-88209500D01*
X162501690Y-88209500D01*
X162406927Y-88228350D01*
X162317661Y-88265325D01*
X162237325Y-88319004D01*
X162169004Y-88387325D01*
X162115325Y-88467661D01*
X162078350Y-88556927D01*
X162059500Y-88651690D01*
X156745500Y-88651690D01*
X156745500Y-88612520D01*
X156705515Y-88411497D01*
X156627080Y-88222138D01*
X156513209Y-88051720D01*
X156368280Y-87906791D01*
X156197862Y-87792920D01*
X156008503Y-87714485D01*
X155807480Y-87674500D01*
X155602520Y-87674500D01*
X155401497Y-87714485D01*
X155212138Y-87792920D01*
X155041720Y-87906791D01*
X154896791Y-88051720D01*
X154782920Y-88222138D01*
X154704485Y-88411497D01*
X154664500Y-88612520D01*
X154205500Y-88612520D01*
X154165515Y-88411497D01*
X154087080Y-88222138D01*
X153973209Y-88051720D01*
X153828280Y-87906791D01*
X153657862Y-87792920D01*
X153468503Y-87714485D01*
X153267480Y-87674500D01*
X153062520Y-87674500D01*
X152861497Y-87714485D01*
X152672138Y-87792920D01*
X152501720Y-87906791D01*
X152356791Y-88051720D01*
X152242920Y-88222138D01*
X152164485Y-88411497D01*
X152124500Y-88612520D01*
X149640500Y-88612520D01*
X149640500Y-85325000D01*
X154663579Y-85325000D01*
X154663579Y-87025000D01*
X154667257Y-87062344D01*
X154678150Y-87098254D01*
X154695839Y-87131348D01*
X154719645Y-87160355D01*
X154748652Y-87184161D01*
X154781746Y-87201850D01*
X154817656Y-87212743D01*
X154855000Y-87216421D01*
X156555000Y-87216421D01*
X156592344Y-87212743D01*
X156628254Y-87201850D01*
X156661348Y-87184161D01*
X156690355Y-87160355D01*
X156714161Y-87131348D01*
X156731850Y-87098254D01*
X156742743Y-87062344D01*
X156746421Y-87025000D01*
X156746421Y-85325000D01*
X156742743Y-85287656D01*
X156731850Y-85251746D01*
X156714161Y-85218652D01*
X156690355Y-85189645D01*
X156661348Y-85165839D01*
X156628254Y-85148150D01*
X156592344Y-85137257D01*
X156555000Y-85133579D01*
X154855000Y-85133579D01*
X154817656Y-85137257D01*
X154781746Y-85148150D01*
X154748652Y-85165839D01*
X154719645Y-85189645D01*
X154695839Y-85218652D01*
X154678150Y-85251746D01*
X154667257Y-85287656D01*
X154663579Y-85325000D01*
X149640500Y-85325000D01*
X149640500Y-85001690D01*
X172209500Y-85001690D01*
X172209500Y-85098310D01*
X172228350Y-85193073D01*
X172265325Y-85282339D01*
X172319004Y-85362675D01*
X172387325Y-85430996D01*
X172467661Y-85484675D01*
X172556927Y-85521650D01*
X172651690Y-85540500D01*
X172748310Y-85540500D01*
X172817522Y-85526732D01*
X176111586Y-88820797D01*
X176119527Y-88830473D01*
X176129203Y-88838414D01*
X176129211Y-88838422D01*
X176154896Y-88859500D01*
X176158203Y-88862214D01*
X176202328Y-88885800D01*
X176250207Y-88900324D01*
X176287531Y-88904000D01*
X176287542Y-88904000D01*
X176300000Y-88905227D01*
X176312458Y-88904000D01*
X179079798Y-88904000D01*
X179119004Y-88962675D01*
X179187325Y-89030996D01*
X179267661Y-89084675D01*
X179356927Y-89121650D01*
X179451690Y-89140500D01*
X179548310Y-89140500D01*
X179643073Y-89121650D01*
X179732339Y-89084675D01*
X179812675Y-89030996D01*
X179880996Y-88962675D01*
X179934675Y-88882339D01*
X179971650Y-88793073D01*
X179990500Y-88698310D01*
X179990500Y-88601690D01*
X179971650Y-88506927D01*
X179934675Y-88417661D01*
X179880996Y-88337325D01*
X179812675Y-88269004D01*
X179732339Y-88215325D01*
X179643073Y-88178350D01*
X179548310Y-88159500D01*
X179451690Y-88159500D01*
X179356927Y-88178350D01*
X179267661Y-88215325D01*
X179187325Y-88269004D01*
X179119004Y-88337325D01*
X179079798Y-88396000D01*
X176405211Y-88396000D01*
X173176732Y-85167522D01*
X173190500Y-85098310D01*
X173190500Y-85001690D01*
X173171650Y-84906927D01*
X173134675Y-84817661D01*
X173080996Y-84737325D01*
X173012675Y-84669004D01*
X172932339Y-84615325D01*
X172843073Y-84578350D01*
X172748310Y-84559500D01*
X172651690Y-84559500D01*
X172556927Y-84578350D01*
X172467661Y-84615325D01*
X172387325Y-84669004D01*
X172319004Y-84737325D01*
X172265325Y-84817661D01*
X172228350Y-84906927D01*
X172209500Y-85001690D01*
X149640500Y-85001690D01*
X149640500Y-65150000D01*
X149636840Y-65112835D01*
X149625999Y-65077099D01*
X149608395Y-65044164D01*
X149584704Y-65015296D01*
X149555836Y-64991605D01*
X149522901Y-64974001D01*
X149487165Y-64963160D01*
X149450000Y-64959500D01*
X148150000Y-64959500D01*
X148112835Y-64963160D01*
X148077099Y-64974001D01*
X148044164Y-64991605D01*
X148015296Y-65015296D01*
X147991605Y-65044164D01*
X147974001Y-65077099D01*
X147963160Y-65112835D01*
X147959500Y-65150000D01*
X147959500Y-65841282D01*
X147944500Y-65916690D01*
X133063500Y-65916690D01*
X133063500Y-63450000D01*
X133062280Y-63437612D01*
X133058666Y-63425700D01*
X133052798Y-63414721D01*
X133044901Y-63405099D01*
X133035279Y-63397202D01*
X133024300Y-63391334D01*
X133012388Y-63387720D01*
X133000000Y-63386500D01*
X107200000Y-63386500D01*
X107187612Y-63387720D01*
X107175700Y-63391334D01*
X107164721Y-63397202D01*
X107155099Y-63405099D01*
X107147202Y-63414721D01*
X107141334Y-63425700D01*
X107137720Y-63437612D01*
X107136500Y-63450000D01*
X89163500Y-63450000D01*
X89163500Y-62215500D01*
X150196500Y-62215500D01*
X150196500Y-84160000D01*
G36*
X149386500Y-114886500D02*
G01*
X148213500Y-114886500D01*
X148213500Y-65213500D01*
X149386500Y-65213500D01*
X149386500Y-114886500D01*
G37*
X149386500Y-114886500D02*
X148213500Y-114886500D01*
X148213500Y-65213500D01*
X149386500Y-65213500D01*
X149386500Y-114886500D01*
G36*
X197636500Y-69537251D02*
G01*
X197628350Y-69556927D01*
X197609500Y-69651690D01*
X197609500Y-69748310D01*
X197628350Y-69843073D01*
X197636500Y-69862749D01*
X197636500Y-70237251D01*
X197628350Y-70256927D01*
X197609500Y-70351690D01*
X197609500Y-70448310D01*
X197628350Y-70543073D01*
X197636500Y-70562749D01*
X197636500Y-97737251D01*
X197628350Y-97756927D01*
X197609500Y-97851690D01*
X197609500Y-97948310D01*
X197628350Y-98043073D01*
X197636500Y-98062749D01*
X197636500Y-98437251D01*
X197628350Y-98456927D01*
X197609500Y-98551690D01*
X197609500Y-98648310D01*
X197628350Y-98743073D01*
X197636500Y-98762749D01*
X197636500Y-116934482D01*
X196413500Y-116936400D01*
X196413500Y-66667635D01*
X197636500Y-66665717D01*
X197636500Y-69537251D01*
G37*
X197636500Y-69537251D02*
X197628350Y-69556927D01*
X197609500Y-69651690D01*
X197609500Y-69748310D01*
X197628350Y-69843073D01*
X197636500Y-69862749D01*
X197636500Y-70237251D01*
X197628350Y-70256927D01*
X197609500Y-70351690D01*
X197609500Y-70448310D01*
X197628350Y-70543073D01*
X197636500Y-70562749D01*
X197636500Y-97737251D01*
X197628350Y-97756927D01*
X197609500Y-97851690D01*
X197609500Y-97948310D01*
X197628350Y-98043073D01*
X197636500Y-98062749D01*
X197636500Y-98437251D01*
X197628350Y-98456927D01*
X197609500Y-98551690D01*
X197609500Y-98648310D01*
X197628350Y-98743073D01*
X197636500Y-98762749D01*
X197636500Y-116934482D01*
X196413500Y-116936400D01*
X196413500Y-66667635D01*
X197636500Y-66665717D01*
X197636500Y-69537251D01*
G36*
X186536500Y-108536500D02*
G01*
X172563500Y-108536500D01*
X172563500Y-105363500D01*
X173733919Y-105363500D01*
X173746307Y-105362280D01*
X173758219Y-105358666D01*
X173769198Y-105352798D01*
X173778909Y-105344812D01*
X182276376Y-96813500D01*
X186536500Y-96813500D01*
X186536500Y-108536500D01*
G37*
X186536500Y-108536500D02*
X172563500Y-108536500D01*
X172563500Y-105363500D01*
X173733919Y-105363500D01*
X173746307Y-105362280D01*
X173758219Y-105358666D01*
X173769198Y-105352798D01*
X173778909Y-105344812D01*
X182276376Y-96813500D01*
X186536500Y-96813500D01*
X186536500Y-108536500D01*
M02*
