G04 #@! TF.GenerationSoftware,KiCad,Pcbnew,5.1.5*
G04 #@! TF.CreationDate,2020-04-05T15:42:04+02:00*
G04 #@! TF.ProjectId,HB-LC-DimPWM-PCB,48422d4c-432d-4446-996d-50574d2d5043,rev?*
G04 #@! TF.SameCoordinates,Original*
G04 #@! TF.FileFunction,Soldermask,Bot*
G04 #@! TF.FilePolarity,Negative*
%FSLAX46Y46*%
G04 Gerber Fmt 4.6, Leading zero omitted, Abs format (unit mm)*
G04 Created by KiCad (PCBNEW 5.1.5) date 2020-04-05 15:42:04*
%MOMM*%
%LPD*%
G04 APERTURE LIST*
%ADD10C,1.152000*%
%ADD11O,2.000000X2.600000*%
%ADD12C,0.100000*%
%ADD13O,2.600000X2.000000*%
%ADD14C,3.200000*%
%ADD15C,1.700000*%
%ADD16R,1.700000X1.700000*%
%ADD17R,1.727200X1.727200*%
%ADD18O,1.727200X1.727200*%
G04 APERTURE END LIST*
D10*
X260000000Y-63300000D03*
X85900000Y-118300000D03*
D11*
X156700000Y-98000000D03*
D12*
G36*
X153974504Y-96701204D02*
G01*
X153998773Y-96704804D01*
X154022571Y-96710765D01*
X154045671Y-96719030D01*
X154067849Y-96729520D01*
X154088893Y-96742133D01*
X154108598Y-96756747D01*
X154126777Y-96773223D01*
X154143253Y-96791402D01*
X154157867Y-96811107D01*
X154170480Y-96832151D01*
X154180970Y-96854329D01*
X154189235Y-96877429D01*
X154195196Y-96901227D01*
X154198796Y-96925496D01*
X154200000Y-96950000D01*
X154200000Y-99050000D01*
X154198796Y-99074504D01*
X154195196Y-99098773D01*
X154189235Y-99122571D01*
X154180970Y-99145671D01*
X154170480Y-99167849D01*
X154157867Y-99188893D01*
X154143253Y-99208598D01*
X154126777Y-99226777D01*
X154108598Y-99243253D01*
X154088893Y-99257867D01*
X154067849Y-99270480D01*
X154045671Y-99280970D01*
X154022571Y-99289235D01*
X153998773Y-99295196D01*
X153974504Y-99298796D01*
X153950000Y-99300000D01*
X152450000Y-99300000D01*
X152425496Y-99298796D01*
X152401227Y-99295196D01*
X152377429Y-99289235D01*
X152354329Y-99280970D01*
X152332151Y-99270480D01*
X152311107Y-99257867D01*
X152291402Y-99243253D01*
X152273223Y-99226777D01*
X152256747Y-99208598D01*
X152242133Y-99188893D01*
X152229520Y-99167849D01*
X152219030Y-99145671D01*
X152210765Y-99122571D01*
X152204804Y-99098773D01*
X152201204Y-99074504D01*
X152200000Y-99050000D01*
X152200000Y-96950000D01*
X152201204Y-96925496D01*
X152204804Y-96901227D01*
X152210765Y-96877429D01*
X152219030Y-96854329D01*
X152229520Y-96832151D01*
X152242133Y-96811107D01*
X152256747Y-96791402D01*
X152273223Y-96773223D01*
X152291402Y-96756747D01*
X152311107Y-96742133D01*
X152332151Y-96729520D01*
X152354329Y-96719030D01*
X152377429Y-96710765D01*
X152401227Y-96704804D01*
X152425496Y-96701204D01*
X152450000Y-96700000D01*
X153950000Y-96700000D01*
X153974504Y-96701204D01*
G37*
D13*
X93900000Y-111700000D03*
X93900000Y-108200000D03*
X93900000Y-104700000D03*
X93900000Y-101200000D03*
D12*
G36*
X94974504Y-96701204D02*
G01*
X94998773Y-96704804D01*
X95022571Y-96710765D01*
X95045671Y-96719030D01*
X95067849Y-96729520D01*
X95088893Y-96742133D01*
X95108598Y-96756747D01*
X95126777Y-96773223D01*
X95143253Y-96791402D01*
X95157867Y-96811107D01*
X95170480Y-96832151D01*
X95180970Y-96854329D01*
X95189235Y-96877429D01*
X95195196Y-96901227D01*
X95198796Y-96925496D01*
X95200000Y-96950000D01*
X95200000Y-98450000D01*
X95198796Y-98474504D01*
X95195196Y-98498773D01*
X95189235Y-98522571D01*
X95180970Y-98545671D01*
X95170480Y-98567849D01*
X95157867Y-98588893D01*
X95143253Y-98608598D01*
X95126777Y-98626777D01*
X95108598Y-98643253D01*
X95088893Y-98657867D01*
X95067849Y-98670480D01*
X95045671Y-98680970D01*
X95022571Y-98689235D01*
X94998773Y-98695196D01*
X94974504Y-98698796D01*
X94950000Y-98700000D01*
X92850000Y-98700000D01*
X92825496Y-98698796D01*
X92801227Y-98695196D01*
X92777429Y-98689235D01*
X92754329Y-98680970D01*
X92732151Y-98670480D01*
X92711107Y-98657867D01*
X92691402Y-98643253D01*
X92673223Y-98626777D01*
X92656747Y-98608598D01*
X92642133Y-98588893D01*
X92629520Y-98567849D01*
X92619030Y-98545671D01*
X92610765Y-98522571D01*
X92604804Y-98498773D01*
X92601204Y-98474504D01*
X92600000Y-98450000D01*
X92600000Y-96950000D01*
X92601204Y-96925496D01*
X92604804Y-96901227D01*
X92610765Y-96877429D01*
X92619030Y-96854329D01*
X92629520Y-96832151D01*
X92642133Y-96811107D01*
X92656747Y-96791402D01*
X92673223Y-96773223D01*
X92691402Y-96756747D01*
X92711107Y-96742133D01*
X92732151Y-96729520D01*
X92754329Y-96719030D01*
X92777429Y-96710765D01*
X92801227Y-96704804D01*
X92825496Y-96701204D01*
X92850000Y-96700000D01*
X94950000Y-96700000D01*
X94974504Y-96701204D01*
G37*
D13*
X93900000Y-83600000D03*
X93900000Y-80100000D03*
X93900000Y-76600000D03*
X93900000Y-73100000D03*
D12*
G36*
X94974504Y-68601204D02*
G01*
X94998773Y-68604804D01*
X95022571Y-68610765D01*
X95045671Y-68619030D01*
X95067849Y-68629520D01*
X95088893Y-68642133D01*
X95108598Y-68656747D01*
X95126777Y-68673223D01*
X95143253Y-68691402D01*
X95157867Y-68711107D01*
X95170480Y-68732151D01*
X95180970Y-68754329D01*
X95189235Y-68777429D01*
X95195196Y-68801227D01*
X95198796Y-68825496D01*
X95200000Y-68850000D01*
X95200000Y-70350000D01*
X95198796Y-70374504D01*
X95195196Y-70398773D01*
X95189235Y-70422571D01*
X95180970Y-70445671D01*
X95170480Y-70467849D01*
X95157867Y-70488893D01*
X95143253Y-70508598D01*
X95126777Y-70526777D01*
X95108598Y-70543253D01*
X95088893Y-70557867D01*
X95067849Y-70570480D01*
X95045671Y-70580970D01*
X95022571Y-70589235D01*
X94998773Y-70595196D01*
X94974504Y-70598796D01*
X94950000Y-70600000D01*
X92850000Y-70600000D01*
X92825496Y-70598796D01*
X92801227Y-70595196D01*
X92777429Y-70589235D01*
X92754329Y-70580970D01*
X92732151Y-70570480D01*
X92711107Y-70557867D01*
X92691402Y-70543253D01*
X92673223Y-70526777D01*
X92656747Y-70508598D01*
X92642133Y-70488893D01*
X92629520Y-70467849D01*
X92619030Y-70445671D01*
X92610765Y-70422571D01*
X92604804Y-70398773D01*
X92601204Y-70374504D01*
X92600000Y-70350000D01*
X92600000Y-68850000D01*
X92601204Y-68825496D01*
X92604804Y-68801227D01*
X92610765Y-68777429D01*
X92619030Y-68754329D01*
X92629520Y-68732151D01*
X92642133Y-68711107D01*
X92656747Y-68691402D01*
X92673223Y-68673223D01*
X92691402Y-68656747D01*
X92711107Y-68642133D01*
X92732151Y-68629520D01*
X92754329Y-68619030D01*
X92777429Y-68610765D01*
X92801227Y-68604804D01*
X92825496Y-68601204D01*
X92850000Y-68600000D01*
X94950000Y-68600000D01*
X94974504Y-68601204D01*
G37*
D13*
X251900000Y-98000000D03*
X251900000Y-101500000D03*
X251900000Y-105000000D03*
X251900000Y-108500000D03*
D12*
G36*
X252974504Y-111001204D02*
G01*
X252998773Y-111004804D01*
X253022571Y-111010765D01*
X253045671Y-111019030D01*
X253067849Y-111029520D01*
X253088893Y-111042133D01*
X253108598Y-111056747D01*
X253126777Y-111073223D01*
X253143253Y-111091402D01*
X253157867Y-111111107D01*
X253170480Y-111132151D01*
X253180970Y-111154329D01*
X253189235Y-111177429D01*
X253195196Y-111201227D01*
X253198796Y-111225496D01*
X253200000Y-111250000D01*
X253200000Y-112750000D01*
X253198796Y-112774504D01*
X253195196Y-112798773D01*
X253189235Y-112822571D01*
X253180970Y-112845671D01*
X253170480Y-112867849D01*
X253157867Y-112888893D01*
X253143253Y-112908598D01*
X253126777Y-112926777D01*
X253108598Y-112943253D01*
X253088893Y-112957867D01*
X253067849Y-112970480D01*
X253045671Y-112980970D01*
X253022571Y-112989235D01*
X252998773Y-112995196D01*
X252974504Y-112998796D01*
X252950000Y-113000000D01*
X250850000Y-113000000D01*
X250825496Y-112998796D01*
X250801227Y-112995196D01*
X250777429Y-112989235D01*
X250754329Y-112980970D01*
X250732151Y-112970480D01*
X250711107Y-112957867D01*
X250691402Y-112943253D01*
X250673223Y-112926777D01*
X250656747Y-112908598D01*
X250642133Y-112888893D01*
X250629520Y-112867849D01*
X250619030Y-112845671D01*
X250610765Y-112822571D01*
X250604804Y-112798773D01*
X250601204Y-112774504D01*
X250600000Y-112750000D01*
X250600000Y-111250000D01*
X250601204Y-111225496D01*
X250604804Y-111201227D01*
X250610765Y-111177429D01*
X250619030Y-111154329D01*
X250629520Y-111132151D01*
X250642133Y-111111107D01*
X250656747Y-111091402D01*
X250673223Y-111073223D01*
X250691402Y-111056747D01*
X250711107Y-111042133D01*
X250732151Y-111029520D01*
X250754329Y-111019030D01*
X250777429Y-111010765D01*
X250801227Y-111004804D01*
X250825496Y-111001204D01*
X250850000Y-111000000D01*
X252950000Y-111000000D01*
X252974504Y-111001204D01*
G37*
D13*
X251900000Y-69800000D03*
X251900000Y-73300000D03*
X251900000Y-76800000D03*
X251900000Y-80300000D03*
D12*
G36*
X252974504Y-82801204D02*
G01*
X252998773Y-82804804D01*
X253022571Y-82810765D01*
X253045671Y-82819030D01*
X253067849Y-82829520D01*
X253088893Y-82842133D01*
X253108598Y-82856747D01*
X253126777Y-82873223D01*
X253143253Y-82891402D01*
X253157867Y-82911107D01*
X253170480Y-82932151D01*
X253180970Y-82954329D01*
X253189235Y-82977429D01*
X253195196Y-83001227D01*
X253198796Y-83025496D01*
X253200000Y-83050000D01*
X253200000Y-84550000D01*
X253198796Y-84574504D01*
X253195196Y-84598773D01*
X253189235Y-84622571D01*
X253180970Y-84645671D01*
X253170480Y-84667849D01*
X253157867Y-84688893D01*
X253143253Y-84708598D01*
X253126777Y-84726777D01*
X253108598Y-84743253D01*
X253088893Y-84757867D01*
X253067849Y-84770480D01*
X253045671Y-84780970D01*
X253022571Y-84789235D01*
X252998773Y-84795196D01*
X252974504Y-84798796D01*
X252950000Y-84800000D01*
X250850000Y-84800000D01*
X250825496Y-84798796D01*
X250801227Y-84795196D01*
X250777429Y-84789235D01*
X250754329Y-84780970D01*
X250732151Y-84770480D01*
X250711107Y-84757867D01*
X250691402Y-84743253D01*
X250673223Y-84726777D01*
X250656747Y-84708598D01*
X250642133Y-84688893D01*
X250629520Y-84667849D01*
X250619030Y-84645671D01*
X250610765Y-84622571D01*
X250604804Y-84598773D01*
X250601204Y-84574504D01*
X250600000Y-84550000D01*
X250600000Y-83050000D01*
X250601204Y-83025496D01*
X250604804Y-83001227D01*
X250610765Y-82977429D01*
X250619030Y-82954329D01*
X250629520Y-82932151D01*
X250642133Y-82911107D01*
X250656747Y-82891402D01*
X250673223Y-82873223D01*
X250691402Y-82856747D01*
X250711107Y-82842133D01*
X250732151Y-82829520D01*
X250754329Y-82819030D01*
X250777429Y-82810765D01*
X250801227Y-82804804D01*
X250825496Y-82801204D01*
X250850000Y-82800000D01*
X252950000Y-82800000D01*
X252974504Y-82801204D01*
G37*
D14*
X190895000Y-79975000D03*
X154905000Y-79975000D03*
D15*
X153165000Y-93795000D03*
X155705000Y-93795000D03*
X153165000Y-91255000D03*
X155705000Y-91255000D03*
X153165000Y-88715000D03*
X155705000Y-88715000D03*
X153165000Y-86175000D03*
D16*
X155705000Y-86175000D03*
D17*
X189900000Y-103300000D03*
D18*
X192440000Y-103300000D03*
X189900000Y-105840000D03*
X192440000Y-105840000D03*
X189900000Y-108380000D03*
X192440000Y-108380000D03*
X189900000Y-110920000D03*
X192440000Y-110920000D03*
X189900000Y-113460000D03*
X192440000Y-113460000D03*
M02*
