M48
; DRILL file {KiCad 5.1.5} date So 05 Apr 2020 15:42:06 CEST
; FORMAT={-:-/ absolute / metric / decimal}
; #@! TF.CreationDate,2020-04-05T15:42:06+02:00
; #@! TF.GenerationSoftware,Kicad,Pcbnew,5.1.5
; #@! TF.FileFunction,Plated,1,2,PTH
FMAT,2
METRIC
T1C0.300
T2C1.000
T3C1.016
T4C1.600
%
G90
G05
T1
X89.6Y-62.62
X89.6Y-64.63
X89.6Y-66.64
X89.6Y-68.65
X89.6Y-70.66
X89.6Y-72.67
X89.6Y-74.68
X89.6Y-76.69
X89.6Y-78.7
X89.6Y-80.71
X89.6Y-82.72
X89.6Y-84.73
X89.6Y-86.74
X89.6Y-88.75
X89.6Y-90.76
X89.6Y-92.77
X89.6Y-94.78
X89.6Y-96.79
X89.6Y-98.8
X89.6Y-100.81
X89.6Y-102.82
X89.6Y-104.83
X89.6Y-106.84
X89.6Y-108.85
X89.6Y-110.86
X89.6Y-112.87
X89.6Y-114.88
X89.6Y-116.89
X89.6Y-118.9
X91.1Y-63.65
X91.1Y-64.65
X91.1Y-65.65
X91.1Y-87.85
X91.1Y-88.85
X91.1Y-89.85
X91.1Y-90.8
X91.1Y-91.85
X91.1Y-92.85
X91.1Y-93.85
X91.1Y-116.05
X91.1Y-117.05
X91.1Y-118.05
X91.6Y-62.6
X91.609Y-118.9
X92.1Y-90.8
X93.1Y-90.8
X93.6Y-62.6
X93.618Y-118.9
X94.1Y-63.65
X94.1Y-64.65
X94.1Y-65.65
X94.1Y-87.85
X94.1Y-88.85
X94.1Y-89.85
X94.1Y-90.8
X94.1Y-91.85
X94.1Y-92.85
X94.1Y-93.85
X94.1Y-116.05
X94.1Y-117.05
X94.1Y-118.05
X95.6Y-62.6
X95.627Y-118.9
X97.6Y-62.6
X97.636Y-118.9
X99.6Y-62.6
X99.645Y-118.9
X101.6Y-62.6
X101.654Y-118.9
X103.6Y-62.6
X103.663Y-118.9
X105.6Y-62.6
X105.672Y-118.9
X107.6Y-62.6
X107.681Y-118.9
X109.6Y-62.6
X109.69Y-118.9
X111.6Y-62.6
X111.699Y-118.9
X112.2Y-76.05
X112.2Y-77.25
X112.2Y-104.25
X112.2Y-105.45
X113.2Y-76.05
X113.2Y-77.25
X113.2Y-104.25
X113.2Y-105.45
X113.6Y-62.6
X113.708Y-118.9
X114.2Y-76.05
X114.2Y-77.25
X114.2Y-104.25
X114.2Y-105.45
X115.6Y-62.6
X115.717Y-118.9
X117.6Y-62.6
X117.726Y-118.9
X119.6Y-62.6
X119.735Y-118.9
X119.8Y-76.05
X119.8Y-77.25
X119.8Y-104.25
X119.8Y-105.45
X121.15Y-76.05
X121.15Y-77.25
X121.15Y-104.25
X121.15Y-105.45
X121.6Y-62.6
X121.744Y-118.9
X122.5Y-76.05
X122.5Y-77.25
X122.5Y-104.25
X122.5Y-105.45
X123.6Y-62.6
X123.753Y-118.9
X124.9Y-78.45
X124.9Y-106.65
X125.6Y-62.6
X125.762Y-118.9
X125.9Y-78.45
X125.9Y-106.65
X127.0Y-75.55
X127.0Y-76.55
X127.0Y-77.45
X127.0Y-78.45
X127.0Y-103.75
X127.0Y-104.75
X127.0Y-105.65
X127.0Y-106.65
X127.6Y-62.6
X127.771Y-118.9
X128.1Y-75.55
X128.1Y-78.45
X128.1Y-103.75
X128.1Y-106.65
X129.3Y-75.55
X129.3Y-78.45
X129.3Y-103.75
X129.3Y-106.65
X129.6Y-62.6
X129.78Y-118.9
X131.6Y-62.6
X131.789Y-118.9
X133.6Y-62.6
X133.798Y-118.9
X135.6Y-62.6
X135.807Y-118.9
X137.4Y-65.65
X137.4Y-90.4
X137.4Y-91.4
X137.4Y-93.85
X137.45Y-67.85
X137.45Y-69.1
X137.45Y-70.35
X137.45Y-73.45
X137.45Y-74.7
X137.45Y-75.95
X137.45Y-78.95
X137.45Y-80.2
X137.45Y-81.45
X137.45Y-96.05
X137.45Y-97.3
X137.45Y-98.55
X137.45Y-101.65
X137.45Y-102.9
X137.45Y-104.15
X137.45Y-107.15
X137.45Y-108.4
X137.45Y-109.65
X137.5Y-88.05
X137.5Y-116.25
X137.55Y-84.45
X137.55Y-85.7
X137.55Y-86.95
X137.55Y-112.65
X137.55Y-113.9
X137.55Y-115.15
X137.6Y-62.6
X137.816Y-118.9
X138.1Y-65.65
X138.1Y-90.4
X138.1Y-91.4
X138.1Y-93.85
X138.2Y-88.05
X138.2Y-116.25
X138.7Y-63.85
X138.7Y-65.05
X138.7Y-67.85
X138.7Y-69.1
X138.7Y-70.35
X138.7Y-73.45
X138.7Y-74.7
X138.7Y-75.95
X138.7Y-78.95
X138.7Y-80.2
X138.7Y-81.45
X138.7Y-92.05
X138.7Y-93.25
X138.7Y-96.05
X138.7Y-97.3
X138.7Y-98.55
X138.7Y-101.65
X138.7Y-102.9
X138.7Y-104.15
X138.7Y-107.15
X138.7Y-108.4
X138.7Y-109.65
X138.8Y-84.45
X138.8Y-85.7
X138.8Y-86.95
X138.8Y-88.65
X138.8Y-89.85
X138.8Y-112.65
X138.8Y-113.9
X138.8Y-115.15
X138.8Y-116.85
X138.8Y-118.05
X139.6Y-62.6
X139.825Y-118.9
X141.6Y-62.6
X141.834Y-118.9
X143.6Y-62.6
X143.843Y-118.9
X144.2Y-68.85
X144.2Y-75.65
X144.2Y-82.45
X144.2Y-89.25
X144.2Y-97.05
X144.2Y-103.85
X144.2Y-110.65
X144.2Y-117.45
X144.7Y-90.25
X144.7Y-91.5
X144.9Y-65.65
X144.9Y-72.45
X144.9Y-86.05
X144.9Y-93.85
X144.9Y-100.65
X144.9Y-114.25
X145.0Y-79.25
X145.0Y-107.45
X145.6Y-62.6
X145.852Y-118.9
X145.9Y-68.65
X145.9Y-69.95
X145.9Y-75.45
X145.9Y-76.75
X145.9Y-82.25
X145.9Y-83.55
X145.9Y-89.05
X145.9Y-96.85
X145.9Y-98.15
X145.9Y-103.65
X145.9Y-104.95
X145.9Y-110.45
X145.9Y-111.75
X145.9Y-117.25
X145.95Y-90.25
X145.95Y-91.5
X146.9Y-66.25
X146.9Y-73.05
X146.9Y-79.85
X146.9Y-86.65
X146.9Y-88.7
X146.9Y-90.85
X146.9Y-94.45
X146.9Y-101.25
X146.9Y-102.2
X146.9Y-108.05
X146.9Y-114.85
X147.6Y-62.6
X147.65Y-68.85
X147.65Y-69.65
X147.65Y-70.45
X147.65Y-75.65
X147.65Y-76.45
X147.65Y-77.25
X147.65Y-90.25
X147.65Y-91.05
X147.65Y-91.85
X147.65Y-97.05
X147.65Y-97.85
X147.65Y-98.65
X147.65Y-103.85
X147.65Y-104.65
X147.65Y-105.45
X147.7Y-82.5
X147.7Y-83.3
X147.7Y-84.1
X147.7Y-110.7
X147.7Y-111.5
X147.7Y-112.3
X147.861Y-118.9
X148.435Y-65.965
X148.485Y-72.765
X148.485Y-79.565
X148.485Y-94.165
X148.485Y-100.965
X148.485Y-107.765
X148.535Y-86.415
X148.535Y-114.615
X149.1Y-65.45
X149.1Y-72.25
X149.1Y-79.05
X149.1Y-93.65
X149.1Y-100.45
X149.1Y-107.25
X149.15Y-85.9
X149.15Y-114.1
X149.6Y-62.6
X149.87Y-118.9
X149.9Y-66.6
X149.9Y-67.3
X149.9Y-68.9
X149.9Y-73.4
X149.9Y-74.1
X149.9Y-75.8
X149.9Y-80.2
X149.9Y-80.9
X149.9Y-82.6
X149.9Y-108.4
X149.9Y-109.1
X149.9Y-115.25
X149.9Y-115.95
X149.9Y-117.65
X149.9Y-118.35
X149.94Y-94.8
X149.94Y-95.5
X149.95Y-70.7
X149.95Y-71.35
X149.95Y-77.5
X149.95Y-84.35
X149.95Y-85.15
X149.95Y-85.95
X149.95Y-87.05
X149.95Y-87.75
X149.95Y-89.4
X149.95Y-90.4
X149.95Y-91.4
X149.95Y-92.4
X149.95Y-97.2
X149.95Y-100.2
X149.95Y-101.6
X149.95Y-102.3
X149.95Y-104.5
X149.95Y-106.5
X150.0Y-110.95
X150.0Y-111.75
X150.0Y-112.55
X150.45Y-100.65
X151.1Y-84.7
X151.1Y-110.9
X151.2Y-99.6
X151.65Y-104.5
X151.65Y-106.5
X151.879Y-118.9
X152.65Y-102.4
X152.65Y-104.5
X152.65Y-106.5
X153.4Y-102.4
X153.65Y-104.5
X153.65Y-106.5
X153.888Y-118.9
X154.1Y-102.4
X154.65Y-104.5
X154.65Y-106.5
X155.3Y-105.5
X155.65Y-104.5
X155.65Y-106.5
X155.897Y-118.9
X156.3Y-105.5
X157.3Y-105.5
X157.906Y-118.9
X158.3Y-105.5
X159.0Y-99.6
X159.2Y-85.4
X159.6Y-107.6
X159.6Y-108.5
X159.6Y-109.4
X159.915Y-118.9
X160.05Y-95.3
X160.9Y-109.4
X161.05Y-101.8
X161.1Y-97.5
X161.4Y-90.0
X161.924Y-118.9
X162.2Y-107.6
X162.2Y-108.5
X162.2Y-109.4
X162.55Y-88.7
X162.7Y-95.9
X163.1Y-99.8
X163.933Y-118.9
X164.05Y-93.8
X164.574Y-95.399
X164.85Y-93.75
X165.35Y-101.05
X165.35Y-101.85
X165.35Y-104.75
X165.35Y-105.55
X165.85Y-85.45
X165.942Y-118.9
X166.25Y-101.05
X166.25Y-101.85
X166.25Y-104.75
X166.25Y-105.55
X167.15Y-101.05
X167.15Y-101.85
X167.15Y-104.75
X167.15Y-105.55
X167.6Y-87.9
X167.6Y-93.0
X167.8Y-85.6
X167.951Y-118.9
X168.0Y-90.7
X168.05Y-101.05
X168.05Y-101.85
X168.05Y-104.75
X168.05Y-105.55
X168.8Y-102.65
X168.8Y-103.3
X168.8Y-103.95
X168.95Y-105.2
X169.0Y-114.45
X169.1Y-86.6
X169.7Y-91.4
X169.8Y-96.9
X169.96Y-118.9
X170.05Y-90.0
X170.2Y-95.9
X170.6Y-92.3
X170.8Y-91.3
X171.0Y-114.45
X171.05Y-105.2
X171.25Y-102.65
X171.25Y-103.3
X171.25Y-103.95
X171.4Y-93.3
X171.65Y-90.0
X171.95Y-97.3
X171.95Y-101.8
X171.969Y-118.9
X172.0Y-91.3
X172.0Y-104.8
X172.05Y-94.1
X172.15Y-93.3
X172.6Y-92.3
X172.6Y-94.6
X172.7Y-85.05
X172.8Y-86.7
X172.8Y-90.1
X172.9Y-95.6
X172.9Y-105.7
X173.0Y-93.25
X173.2Y-91.55
X173.55Y-93.8
X173.978Y-118.9
X174.0Y-88.7
X174.0Y-90.1
X175.05Y-92.8
X175.3Y-90.1
X175.4Y-89.35
X175.45Y-95.8
X175.85Y-85.9
X175.987Y-118.9
X176.0Y-96.3
X176.05Y-97.2
X176.5Y-114.3
X176.7Y-97.85
X177.0Y-116.6
X177.1Y-94.5
X177.3Y-87.4
X177.8Y-101.7
X177.9Y-95.1
X177.9Y-109.05
X177.996Y-118.9
X178.11Y-86.78
X178.7Y-95.8
X178.7Y-109.05
X178.96Y-86.2
X179.1Y-89.45
X179.15Y-90.65
X179.5Y-88.65
X179.5Y-109.05
X179.8Y-85.55
X179.9Y-100.1
X179.9Y-101.7
X180.005Y-118.9
X180.3Y-109.05
X180.3Y-110.5
X180.5Y-113.15
X181.1Y-103.5
X181.1Y-104.15
X181.1Y-104.8
X181.4Y-98.5
X182.0Y-100.1
X182.0Y-101.7
X182.014Y-118.9
X182.1Y-97.8
X182.1Y-98.5
X182.45Y-92.75
X182.8Y-97.1
X182.8Y-97.8
X182.8Y-98.5
X182.95Y-90.7
X182.95Y-91.35
X182.95Y-92.0
X183.2Y-96.3
X184.023Y-118.9
X184.1Y-97.1
X184.1Y-98.5
X184.1Y-100.1
X184.1Y-101.7
X185.4Y-90.7
X185.4Y-91.35
X185.4Y-92.0
X185.7Y-93.4
X185.75Y-96.3
X186.032Y-118.9
X186.3Y-97.1
X186.3Y-98.5
X186.3Y-100.1
X186.3Y-101.7
X186.4Y-89.2
X186.6Y-93.4
X186.6Y-96.3
X187.05Y-102.25
X187.05Y-103.1
X187.05Y-103.95
X187.15Y-92.75
X187.4Y-88.4
X187.75Y-99.9
X187.8Y-92.25
X188.041Y-118.9
X188.05Y-103.95
X188.05Y-110.1
X188.45Y-92.75
X188.85Y-89.85
X189.95Y-88.4
X190.05Y-118.9
X190.9Y-93.4
X191.15Y-96.75
X191.2Y-90.65
X191.8Y-97.35
X191.8Y-102.15
X191.9Y-85.6
X191.9Y-93.4
X192.0Y-89.2
X192.059Y-118.9
X192.15Y-84.5
X192.45Y-96.75
X192.85Y-89.2
X192.9Y-93.4
X193.35Y-86.5
X193.65Y-96.45
X193.7Y-89.2
X193.75Y-104.6
X193.75Y-107.15
X193.75Y-109.65
X193.9Y-93.4
X194.068Y-118.9
X194.3Y-88.25
X194.55Y-89.2
X194.85Y-104.75
X194.9Y-93.4
X195.55Y-98.7
X195.85Y-67.8
X195.85Y-68.5
X195.85Y-69.2
X195.9Y-65.6
X195.9Y-66.3
X195.9Y-74.65
X195.9Y-75.35
X195.9Y-76.05
X195.9Y-79.25
X195.9Y-79.95
X195.9Y-81.45
X195.9Y-82.15
X195.9Y-82.85
X195.9Y-83.85
X195.9Y-86.05
X195.9Y-86.75
X195.9Y-88.25
X195.9Y-90.15
X195.9Y-91.0
X195.9Y-91.85
X195.9Y-93.8
X195.9Y-94.5
X195.9Y-100.65
X195.9Y-101.35
X195.9Y-102.85
X195.9Y-103.55
X195.9Y-104.25
X195.9Y-107.45
X195.9Y-108.15
X195.9Y-109.65
X195.9Y-110.35
X195.9Y-111.05
X195.9Y-114.25
X195.9Y-114.95
X195.91Y-72.45
X195.91Y-73.15
X196.077Y-118.9
X196.1Y-62.7
X196.65Y-67.45
X196.65Y-95.65
X196.7Y-74.3
X196.7Y-81.1
X196.7Y-87.9
X196.7Y-102.5
X196.7Y-109.3
X196.7Y-116.1
X197.265Y-95.135
X197.3Y-115.585
X197.315Y-66.935
X197.315Y-73.785
X197.315Y-87.385
X197.315Y-101.985
X197.315Y-108.785
X197.365Y-80.585
X198.086Y-118.9
X198.1Y-62.7
X198.1Y-69.7
X198.1Y-70.4
X198.1Y-97.9
X198.1Y-98.6
X198.15Y-75.85
X198.15Y-76.55
X198.15Y-77.25
X198.15Y-82.65
X198.15Y-83.35
X198.15Y-84.05
X198.15Y-89.45
X198.15Y-90.15
X198.15Y-90.85
X198.15Y-91.55
X198.15Y-92.25
X198.15Y-104.05
X198.15Y-104.75
X198.15Y-105.45
X198.15Y-110.85
X198.15Y-111.55
X198.15Y-112.25
X198.9Y-66.7
X198.9Y-73.5
X198.9Y-80.3
X198.9Y-87.1
X198.9Y-94.9
X198.9Y-101.7
X198.9Y-108.5
X198.9Y-115.3
X199.0Y-90.7
X199.9Y-64.3
X199.9Y-69.8
X199.9Y-71.1
X199.9Y-76.6
X199.9Y-77.9
X199.9Y-83.4
X199.9Y-84.7
X199.9Y-90.0
X199.9Y-91.3
X199.9Y-92.5
X199.9Y-98.0
X199.9Y-99.3
X199.9Y-104.8
X199.9Y-106.1
X199.9Y-111.6
X199.9Y-112.9
X200.095Y-118.9
X200.1Y-62.7
X200.8Y-74.1
X200.8Y-102.3
X200.9Y-67.3
X200.9Y-80.9
X200.9Y-87.7
X200.9Y-95.5
X200.9Y-109.1
X200.9Y-115.9
X201.6Y-64.1
X201.6Y-70.9
X201.6Y-77.7
X201.6Y-84.5
X201.6Y-92.3
X201.6Y-99.1
X201.6Y-105.9
X201.6Y-112.7
X202.1Y-62.7
X202.104Y-118.9
X204.1Y-62.7
X204.113Y-118.9
X206.1Y-62.7
X206.122Y-118.9
X207.0Y-63.5
X207.0Y-64.7
X207.0Y-66.4
X207.0Y-67.65
X207.0Y-68.9
X207.0Y-91.7
X207.0Y-92.9
X207.0Y-94.6
X207.0Y-95.85
X207.0Y-97.1
X207.1Y-71.9
X207.1Y-73.15
X207.1Y-74.4
X207.1Y-77.4
X207.1Y-78.65
X207.1Y-79.9
X207.1Y-83.0
X207.1Y-84.25
X207.1Y-85.5
X207.1Y-88.3
X207.1Y-89.5
X207.1Y-100.1
X207.1Y-101.35
X207.1Y-102.6
X207.1Y-105.6
X207.1Y-106.85
X207.1Y-108.1
X207.1Y-111.2
X207.1Y-112.45
X207.1Y-113.7
X207.1Y-116.5
X207.1Y-117.7
X207.6Y-65.3
X207.7Y-87.7
X207.7Y-90.1
X207.7Y-91.1
X207.7Y-93.5
X207.7Y-115.9
X208.1Y-62.7
X208.131Y-118.9
X208.25Y-66.4
X208.25Y-67.65
X208.25Y-68.9
X208.25Y-94.6
X208.25Y-95.85
X208.25Y-97.1
X208.3Y-65.3
X208.35Y-71.9
X208.35Y-73.15
X208.35Y-74.4
X208.35Y-77.4
X208.35Y-78.65
X208.35Y-79.9
X208.35Y-83.0
X208.35Y-84.25
X208.35Y-85.5
X208.35Y-100.1
X208.35Y-101.35
X208.35Y-102.6
X208.35Y-105.6
X208.35Y-106.85
X208.35Y-108.1
X208.35Y-111.2
X208.35Y-112.45
X208.35Y-113.7
X208.4Y-87.7
X208.4Y-90.1
X208.4Y-91.1
X208.4Y-93.5
X208.4Y-115.9
X210.1Y-62.7
X210.14Y-118.9
X212.1Y-62.7
X212.149Y-118.9
X214.1Y-62.7
X214.158Y-118.9
X216.1Y-62.7
X216.167Y-118.9
X216.5Y-74.9
X216.5Y-77.8
X216.5Y-103.1
X216.5Y-106.0
X217.7Y-74.9
X217.7Y-77.8
X217.7Y-103.1
X217.7Y-106.0
X218.1Y-62.7
X218.176Y-118.9
X218.8Y-74.9
X218.8Y-75.9
X218.8Y-76.8
X218.8Y-77.8
X218.8Y-103.1
X218.8Y-104.1
X218.8Y-105.0
X218.8Y-106.0
X219.9Y-74.9
X219.9Y-103.1
X220.1Y-62.7
X220.185Y-118.9
X220.9Y-74.9
X220.9Y-103.1
X222.1Y-62.7
X222.194Y-118.9
X223.3Y-76.1
X223.3Y-77.3
X223.3Y-104.3
X223.3Y-105.5
X224.1Y-62.7
X224.203Y-118.9
X224.65Y-76.1
X224.65Y-77.3
X224.65Y-104.3
X224.65Y-105.5
X226.0Y-76.1
X226.0Y-77.3
X226.0Y-104.3
X226.0Y-105.5
X226.1Y-62.7
X226.212Y-118.9
X228.1Y-62.7
X228.221Y-118.9
X230.1Y-62.7
X230.23Y-118.9
X231.6Y-76.1
X231.6Y-77.3
X231.6Y-104.3
X231.6Y-105.5
X232.1Y-62.7
X232.239Y-118.9
X232.6Y-76.1
X232.6Y-77.3
X232.6Y-104.3
X232.6Y-105.5
X233.6Y-76.1
X233.6Y-77.3
X233.6Y-104.3
X233.6Y-105.5
X234.1Y-62.7
X234.248Y-118.9
X236.1Y-62.7
X236.257Y-118.9
X238.1Y-62.7
X238.266Y-118.9
X240.1Y-62.7
X240.275Y-118.9
X242.1Y-62.7
X242.284Y-118.9
X244.1Y-62.7
X244.293Y-118.9
X246.1Y-62.7
X246.302Y-118.9
X248.1Y-62.7
X248.311Y-118.9
X250.1Y-62.7
X250.32Y-118.9
X251.7Y-63.5
X251.7Y-64.5
X251.7Y-65.5
X251.7Y-87.7
X251.7Y-88.7
X251.7Y-89.7
X251.7Y-90.7
X251.7Y-91.7
X251.7Y-92.7
X251.7Y-93.7
X251.7Y-115.9
X251.7Y-116.9
X251.7Y-117.9
X252.1Y-62.7
X252.329Y-118.9
X252.7Y-90.7
X253.7Y-90.7
X254.2Y-62.7
X254.338Y-118.9
X254.7Y-63.5
X254.7Y-64.5
X254.7Y-65.5
X254.7Y-87.7
X254.7Y-88.7
X254.7Y-89.7
X254.7Y-90.7
X254.7Y-91.7
X254.7Y-92.7
X254.7Y-93.7
X254.7Y-115.9
X254.7Y-116.9
X254.7Y-117.9
X256.347Y-64.63
X256.347Y-66.64
X256.347Y-68.65
X256.347Y-70.66
X256.347Y-72.67
X256.347Y-74.68
X256.347Y-76.69
X256.347Y-78.7
X256.347Y-80.71
X256.347Y-82.72
X256.347Y-84.73
X256.347Y-86.74
X256.347Y-88.75
X256.347Y-90.76
X256.347Y-92.77
X256.347Y-94.78
X256.347Y-96.79
X256.347Y-98.8
X256.347Y-100.81
X256.347Y-102.82
X256.347Y-104.83
X256.347Y-106.84
X256.347Y-108.85
X256.347Y-110.86
X256.347Y-112.87
X256.347Y-114.88
X256.347Y-116.89
X256.347Y-118.9
X256.4Y-62.7
T2
X153.165Y-86.175
X153.165Y-88.715
X153.165Y-91.255
X153.165Y-93.795
X155.705Y-86.175
X155.705Y-88.715
X155.705Y-91.255
X155.705Y-93.795
T3
X189.9Y-103.3
X189.9Y-105.84
X189.9Y-108.38
X189.9Y-110.92
X189.9Y-113.46
X192.44Y-103.3
X192.44Y-105.84
X192.44Y-108.38
X192.44Y-110.92
X192.44Y-113.46
T4
X251.9Y-98.0
X251.9Y-101.5
X251.9Y-105.0
X251.9Y-108.5
X251.9Y-112.0
X93.9Y-69.6
X93.9Y-73.1
X93.9Y-76.6
X93.9Y-80.1
X93.9Y-83.6
X251.9Y-69.8
X251.9Y-73.3
X251.9Y-76.8
X251.9Y-80.3
X251.9Y-83.8
X93.9Y-97.7
X93.9Y-101.2
X93.9Y-104.7
X93.9Y-108.2
X93.9Y-111.7
X153.2Y-98.0
X156.7Y-98.0
T0
M30
